{
.appVersion = "3198";
copyright = "Copyright © 2018 by Deni Anggara. All rights reserved.";
customParameters = (
{
name = "Use Typo Metrics";
value = 1;
},
{
name = "Axis Mappings";
value = {
wdth = {
100 = 400;
120 = 500;
130 = 700;
};
};
},
{
name = Axes;
value = (
{
Hidden = 1;
Name = Width;
Tag = wdth;
}
);
}
);
date = "2018-07-14 21:09:12 +0000";
designer = "Deni Anggara";
designerURL = www.lokalcontainer.org;
familyName = "LC Mogi";
featurePrefixes = (
{
automatic = 1;
code = "languagesystem DFLT dflt;\012\012languagesystem latn dflt;\012languagesystem latn AZE;\012languagesystem latn CRT;\012languagesystem latn KAZ;\012languagesystem latn TAT;\012languagesystem latn TRK;\012languagesystem latn ROM;\012languagesystem latn MOL;\012languagesystem latn CAT;\012languagesystem latn NLD;\012";
name = Languagesystems;
}
);
features = (
{
automatic = 1;
code = "feature locl;\012feature subs;\012feature sinf;\012feature sups;\012feature numr;\012feature dnom;\012feature frac;\012feature ordn;\012feature case;\012feature fwid;\012feature ss01;\012feature ss03;\012";
name = aalt;
},
{
automatic = 1;

glyphs = (
{
glyphname = A;
lastChange = "2023-05-23 19:28:12 +0000";
layers = (
{
anchors = (
{
name = bottom;
position = "{428, 0}";
},
{
name = ogonek;
position = "{728, 0}";
},
{
name = top;
position = "{428, 690}";
}
);
background = {
paths = (
{
closed = 1;
nodes = (
"382 0 LINE",
"384 56 LINE",
"437 56 LINE",
"439 0 LINE",
"826 0 LINE",
"660 690 LINE",
"161 690 LINE",
"-5 0 LINE"
);
},
{
closed = 1;
nodes = (
"392 383 LINE",
"429 383 LINE",
"429 240 LINE",
"392 240 LINE"
);
}
);
};
layerId = "3B426CF6-0C00-48CC-B0F4-6E2C4CD07FAD";
paths = (
{
closed = 1;
nodes = (
"398 0 LINE",
"400 66 LINE",
"455 66 LINE",
"457 0 LINE",
"845 0 LINE",
"845 24 LINE",
"719 690 LINE",
"136 690 LINE",
"10 24 LINE",
"10 0 LINE"
);
},
{
closed = 1;
nodes = (
"408 413 LINE",
"447 413 LINE",
"447 250 LINE",
"408 250 LINE"
);
}
);
width = 855;
},
{
anchors = (
{
name = bottom;
position = "{376, 0}";
},
{
name = ogonek;
position = "{663, 0}";
},
{
name = top;
position = "{376, 690}";
}
);
layerId = "685D33D6-AC85-457D-AB31-6AFB1340D947";
paths = (
{
closed = 1;
nodes = (
"351 0 LINE",
"353 66 LINE",
"399 66 LINE",
"401 0 LINE",
"741 0 LINE",
"741 37 LINE",
"617 690 LINE",
"135 690 LINE",
"10 37 LINE",
"10 0 LINE"
);
},
{
closed = 1;
nodes = (
"359 413 LINE",
"392 413 LINE",
"392 250 LINE",
"359 250 LINE"
);
}
);
width = 748;
}
);
leftKerningGroup = A;
rightKerningGroup = A;
unicode = 0041;
},
{
glyphname = Abreveacute;
lastChange = "2023-06-01 23:07:23 +0000";
layers = (
{
layerId = "685D33D6-AC85-457D-AB31-6AFB1340D947";
paths = (
{
closed = 1;
nodes = (
"351 0 LINE",
"353 66 LINE",
"399 66 LINE",
"401 0 LINE",
"741 0 LINE",
"741 37 LINE",
"629 627 LINE",
"588 589 OFFCURVE",
"487 563 OFFCURVE",
"376 563 CURVE SMOOTH",
"265 563 OFFCURVE",
"164 589 OFFCURVE",
"123 627 CURVE",
"10 37 LINE",
"10 0 LINE"
);
},
{
closed = 1;
nodes = (
"359 413 LINE",
"392 413 LINE",
"392 250 LINE",
"359 250 LINE"
);
},
{
closed = 1;
nodes = (
"521 591 OFFCURVE",
"623 630 OFFCURVE",
"631 690 CURVE",
"403 690 LINE",
"402 675 OFFCURVE",
"392 666 OFFCURVE",
"376 666 CURVE SMOOTH",
"361 666 OFFCURVE",
"350 674 OFFCURVE",
"348 690 CURVE",
"121 690 LINE",
"128 630 OFFCURVE",
"230 591 OFFCURVE",
"376 591 CURVE SMOOTH"
);
},
{
closed = 1;
nodes = (
"504 717 LINE",
"668 795 LINE",
"668 813 LINE",
"248 813 LINE",
"248 717 LINE"
);
}
);
width = 748;
},
{
layerId = "3B426CF6-0C00-48CC-B0F4-6E2C4CD07FAD";
paths = (
{
closed = 1;
nodes = (
"398 0 LINE",
"400 66 LINE",
"455 66 LINE",
"457 0 LINE",
"845 0 LINE",
"845 24 LINE",
"732 620 LINE",
"676 583 OFFCURVE",
"554 559 OFFCURVE",
"428 559 CURVE SMOOTH",
"300 559 OFFCURVE",
"178 583 OFFCURVE",
"123 620 CURVE",
"10 24 LINE",
"10 0 LINE"
);
},
{
closed = 1;
nodes = (
"408 413 LINE",
"447 413 LINE",
"447 250 LINE",
"408 250 LINE"
);
},
{
closed = 1;
nodes = (
"601 593 OFFCURVE",
"725 632 OFFCURVE",
"739 690 CURVE",
"464 690 LINE",
"464 677 OFFCURVE",
"450 669 OFFCURVE",
"428 669 CURVE SMOOTH",
"407 669 OFFCURVE",
"393 677 OFFCURVE",
"393 690 CURVE",
"117 690 LINE",
"130 632 OFFCURVE",
"254 593 OFFCURVE",
"428 593 CURVE SMOOTH"
);
},
{
closed = 1;
nodes = (
"556 723 LINE",
"720 797 LINE",
"720 815 LINE",
"300 815 LINE",
"300 723 LINE"
);
}
);
width = 855;
}
);
leftKerningGroup = A;
rightKerningGroup = A;
unicode = 1EAE;
},
{
glyphname = Abrevegrave;
lastChange = "2023-06-01 23:07:23 +0000";
layers = (
{
layerId = "685D33D6-AC85-457D-AB31-6AFB1340D947";
paths = (
{
closed = 1;
nodes = (
"351 0 LINE",
"353 66 LINE",
"399 66 LINE",
"401 0 LINE",
"741 0 LINE",
"741 37 LINE",
"629 629 LINE",
"589 591 OFFCURVE",
"488 565 OFFCURVE",
"376 565 CURVE SMOOTH",
"264 565 OFFCURVE",
"163 591 OFFCURVE",
"123 629 CURVE",
"10 37 LINE",
"10 0 LINE"
);
},
{
closed = 1;
nodes = (
"359 413 LINE",
"392 413 LINE",
"392 250 LINE",
"359 250 LINE"
);
},
{
closed = 1;
nodes = (
"521 593 OFFCURVE",
"623 632 OFFCURVE",
"631 690 CURVE",
"403 690 LINE",
"402 677 OFFCURVE",
"392 668 OFFCURVE",
"376 668 CURVE SMOOTH",
"361 668 OFFCURVE",
"350 676 OFFCURVE",
"348 690 CURVE",
"121 690 LINE",
"128 632 OFFCURVE",
"230 593 OFFCURVE",
"376 593 CURVE SMOOTH"
);
},
{
closed = 1;
nodes = (
"504 719 LINE",
"504 815 LINE",
"84 815 LINE",
"84 797 LINE",
"248 719 LINE"
);
}
);
width = 748;
},
{
layerId = "3B426CF6-0C00-48CC-B0F4-6E2C4CD07FAD";
paths = (
{
closed = 1;
nodes = (
"398 0 LINE",
"400 66 LINE",
"455 66 LINE",
"457 0 LINE",
"845 0 LINE",
"845 24 LINE",
"732 620 LINE",
"676 583 OFFCURVE",
"554 559 OFFCURVE",
"428 559 CURVE SMOOTH",
"300 559 OFFCURVE",
"178 583 OFFCURVE",
"123 620 CURVE",
"10 24 LINE",
"10 0 LINE"
);
},
{
closed = 1;
nodes = (
"408 413 LINE",
"447 413 LINE",
"447 250 LINE",
"408 250 LINE"
);
},
{
closed = 1;
nodes = (
"601 593 OFFCURVE",
"725 632 OFFCURVE",
"739 690 CURVE",
"464 690 LINE",
"464 677 OFFCURVE",
"450 669 OFFCURVE",
"428 669 CURVE SMOOTH",
"407 669 OFFCURVE",
"393 677 OFFCURVE",
"393 690 CURVE",
"117 690 LINE",
"130 632 OFFCURVE",
"254 593 OFFCURVE",
"428 593 CURVE SMOOTH"
);
},
{
closed = 1;
nodes = (
"556 723 LINE",
"556 815 LINE",
"136 815 LINE",
"136 797 LINE",
"300 723 LINE"
);
}
);
width = 855;
}
);
leftKerningGroup = A;
rightKerningGroup = A;
unicode = 1EB0;
},
{
glyphname = Abrevehookabove;
lastChange = "2023-06-01 23:07:23 +0000";
layers = (
{
layerId = "685D33D6-AC85-457D-AB31-6AFB1340D947";
paths = (
{
closed = 1;
nodes = (
"351 0 LINE",
"353 66 LINE",
"399 66 LINE",
"401 0 LINE",
"741 0 LINE",
"741 37 LINE",
"629 629 LINE",
"589 591 OFFCURVE",
"488 565 OFFCURVE",
"376 565 CURVE SMOOTH",
"264 565 OFFCURVE",
"163 591 OFFCURVE",
"123 629 CURVE",
"10 37 LINE",
"10 0 LINE"
);
},
{
closed = 1;
nodes = (
"359 413 LINE",
"392 413 LINE",
"392 250 LINE",
"359 250 LINE"
);
},
{
closed = 1;
nodes = (
"521 593 OFFCURVE",
"623 632 OFFCURVE",
"631 690 CURVE",
"403 690 LINE",
"402 677 OFFCURVE",
"392 668 OFFCURVE",
"376 668 CURVE SMOOTH",
"361 668 OFFCURVE",
"350 676 OFFCURVE",
"348 690 CURVE",
"121 690 LINE",
"128 632 OFFCURVE",
"230 593 OFFCURVE",
"376 593 CURVE SMOOTH"
);
},
{
closed = 1;
nodes = (
"514 713 OFFCURVE",
"615 729 OFFCURVE",
"615 770 CURVE SMOOTH",
"615 811 OFFCURVE",
"528 821 OFFCURVE",
"400 821 CURVE SMOOTH",
"317 821 OFFCURVE",
"227 815 OFFCURVE",
"169 808 CURVE",
"169 760 LINE",
"366 773 LINE",
"366 752 LINE",
"204 741 LINE",
"204 718 LINE",
"245 715 OFFCURVE",
"315 713 OFFCURVE",
"363 713 CURVE SMOOTH"
);
}
);
width = 748;
},
{
layerId = "3B426CF6-0C00-48CC-B0F4-6E2C4CD07FAD";
paths = (
{
closed = 1;
nodes = (
"398 0 LINE",
"400 66 LINE",
"455 66 LINE",
"457 0 LINE",
"845 0 LINE",
"845 24 LINE",
"732 620 LINE",
"676 583 OFFCURVE",
"554 559 OFFCURVE",
"428 559 CURVE SMOOTH",
"300 559 OFFCURVE",
"178 583 OFFCURVE",
"123 620 CURVE",
"10 24 LINE",
"10 0 LINE"
);
},
{
closed = 1;
nodes = (
"408 413 LINE",
"447 413 LINE",
"447 250 LINE",
"408 250 LINE"
);
},
{
closed = 1;
nodes = (
"601 593 OFFCURVE",
"724 632 OFFCURVE",
"739 690 CURVE",
"464 690 LINE",
"464 677 OFFCURVE",
"450 669 OFFCURVE",
"428 669 CURVE SMOOTH",
"407 669 OFFCURVE",
"393 677 OFFCURVE",
"393 690 CURVE",
"117 690 LINE",
"130 632 OFFCURVE",
"254 593 OFFCURVE",
"428 593 CURVE SMOOTH"
);
},
{
closed = 1;
nodes = (
"597 716 OFFCURVE",
"686 737 OFFCURVE",
"686 773 CURVE SMOOTH",
"686 802 OFFCURVE",
"633 821 OFFCURVE",
"466 821 CURVE SMOOTH",
"368 821 OFFCURVE",
"258 816 OFFCURVE",
"191 808 CURVE",
"191 759 LINE",
"409 772 LINE",
"409 751 LINE",
"230 740 LINE",
"230 721 LINE",
"275 718 OFFCURVE",
"354 716 OFFCURVE",
"407 716 CURVE SMOOTH"
);
}
);
width = 855;
}
);
leftKerningGroup = A;
rightKerningGroup = A;
unicode = 1EB2;
},
{
glyphname = Abrevetilde;
lastChange = "2023-06-01 23:07:23 +0000";
layers = (
{
layerId = "685D33D6-AC85-457D-AB31-6AFB1340D947";
paths = (
{
closed = 1;
nodes = (
"351 0 LINE",
"353 66 LINE",
"399 66 LINE",
"401 0 LINE",
"741 0 LINE",
"741 37 LINE",
"629 629 LINE",
"589 591 OFFCURVE",
"488 565 OFFCURVE",
"376 565 CURVE SMOOTH",
"264 565 OFFCURVE",
"163 591 OFFCURVE",
"123 629 CURVE",
"10 37 LINE",
"10 0 LINE"
);
},
{
closed = 1;
nodes = (
"359 413 LINE",
"392 413 LINE",
"392 250 LINE",
"359 250 LINE"
);
},
{
closed = 1;
nodes = (
"521 593 OFFCURVE",
"623 632 OFFCURVE",
"631 690 CURVE",
"403 690 LINE",
"402 677 OFFCURVE",
"392 668 OFFCURVE",
"376 668 CURVE SMOOTH",
"361 668 OFFCURVE",
"350 676 OFFCURVE",
"348 690 CURVE",
"121 690 LINE",
"128 632 OFFCURVE",
"230 593 OFFCURVE",
"376 593 CURVE SMOOTH"
);
},
{
closed = 1;
nodes = (
"540 713 OFFCURVE",
"582 749 OFFCURVE",
"581 814 CURVE",
"448 814 LINE",
"448 799 OFFCURVE",
"438 789 OFFCURVE",
"415 789 CURVE SMOOTH",
"381 789 OFFCURVE",
"348 820 OFFCURVE",
"274 820 CURVE SMOOTH",
"211 820 OFFCURVE",
"171 779 OFFCURVE",
"171 718 CURVE",
"302 718 LINE",
"303 732 OFFCURVE",
"311 742 OFFCURVE",
"335 742 CURVE SMOOTH",
"367 742 OFFCURVE",
"406 713 OFFCURVE",
"475 713 CURVE"
);
}
);
width = 748;
},
{
layerId = "3B426CF6-0C00-48CC-B0F4-6E2C4CD07FAD";
paths = (
{
closed = 1;
nodes = (
"398 0 LINE",
"400 66 LINE",
"455 66 LINE",
"457 0 LINE",
"845 0 LINE",
"845 24 LINE",
"732 620 LINE",
"676 583 OFFCURVE",
"554 559 OFFCURVE",
"428 559 CURVE SMOOTH",
"300 559 OFFCURVE",
"178 583 OFFCURVE",
"123 620 CURVE",
"10 24 LINE",
"10 0 LINE"
);
},
{
closed = 1;
nodes = (
"408 413 LINE",
"447 413 LINE",
"447 250 LINE",
"408 250 LINE"
);
},
{
closed = 1;
nodes = (
"601 593 OFFCURVE",
"725 632 OFFCURVE",
"739 690 CURVE",
"464 690 LINE",
"464 677 OFFCURVE",
"450 669 OFFCURVE",
"428 669 CURVE SMOOTH",
"407 669 OFFCURVE",
"393 677 OFFCURVE",
"393 690 CURVE",
"117 690 LINE",
"130 632 OFFCURVE",
"254 593 OFFCURVE",
"428 593 CURVE SMOOTH"
);
},
{
closed = 1;
nodes = (
"646 713 OFFCURVE",
"692 750 OFFCURVE",
"690 815 CURVE",
"520 815 LINE",
"520 799 OFFCURVE",
"510 790 OFFCURVE",
"491 790 CURVE SMOOTH",
"443 790 OFFCURVE",
"385 821 OFFCURVE",
"291 821 CURVE SMOOTH",
"212 821 OFFCURVE",
"162 784 OFFCURVE",
"167 718 CURVE",
"334 718 LINE",
"335 731 OFFCURVE",
"342 743 OFFCURVE",
"362 743 CURVE SMOOTH",
"407 743 OFFCURVE",
"486 713 OFFCURVE",
"575 713 CURVE"
);
}
);
width = 855;
}
);
leftKerningGroup = A;
rightKerningGroup = A;
unicode = 1EB4;
},
{
glyphname = Acircumflexacute;
lastChange = "2023-06-01 23:07:23 +0000";
layers = (
{
layerId = "685D33D6-AC85-457D-AB31-6AFB1340D947";
paths = (
{
closed = 1;
nodes = (
"351 0 LINE",
"353 66 LINE",
"399 66 LINE",
"401 0 LINE",
"741 0 LINE",
"741 37 LINE",
"640 570 LINE",
"421 570 LINE",
"376 599 LINE",
"331 570 LINE",
"112 570 LINE",
"10 37 LINE",
"10 0 LINE"
);
},
{
closed = 1;
nodes = (
"359 413 LINE",
"392 413 LINE",
"392 250 LINE",
"359 250 LINE"
);
},
{
closed = 1;
nodes = (
"323 598 LINE",
"376 632 LINE",
"429 598 LINE",
"679 598 LINE",
"679 612 LINE",
"575 690 LINE",
"177 690 LINE",
"73 612 LINE",
"73 598 LINE"
);
},
{
closed = 1;
nodes = (
"504 718 LINE",
"668 797 LINE",
"668 815 LINE",
"248 815 LINE",
"248 718 LINE"
);
}
);
width = 748;
},
{
layerId = "3B426CF6-0C00-48CC-B0F4-6E2C4CD07FAD";
paths = (
{
closed = 1;
nodes = (
"398 0 LINE",
"400 66 LINE",
"455 66 LINE",
"457 0 LINE",
"845 0 LINE",
"845 24 LINE",
"743 564 LINE",
"471 564 LINE",
"428 592 LINE",
"385 564 LINE",
"112 564 LINE",
"10 24 LINE",
"10 0 LINE"
);
},
{
closed = 1;
nodes = (
"408 413 LINE",
"447 413 LINE",
"447 250 LINE",
"408 250 LINE"
);
},
{
closed = 1;
nodes = (
"375 598 LINE",
"428 632 LINE",
"481 598 LINE",
"731 598 LINE",
"731 612 LINE",
"637 690 LINE",
"219 690 LINE",
"125 612 LINE",
"125 598 LINE"
);
},
{
closed = 1;
nodes = (
"556 723 LINE",
"720 797 LINE",
"720 815 LINE",
"300 815 LINE",
"300 723 LINE"
);
}
);
width = 855;
}
);
leftKerningGroup = A;
rightKerningGroup = A;
unicode = 1EA4;
},
{
glyphname = Acircumflexgrave;
lastChange = "2023-06-01 23:07:23 +0000";
layers = (
{
layerId = "685D33D6-AC85-457D-AB31-6AFB1340D947";
paths = (
{
closed = 1;
nodes = (
"351 0 LINE",
"353 66 LINE",
"399 66 LINE",
"401 0 LINE",
"741 0 LINE",
"741 37 LINE",
"640 570 LINE",
"421 570 LINE",
"376 599 LINE",
"331 570 LINE",
"112 570 LINE",
"10 37 LINE",
"10 0 LINE"
);
},
{
closed = 1;
nodes = (
"359 413 LINE",
"392 413 LINE",
"392 250 LINE",
"359 250 LINE"
);
},
{
closed = 1;
nodes = (
"323 598 LINE",
"376 632 LINE",
"429 598 LINE",
"679 598 LINE",
"679 612 LINE",
"575 690 LINE",
"177 690 LINE",
"73 612 LINE",
"73 598 LINE"
);
},
{
closed = 1;
nodes = (
"504 718 LINE",
"504 815 LINE",
"84 815 LINE",
"84 797 LINE",
"248 718 LINE"
);
}
);
width = 748;
},
{
layerId = "3B426CF6-0C00-48CC-B0F4-6E2C4CD07FAD";
paths = (
{
closed = 1;
nodes = (
"398 0 LINE",
"400 66 LINE",
"455 66 LINE",
"457 0 LINE",
"845 0 LINE",
"845 24 LINE",
"743 564 LINE",
"471 564 LINE",
"428 592 LINE",
"385 564 LINE",
"112 564 LINE",
"10 24 LINE",
"10 0 LINE"
);
},
{
closed = 1;
nodes = (
"408 413 LINE",
"447 413 LINE",
"447 250 LINE",
"408 250 LINE"
);
},
{
closed = 1;
nodes = (
"375 598 LINE",
"428 632 LINE",
"481 598 LINE",
"731 598 LINE",
"731 612 LINE",
"637 690 LINE",
"219 690 LINE",
"125 612 LINE",
"125 598 LINE"
);
},
{
closed = 1;
nodes = (
"556 723 LINE",
"556 815 LINE",
"136 815 LINE",
"136 797 LINE",
"300 723 LINE"
);
}
);
width = 855;
}
);
leftKerningGroup = A;
rightKerningGroup = A;
unicode = 1EA6;
},
{
glyphname = Acircumflexhookabove;
lastChange = "2023-06-01 23:07:23 +0000";
layers = (
{
layerId = "685D33D6-AC85-457D-AB31-6AFB1340D947";
paths = (
{
closed = 1;
nodes = (
"351 0 LINE",
"353 66 LINE",
"399 66 LINE",
"401 0 LINE",
"741 0 LINE",
"741 37 LINE",
"640 570 LINE",
"421 570 LINE",
"376 599 LINE",
"331 570 LINE",
"112 570 LINE",
"10 37 LINE",
"10 0 LINE"
);
},
{
closed = 1;
nodes = (
"359 413 LINE",
"392 413 LINE",
"392 250 LINE",
"359 250 LINE"
);
},
{
closed = 1;
nodes = (
"323 598 LINE",
"376 632 LINE",
"429 598 LINE",
"679 598 LINE",
"679 612 LINE",
"575 690 LINE",
"177 690 LINE",
"73 612 LINE",
"73 598 LINE"
);
},
{
closed = 1;
nodes = (
"514 713 OFFCURVE",
"615 729 OFFCURVE",
"615 770 CURVE SMOOTH",
"615 811 OFFCURVE",
"528 821 OFFCURVE",
"400 821 CURVE SMOOTH",
"317 821 OFFCURVE",
"227 815 OFFCURVE",
"169 808 CURVE",
"169 760 LINE",
"366 773 LINE",
"366 752 LINE",
"204 741 LINE",
"204 718 LINE",
"245 715 OFFCURVE",
"315 713 OFFCURVE",
"363 713 CURVE SMOOTH"
);
}
);
width = 748;
},
{
layerId = "3B426CF6-0C00-48CC-B0F4-6E2C4CD07FAD";
paths = (
{
closed = 1;
nodes = (
"398 0 LINE",
"400 66 LINE",
"455 66 LINE",
"457 0 LINE",
"845 0 LINE",
"845 24 LINE",
"743 564 LINE",
"471 564 LINE",
"428 592 LINE",
"385 564 LINE",
"112 564 LINE",
"10 24 LINE",
"10 0 LINE"
);
},
{
closed = 1;
nodes = (
"408 413 LINE",
"447 413 LINE",
"447 250 LINE",
"408 250 LINE"
);
},
{
closed = 1;
nodes = (
"375 598 LINE",
"428 632 LINE",
"481 598 LINE",
"731 598 LINE",
"731 612 LINE",
"637 690 LINE",
"219 690 LINE",
"125 612 LINE",
"125 598 LINE"
);
},
{
closed = 1;
nodes = (
"597 716 OFFCURVE",
"686 737 OFFCURVE",
"686 773 CURVE SMOOTH",
"686 802 OFFCURVE",
"633 821 OFFCURVE",
"466 821 CURVE SMOOTH",
"368 821 OFFCURVE",
"258 816 OFFCURVE",
"191 808 CURVE",
"191 759 LINE",
"409 772 LINE",
"409 751 LINE",
"230 740 LINE",
"230 721 LINE",
"275 718 OFFCURVE",
"354 716 OFFCURVE",
"407 716 CURVE SMOOTH"
);
}
);
width = 855;
}
);
leftKerningGroup = A;
rightKerningGroup = A;
unicode = 1EA8;
},
{
glyphname = Acircumflextilde;
lastChange = "2023-06-01 23:07:23 +0000";
layers = (
{
layerId = "685D33D6-AC85-457D-AB31-6AFB1340D947";
paths = (
{
closed = 1;
nodes = (
"351 0 LINE",
"353 66 LINE",
"399 66 LINE",
"401 0 LINE",
"741 0 LINE",
"741 37 LINE",
"640 570 LINE",
"421 570 LINE",
"376 599 LINE",
"331 570 LINE",
"112 570 LINE",
"10 37 LINE",
"10 0 LINE"
);
},
{
closed = 1;
nodes = (
"359 413 LINE",
"392 413 LINE",
"392 250 LINE",
"359 250 LINE"
);
},
{
closed = 1;
nodes = (
"323 598 LINE",
"376 632 LINE",
"429 598 LINE",
"679 598 LINE",
"679 612 LINE",
"575 690 LINE",
"177 690 LINE",
"73 612 LINE",
"73 598 LINE"
);
},
{
closed = 1;
nodes = (
"536 713 OFFCURVE",
"581 743 OFFCURVE",
"581 831 CURVE",
"448 831 LINE",
"448 813 OFFCURVE",
"438 802 OFFCURVE",
"415 802 CURVE SMOOTH",
"381 802 OFFCURVE",
"358 838 OFFCURVE",
"271 838 CURVE SMOOTH",
"219 838 OFFCURVE",
"171 808 OFFCURVE",
"171 719 CURVE",
"302 719 LINE",
"303 735 OFFCURVE",
"311 747 OFFCURVE",
"335 747 CURVE SMOOTH",
"367 747 OFFCURVE",
"406 713 OFFCURVE",
"475 713 CURVE"
);
}
);
width = 748;
},
{
layerId = "3B426CF6-0C00-48CC-B0F4-6E2C4CD07FAD";
paths = (
{
closed = 1;
nodes = (
"398 0 LINE",
"400 66 LINE",
"455 66 LINE",
"457 0 LINE",
"845 0 LINE",
"845 24 LINE",
"743 564 LINE",
"471 564 LINE",
"428 592 LINE",
"385 564 LINE",
"112 564 LINE",
"10 24 LINE",
"10 0 LINE"
);
},
{
closed = 1;
nodes = (
"408 413 LINE",
"447 413 LINE",
"447 250 LINE",
"408 250 LINE"
);
},
{
closed = 1;
nodes = (
"375 598 LINE",
"428 632 LINE",
"481 598 LINE",
"731 598 LINE",
"731 612 LINE",
"637 690 LINE",
"219 690 LINE",
"125 612 LINE",
"125 598 LINE"
);
},
{
closed = 1;
nodes = (
"671 713 OFFCURVE",
"692 761 OFFCURVE",
"690 834 CURVE",
"520 834 LINE",
"520 815 OFFCURVE",
"510 804 OFFCURVE",
"491 804 CURVE SMOOTH",
"443 804 OFFCURVE",
"385 841 OFFCURVE",
"311 841 CURVE SMOOTH",
"184 841 OFFCURVE",
"162 792 OFFCURVE",
"167 719 CURVE",
"334 719 LINE",
"335 735 OFFCURVE",
"342 749 OFFCURVE",
"362 749 CURVE SMOOTH",
"407 749 OFFCURVE",
"486 713 OFFCURVE",
"555 713 CURVE"
);
}
);
width = 855;
}
);
leftKerningGroup = A;
rightKerningGroup = A;
unicode = 1EAA;
},
{
glyphname = Aring;
lastChange = "2023-06-01 23:07:23 +0000";
layers = (
{
anchors = (
{
name = bottom;
position = "{428, 0}";
},
{
name = ogonek;
position = "{728, 0}";
},
{
name = top;
position = "{428, 690}";
}
);
layerId = "3B426CF6-0C00-48CC-B0F4-6E2C4CD07FAD";
paths = (
{
closed = 1;
nodes = (
"398 0 LINE",
"400 66 LINE",
"455 66 LINE",
"457 0 LINE",
"845 0 LINE",
"845 24 LINE",
"719 690 LINE",
"700 690 LINE",
"666 635 OFFCURVE",
"561 595 OFFCURVE",
"428 595 CURVE SMOOTH",
"295 595 OFFCURVE",
"191 635 OFFCURVE",
"157 690 CURVE",
"136 690 LINE",
"10 24 LINE",
"10 0 LINE"
);
},
{
closed = 1;
nodes = (
"408 413 LINE",
"447 413 LINE",
"447 250 LINE",
"408 250 LINE"
);
},
{
closed = 1;
nodes = (
"570 630 OFFCURVE",
"664 670 OFFCURVE",
"664 729 CURVE SMOOTH",
"664 792 OFFCURVE",
"568 828 OFFCURVE",
"428 828 CURVE SMOOTH",
"279 828 OFFCURVE",
"193 788 OFFCURVE",
"193 729 CURVE SMOOTH",
"193 670 OFFCURVE",
"287 630 OFFCURVE",
"428 630 CURVE SMOOTH"
);
},
{
closed = 1;
nodes = (
"405 704 OFFCURVE",
"387 713 OFFCURVE",
"387 729 CURVE SMOOTH",
"387 744 OFFCURVE",
"404 754 OFFCURVE",
"428 754 CURVE SMOOTH",
"452 754 OFFCURVE",
"470 745 OFFCURVE",
"470 729 CURVE SMOOTH",
"470 714 OFFCURVE",
"453 704 OFFCURVE",
"428 704 CURVE SMOOTH"
);
}
);
width = 855;
},
{
anchors = (
{
name = bottom;
position = "{376, 0}";
},
{
name = ogonek;
position = "{663, 0}";
},
{
name = top;
position = "{376, 690}";
}
);
layerId = "685D33D6-AC85-457D-AB31-6AFB1340D947";
paths = (
{
closed = 1;
nodes = (
"351 0 LINE",
"353 66 LINE",
"399 66 LINE",
"401 0 LINE",
"741 0 LINE",
"741 37 LINE",
"617 690 LINE",
"585 690 LINE",
"559 636 OFFCURVE",
"481 601 OFFCURVE",
"376 601 CURVE SMOOTH",
"278 601 OFFCURVE",
"196 633 OFFCURVE",
"168 690 CURVE",
"135 690 LINE",
"10 37 LINE",
"10 0 LINE"
);
},
{
closed = 1;
nodes = (
"359 413 LINE",
"392 413 LINE",
"392 250 LINE",
"359 250 LINE"
);
},
{
closed = 1;
nodes = (
"491 630 OFFCURVE",
"556 669 OFFCURVE",
"556 729 CURVE SMOOTH",
"556 792 OFFCURVE",
"483 828 OFFCURVE",
"376 828 CURVE SMOOTH",
"262 828 OFFCURVE",
"197 788 OFFCURVE",
"197 729 CURVE SMOOTH",
"197 666 OFFCURVE",
"269 630 OFFCURVE",
"376 630 CURVE SMOOTH"
);
},
{
closed = 1;
nodes = (
"358 704 OFFCURVE",
"345 713 OFFCURVE",
"345 729 CURVE SMOOTH",
"345 744 OFFCURVE",
"357 754 OFFCURVE",
"376 754 CURVE SMOOTH",
"395 754 OFFCURVE",
"408 745 OFFCURVE",
"408 729 CURVE SMOOTH",
"408 714 OFFCURVE",
"396 704 OFFCURVE",
"376 704 CURVE SMOOTH"
);
}
);
width = 748;
}
);
leftKerningGroup = A;
rightKerningGroup = A;
unicode = 00C5;
},
{
glyphname = AE;
lastChange = "2023-05-31 19:38:00 +0000";
layers = (
{
anchors = (
{
name = top;
position = "{629, 690}";
}
);
layerId = "3B426CF6-0C00-48CC-B0F4-6E2C4CD07FAD";
paths = (
{
closed = 1;
nodes = (
"386 0 LINE",
"389 56 LINE",
"432 56 LINE",
"432 0 LINE",
"1087 0 LINE",
"1087 253 LINE",
"786 253 LINE",
"786 290 LINE",
"1076 290 LINE",
"1076 400 LINE",
"786 400 LINE",
"786 437 LINE",
"1087 437 LINE",
"1087 690 LINE",
"171 690 LINE",
"10 0 LINE"
);
},
{
closed = 1;
nodes = (
"396 383 LINE",
"432 383 LINE",
"432 240 LINE",
"396 240 LINE"
);
}
);
width = 1107;
},
{
anchors = (
{
name = top;
position = "{565, 690}";
}
);
layerId = "685D33D6-AC85-457D-AB31-6AFB1340D947";
paths = (
{
closed = 1;
nodes = (
"347 0 LINE",
"349 56 LINE",
"388 56 LINE",
"388 0 LINE",
"975 0 LINE",
"975 253 LINE",
"705 253 LINE",
"705 290 LINE",
"965 290 LINE",
"965 400 LINE",
"705 400 LINE",
"705 437 LINE",
"975 437 LINE",
"975 690 LINE",
"155 690 LINE",
"10 0 LINE"
);
},
{
closed = 1;
nodes = (
"356 383 LINE",
"388 383 LINE",
"388 240 LINE",
"356 240 LINE"
);
}
);
width = 995;
}
);
leftKerningGroup = A;
leftMetricsKey = A;
rightKerningGroup = E;
rightMetricsKey = E;
unicode = 00C6;
},
{
glyphname = B;
lastChange = "2023-05-23 19:28:12 +0000";
layers = (
{
anchors = (
{
name = bottom;
position = "{440, 0}";
},
{
name = top;
position = "{440, 690}";
}
);
background = {
paths = (
{
closed = 1;
nodes = (
"579 0 LINE SMOOTH",
"758 0 OFFCURVE",
"853 60 OFFCURVE",
"853 179 CURVE SMOOTH",
"853 274 OFFCURVE",
"785 333 OFFCURVE",
"662 337 CURVE",
"662 358 LINE",
"773 372 OFFCURVE",
"832 430 OFFCURVE",
"832 523 CURVE SMOOTH",
"832 623 OFFCURVE",
"745 690 OFFCURVE",
"552 690 CURVE SMOOTH",
"39 690 LINE",
"39 0 LINE"
);
},
{
closed = 1;
nodes = (
"413 328 LINE",
"438 328 OFFCURVE",
"467 313 OFFCURVE",
"467 274 CURVE SMOOTH",
"467 235 OFFCURVE",
"441 215 OFFCURVE",
"413 215 CURVE"
);
},
{
closed = 1;
nodes = (
"413 475 LINE",
"441 475 OFFCURVE",
"467 455 OFFCURVE",
"467 418 CURVE SMOOTH",
"467 381 OFFCURVE",
"441 362 OFFCURVE",
"413 362 CURVE"
);
}
);
};
layerId = "3B426CF6-0C00-48CC-B0F4-6E2C4CD07FAD";
paths = (
{
closed = 1;
nodes = (
"539 0 LINE SMOOTH",
"754 0 OFFCURVE",
"843 60 OFFCURVE",
"843 179 CURVE SMOOTH",
"843 274 OFFCURVE",
"771 333 OFFCURVE",
"642 337 CURVE",
"642 358 LINE",
"760 372 OFFCURVE",
"822 430 OFFCURVE",
"822 513 CURVE SMOOTH",
"822 623 OFFCURVE",
"741 690 OFFCURVE",
"542 690 CURVE SMOOTH",
"20 690 LINE",
"20 0 LINE"
);
},
{
closed = 1;
nodes = (
"394 316 LINE",
"405 316 LINE SMOOTH",
"434 316 OFFCURVE",
"453 298 OFFCURVE",
"453 265 CURVE SMOOTH",
"453 235 OFFCURVE",
"436 215 OFFCURVE",
"405 215 CURVE SMOOTH",
"394 215 LINE"
);
},
{
closed = 1;
nodes = (
"394 474 LINE",
"405 474 LINE SMOOTH",
"434 474 OFFCURVE",
"453 456 OFFCURVE",
"453 423 CURVE SMOOTH",
"453 393 OFFCURVE",
"436 373 OFFCURVE",
"405 373 CURVE SMOOTH",
"394 373 LINE"
);
}
);
width = 853;
},
{
anchors = (
{
name = bottom;
position = "{361, 0}";
},
{
name = top;
position = "{361, 690}";
}
);
layerId = "685D33D6-AC85-457D-AB31-6AFB1340D947";
paths = (
{
closed = 1;
nodes = (
"454 0 LINE SMOOTH",
"633 0 OFFCURVE",
"719 60 OFFCURVE",
"719 179 CURVE SMOOTH",
"719 274 OFFCURVE",
"657 333 OFFCURVE",
"546 337 CURVE",
"546 358 LINE",
"648 372 OFFCURVE",
"701 429 OFFCURVE",
"701 526 CURVE SMOOTH",
"701 623 OFFCURVE",
"622 690 OFFCURVE",
"423 690 CURVE SMOOTH",
"20 690 LINE",
"20 0 LINE"
);
},
{
closed = 1;
nodes = (
"330 316 LINE",
"341 316 LINE SMOOTH",
"370 316 OFFCURVE",
"389 298 OFFCURVE",
"389 265 CURVE SMOOTH",
"389 235 OFFCURVE",
"372 215 OFFCURVE",
"341 215 CURVE SMOOTH",
"330 215 LINE"
);
},
{
closed = 1;
nodes = (
"330 468 LINE",
"341 468 LINE SMOOTH",
"370 468 OFFCURVE",
"389 450 OFFCURVE",
"389 417 CURVE SMOOTH",
"389 387 OFFCURVE",
"372 367 OFFCURVE",
"341 367 CURVE SMOOTH",
"330 367 LINE"
);
}
);
width = 729;
}
);
leftKerningGroup = L;
leftMetricsKey = H;
rightKerningGroup = B;
unicode = 0042;
},
{
glyphname = C;
lastChange = "2023-06-01 22:49:48 +0000";
layers = (
{
anchors = (
{
name = bottom;
position = "{444, 0}";
},
{
name = top;
position = "{484, 690}";
}
);
background = {
paths = (
{
closed = 1;
nodes = (
"574 -10 OFFCURVE",
"687 11 OFFCURVE",
"752 50 CURVE",
"752 333 LINE",
"708 302 OFFCURVE",
"634 274 OFFCURVE",
"539 274 CURVE SMOOTH",
"453 274 OFFCURVE",
"405 300 OFFCURVE",
"405 345 CURVE SMOOTH",
"405 394 OFFCURVE",
"462 421 OFFCURVE",
"562 421 CURVE SMOOTH",
"621 421 OFFCURVE",
"690 407 OFFCURVE",
"741 378 CURVE",
"742 648 LINE",
"679 680 OFFCURVE",
"573 702 OFFCURVE",
"466 702 CURVE SMOOTH",
"193 702 OFFCURVE",
"10 560 OFFCURVE",
"10 341 CURVE SMOOTH",
"10 130 OFFCURVE",
"179 -10 OFFCURVE",
"464 -10 CURVE SMOOTH"
);
}
);
};
layerId = "3B426CF6-0C00-48CC-B0F4-6E2C4CD07FAD";
paths = (
{
closed = 1;
nodes = (
"574 -10 OFFCURVE",
"687 11 OFFCURVE",
"752 50 CURVE",
"752 320 LINE",
"741 326 LINE",
"696 298 OFFCURVE",
"626 274 OFFCURVE",
"539 274 CURVE SMOOTH",
"453 274 OFFCURVE",
"405 300 OFFCURVE",
"405 345 CURVE SMOOTH",
"405 394 OFFCURVE",
"462 421 OFFCURVE",
"562 421 CURVE SMOOTH",
"617 421 OFFCURVE",
"680 409 OFFCURVE",
"730 384 CURVE",
"741 390 LINE",
"742 648 LINE",
"679 680 OFFCURVE",
"573 702 OFFCURVE",
"466 702 CURVE SMOOTH",
"193 702 OFFCURVE",
"10 560 OFFCURVE",
"10 341 CURVE SMOOTH",
"10 130 OFFCURVE",
"179 -10 OFFCURVE",
"464 -10 CURVE SMOOTH"
);
}
);
width = 772;
},
{
anchors = (
{
name = bottom;
position = "{388, 0}";
},
{
name = top;
position = "{413, 690}";
}
);
layerId = "685D33D6-AC85-457D-AB31-6AFB1340D947";
paths = (
{
closed = 1;
nodes = (
"489 -10 OFFCURVE",
"585 11 OFFCURVE",
"640 50 CURVE",
"640 316 LINE",
"626 322 LINE",
"587 296 OFFCURVE",
"531 274 OFFCURVE",
"459 274 CURVE SMOOTH",
"393 274 OFFCURVE",
"345 301 OFFCURVE",
"345 345 CURVE SMOOTH",
"345 392 OFFCURVE",
"391 421 OFFCURVE",
"472 421 CURVE SMOOTH",
"521 421 OFFCURVE",
"574 408 OFFCURVE",
"616 383 CURVE",
"634 391 LINE",
"631 648 LINE",
"578 680 OFFCURVE",
"488 702 OFFCURVE",
"397 702 CURVE SMOOTH",
"164 702 OFFCURVE",
"10 560 OFFCURVE",
"10 341 CURVE SMOOTH",
"10 130 OFFCURVE",
"153 -10 OFFCURVE",
"395 -10 CURVE SMOOTH"
);
}
);
width = 660;
}
);
leftKerningGroup = C;
rightKerningGroup = C;
unicode = 0043;
},
{
glyphname = D;
lastChange = "2023-05-23 19:28:12 +0000";
layers = (
{
anchors = (
{
name = bottom;
position = "{431, 0}";
},
{
name = center;
position = "{219, 345}";
},
{
name = top;
position = "{431, 690}";
}
);
background = {
paths = (
{
closed = 1;
nodes = (
"404 0 LINE SMOOTH",
"668 0 OFFCURVE",
"844 124 OFFCURVE",
"844 345 CURVE SMOOTH",
"844 552 OFFCURVE",
"686 690 OFFCURVE",
"406 690 CURVE SMOOTH",
"20 690 LINE",
"20 0 LINE"
);
},
{
closed = 1;
nodes = (
"394 420 LINE",
"401 420 LINE SMOOTH",
"436 420 OFFCURVE",
"453 395 OFFCURVE",
"453 345 CURVE SMOOTH",
"453 300 OFFCURVE",
"439 270 OFFCURVE",
"401 270 CURVE SMOOTH",
"394 270 LINE"
);
}
);
};
layerId = "3B426CF6-0C00-48CC-B0F4-6E2C4CD07FAD";
paths = (
{
closed = 1;
nodes = (
"429 0 LINE SMOOTH",
"681 0 OFFCURVE",
"849 124 OFFCURVE",
"849 345 CURVE SMOOTH",
"849 552 OFFCURVE",
"698 690 OFFCURVE",
"431 690 CURVE SMOOTH",
"20 690 LINE",
"20 0 LINE"
);
},
{
closed = 1;
nodes = (
"394 440 LINE",
"404 440 LINE SMOOTH",
"442 440 OFFCURVE",
"460 408 OFFCURVE",
"460 345 CURVE SMOOTH",
"460 288 OFFCURVE",
"444 250 OFFCURVE",
"404 250 CURVE SMOOTH",
"394 250 LINE"
);
}
);
width = 869;
},
{
anchors = (
{
name = bottom;
position = "{364, 0}";
},
{
name = center;
position = "{180, 345}";
},
{
name = top;
position = "{364, 690}";
}
);
layerId = "685D33D6-AC85-457D-AB31-6AFB1340D947";
paths = (
{
closed = 1;
nodes = (
"349 0 LINE SMOOTH",
"580 0 OFFCURVE",
"733 124 OFFCURVE",
"733 345 CURVE SMOOTH",
"733 552 OFFCURVE",
"596 690 OFFCURVE",
"350 690 CURVE SMOOTH",
"20 690 LINE",
"20 0 LINE"
);
},
{
closed = 1;
nodes = (
"332 440 LINE",
"338 440 LINE SMOOTH",
"376 440 OFFCURVE",
"395 411 OFFCURVE",
"395 345 CURVE SMOOTH",
"395 288 OFFCURVE",
"380 250 OFFCURVE",
"338 250 CURVE SMOOTH",
"332 250 LINE"
);
}
);
width = 740;
}
);
leftKerningGroup = L;
rightKerningGroup = D;
unicode = 0044;
},
{
glyphname = Eth;
lastChange = "2023-05-23 19:28:12 +0000";
layers = (
{
anchors = (
{
name = bottom;
position = "{431, 0}";
},
{
name = center;
position = "{219, 345}";
},
{
name = top;
position = "{431, 690}";
}
);
components = (
{
name = D;
}
);
layerId = "3B426CF6-0C00-48CC-B0F4-6E2C4CD07FAD";
paths = (
{
closed = 1;
nodes = (
"-3.177 321 LINE",
"441.02 321 LINE",
"441.02 368 LINE",
"-3.177 368 LINE"
);
}
);
width = 869;
},
{
anchors = (
{
name = bottom;
position = "{364, 0}";
},
{
name = center;
position = "{180, 345}";
},
{
name = top;
position = "{364, 690}";
}
);
components = (
{
name = D;
}
);
layerId = "685D33D6-AC85-457D-AB31-6AFB1340D947";
paths = (
{
closed = 1;
nodes = (
"-4 321 LINE",
"363 321 LINE",
"363 368 LINE",
"-4 368 LINE"
);
}
);
width = 740;
}
);
leftKerningGroup = L;
rightKerningGroup = D;
unicode = 00D0;
},
{
glyphname = E;
lastChange = "2023-05-23 19:28:12 +0000";
layers = (
{
anchors = (
{
name = bottom;
position = "{366, 0}";
},
{
name = ogonek;
position = "{610, 0}";
},
{
name = top;
position = "{366, 690}";
},
{
name = topleft;
position = "{21, 690}";
}
);
layerId = "3B426CF6-0C00-48CC-B0F4-6E2C4CD07FAD";
paths = (
{
closed = 1;
nodes = (
"711 690 LINE",
"20 690 LINE",
"20 0 LINE",
"711 0 LINE",
"711 253 LINE",
"394 253 LINE",
"394 437 LINE",
"711 437 LINE"
);
},
{
closed = 1;
nodes = (
"357 290 LINE",
"699 290 LINE",
"699 400 LINE",
"357 400 LINE"
);
}
);
width = 731;
},
{
anchors = (
{
name = bottom;
position = "{309, 0}";
},
{
name = ogonek;
position = "{543, 0}";
},
{
name = top;
position = "{309, 690}";
},
{
name = topleft;
position = "{20, 690}";
}
);
layerId = "685D33D6-AC85-457D-AB31-6AFB1340D947";
paths = (
{
closed = 1;
nodes = (
"597 690 LINE",
"20 690 LINE",
"20 0 LINE",
"597 0 LINE",
"597 253 LINE",
"332 253 LINE",
"332 437 LINE",
"597 437 LINE"
);
},
{
closed = 1;
nodes = (
"301 290 LINE",
"588 290 LINE",
"588 400 LINE",
"301 400 LINE"
);
}
);
width = 617;
}
);
leftKerningGroup = L;
unicode = 0045;
},
{
glyphname = Ecircumflexacute;
lastChange = "2023-06-01 23:08:27 +0000";
layers = (
{
layerId = "685D33D6-AC85-457D-AB31-6AFB1340D947";
paths = (
{
closed = 1;
nodes = (
"597 0 LINE",
"597 253 LINE",
"332 253 LINE",
"332 437 LINE",
"597 437 LINE",
"597 570 LINE",
"354 570 LINE",
"309 599 LINE",
"264 570 LINE",
"20 570 LINE",
"20 0 LINE"
);
},
{
closed = 1;
nodes = (
"588 290 LINE",
"588 400 LINE",
"301 400 LINE",
"301 290 LINE"
);
},
{
closed = 1;
nodes = (
"256 598 LINE",
"309 632 LINE",
"362 598 LINE",
"612 598 LINE",
"612 612 LINE",
"508 690 LINE",
"110 690 LINE",
"6 612 LINE",
"6 598 LINE"
);
},
{
closed = 1;
nodes = (
"437 718 LINE",
"601 797 LINE",
"601 815 LINE",
"181 815 LINE",
"181 718 LINE"
);
}
);
width = 617;
},
{
layerId = "3B426CF6-0C00-48CC-B0F4-6E2C4CD07FAD";
paths = (
{
closed = 1;
nodes = (
"711 0 LINE",
"711 253 LINE",
"394 253 LINE",
"394 437 LINE",
"711 437 LINE",
"711 564 LINE",
"409 564 LINE",
"366 592 LINE",
"323 564 LINE",
"20 564 LINE",
"20 0 LINE"
);
},
{
closed = 1;
nodes = (
"699 290 LINE",
"699 400 LINE",
"378 400 LINE",
"378 290 LINE"
);
},
{
closed = 1;
nodes = (
"313 598 LINE",
"366 632 LINE",
"419 598 LINE",
"669 598 LINE",
"669 612 LINE",
"575 690 LINE",
"157 690 LINE",
"63 612 LINE",
"63 598 LINE"
);
},
{
closed = 1;
nodes = (
"494 723 LINE",
"658 797 LINE",
"658 815 LINE",
"238 815 LINE",
"238 723 LINE"
);
}
);
width = 731;
}
);
leftKerningGroup = L;
unicode = 1EBE;
},
{
glyphname = Ecircumflexgrave;
lastChange = "2023-06-01 23:08:27 +0000";
layers = (
{
layerId = "685D33D6-AC85-457D-AB31-6AFB1340D947";
paths = (
{
closed = 1;
nodes = (
"597 0 LINE",
"597 253 LINE",
"332 253 LINE",
"332 437 LINE",
"597 437 LINE",
"597 570 LINE",
"354 570 LINE",
"309 599 LINE",
"264 570 LINE",
"20 570 LINE",
"20 0 LINE"
);
},
{
closed = 1;
nodes = (
"588 290 LINE",
"588 400 LINE",
"301 400 LINE",
"301 290 LINE"
);
},
{
closed = 1;
nodes = (
"256 598 LINE",
"309 632 LINE",
"362 598 LINE",
"612 598 LINE",
"612 612 LINE",
"508 690 LINE",
"110 690 LINE",
"6 612 LINE",
"6 598 LINE"
);
},
{
closed = 1;
nodes = (
"437 718 LINE",
"437 815 LINE",
"17 815 LINE",
"17 797 LINE",
"181 718 LINE"
);
}
);
width = 617;
},
{
layerId = "3B426CF6-0C00-48CC-B0F4-6E2C4CD07FAD";
paths = (
{
closed = 1;
nodes = (
"711 0 LINE",
"711 253 LINE",
"394 253 LINE",
"394 437 LINE",
"711 437 LINE",
"711 564 LINE",
"409 564 LINE",
"366 592 LINE",
"323 564 LINE",
"20 564 LINE",
"20 0 LINE"
);
},
{
closed = 1;
nodes = (
"699 290 LINE",
"699 400 LINE",
"378 400 LINE",
"378 290 LINE"
);
},
{
closed = 1;
nodes = (
"313 598 LINE",
"366 632 LINE",
"419 598 LINE",
"669 598 LINE",
"669 612 LINE",
"575 690 LINE",
"157 690 LINE",
"63 612 LINE",
"63 598 LINE"
);
},
{
closed = 1;
nodes = (
"494 723 LINE",
"494 815 LINE",
"74 815 LINE",
"74 797 LINE",
"238 723 LINE"
);
}
);
width = 731;
}
);
leftKerningGroup = L;
unicode = 1EC0;
},
{
glyphname = Ecircumflexhookabove;
lastChange = "2023-06-01 23:08:27 +0000";
layers = (
{
layerId = "685D33D6-AC85-457D-AB31-6AFB1340D947";
paths = (
{
closed = 1;
nodes = (
"597 0 LINE",
"597 253 LINE",
"332 253 LINE",
"332 437 LINE",
"597 437 LINE",
"597 570 LINE",
"354 570 LINE",
"309 599 LINE",
"264 570 LINE",
"20 570 LINE",
"20 0 LINE"
);
},
{
closed = 1;
nodes = (
"588 290 LINE",
"588 400 LINE",
"301 400 LINE",
"301 290 LINE"
);
},
{
closed = 1;
nodes = (
"256 598 LINE",
"309 632 LINE",
"362 598 LINE",
"612 598 LINE",
"612 612 LINE",
"508 690 LINE",
"110 690 LINE",
"6 612 LINE",
"6 598 LINE"
);
},
{
closed = 1;
nodes = (
"436 713 OFFCURVE",
"537 729 OFFCURVE",
"537 770 CURVE SMOOTH",
"537 811 OFFCURVE",
"450 821 OFFCURVE",
"322 821 CURVE SMOOTH",
"239 821 OFFCURVE",
"149 815 OFFCURVE",
"91 808 CURVE",
"91 760 LINE",
"288 773 LINE",
"288 752 LINE",
"126 741 LINE",
"126 718 LINE",
"167 715 OFFCURVE",
"237 713 OFFCURVE",
"285 713 CURVE SMOOTH"
);
}
);
width = 617;
},
{
layerId = "3B426CF6-0C00-48CC-B0F4-6E2C4CD07FAD";
paths = (
{
closed = 1;
nodes = (
"711 0 LINE",
"711 253 LINE",
"394 253 LINE",
"394 437 LINE",
"711 437 LINE",
"711 564 LINE",
"409 564 LINE",
"366 592 LINE",
"323 564 LINE",
"20 564 LINE",
"20 0 LINE"
);
},
{
closed = 1;
nodes = (
"699 290 LINE",
"699 400 LINE",
"378 400 LINE",
"378 290 LINE"
);
},
{
closed = 1;
nodes = (
"313 598 LINE",
"366 632 LINE",
"419 598 LINE",
"669 598 LINE",
"669 612 LINE",
"575 690 LINE",
"157 690 LINE",
"63 612 LINE",
"63 598 LINE"
);
},
{
closed = 1;
nodes = (
"547 716 OFFCURVE",
"636 737 OFFCURVE",
"636 773 CURVE SMOOTH",
"636 802 OFFCURVE",
"583 821 OFFCURVE",
"416 821 CURVE SMOOTH",
"318 821 OFFCURVE",
"208 816 OFFCURVE",
"141 808 CURVE",
"141 759 LINE",
"359 772 LINE",
"359 751 LINE",
"180 740 LINE",
"180 721 LINE",
"225 718 OFFCURVE",
"304 716 OFFCURVE",
"357 716 CURVE SMOOTH"
);
}
);
width = 731;
}
);
leftKerningGroup = L;
unicode = 1EC2;
},
{
glyphname = Ecircumflextilde;
lastChange = "2023-06-01 23:08:27 +0000";
layers = (
{
layerId = "685D33D6-AC85-457D-AB31-6AFB1340D947";
paths = (
{
closed = 1;
nodes = (
"597 0 LINE",
"597 253 LINE",
"332 253 LINE",
"332 437 LINE",
"597 437 LINE",
"597 570 LINE",
"354 570 LINE",
"309 599 LINE",
"264 570 LINE",
"20 570 LINE",
"20 0 LINE"
);
},
{
closed = 1;
nodes = (
"588 290 LINE",
"588 400 LINE",
"301 400 LINE",
"301 290 LINE"
);
},
{
closed = 1;
nodes = (
"256 598 LINE",
"309 632 LINE",
"362 598 LINE",
"612 598 LINE",
"612 612 LINE",
"508 690 LINE",
"110 690 LINE",
"6 612 LINE",
"6 598 LINE"
);
},
{
closed = 1;
nodes = (
"476 713 OFFCURVE",
"521 743 OFFCURVE",
"521 831 CURVE",
"388 831 LINE",
"388 813 OFFCURVE",
"378 802 OFFCURVE",
"355 802 CURVE SMOOTH",
"321 802 OFFCURVE",
"298 838 OFFCURVE",
"211 838 CURVE SMOOTH",
"159 838 OFFCURVE",
"111 808 OFFCURVE",
"111 719 CURVE",
"242 719 LINE",
"243 735 OFFCURVE",
"251 747 OFFCURVE",
"275 747 CURVE SMOOTH",
"307 747 OFFCURVE",
"346 713 OFFCURVE",
"415 713 CURVE"
);
}
);
width = 617;
},
{
layerId = "3B426CF6-0C00-48CC-B0F4-6E2C4CD07FAD";
paths = (
{
closed = 1;
nodes = (
"711 0 LINE",
"711 253 LINE",
"394 253 LINE",
"394 437 LINE",
"711 437 LINE",
"711 564 LINE",
"409 564 LINE",
"366 592 LINE",
"323 564 LINE",
"20 564 LINE",
"20 0 LINE"
);
},
{
closed = 1;
nodes = (
"699 290 LINE",
"699 400 LINE",
"378 400 LINE",
"378 290 LINE"
);
},
{
closed = 1;
nodes = (
"313 598 LINE",
"366 632 LINE",
"419 598 LINE",
"669 598 LINE",
"669 612 LINE",
"575 690 LINE",
"157 690 LINE",
"63 612 LINE",
"63 598 LINE"
);
},
{
closed = 1;
nodes = (
"611 713 OFFCURVE",
"632 761 OFFCURVE",
"630 834 CURVE",
"460 834 LINE",
"460 815 OFFCURVE",
"450 804 OFFCURVE",
"431 804 CURVE SMOOTH",
"383 804 OFFCURVE",
"325 841 OFFCURVE",
"251 841 CURVE SMOOTH",
"124 841 OFFCURVE",
"102 792 OFFCURVE",
"107 719 CURVE",
"274 719 LINE",
"275 735 OFFCURVE",
"282 749 OFFCURVE",
"302 749 CURVE SMOOTH",
"347 749 OFFCURVE",
"426 713 OFFCURVE",
"495 713 CURVE"
);
}
);
width = 731;
}
);
leftKerningGroup = L;
unicode = 1EC4;
},
{
glyphname = Schwa;
lastChange = "2023-06-01 22:51:38 +0000";
layers = (
{
background = {
paths = (
{
closed = 1;
nodes = (
"588 -10 OFFCURVE",
"729 118 OFFCURVE",
"729 346 CURVE SMOOTH",
"729 560 OFFCURVE",
"602 702 OFFCURVE",
"358 702 CURVE SMOOTH",
"128 702 OFFCURVE",
"-13 574 OFFCURVE",
"-13 346 CURVE SMOOTH",
"-13 132 OFFCURVE",
"114 -10 OFFCURVE",
"358 -10 CURVE SMOOTH"
);
},
{
closed = 1;
nodes = (
"339 252 OFFCURVE",
"325 271 OFFCURVE",
"325 346 CURVE SMOOTH",
"325 402 OFFCURVE",
"332 440 OFFCURVE",
"358 440 CURVE SMOOTH",
"377 440 OFFCURVE",
"391 421 OFFCURVE",
"391 346 CURVE SMOOTH",
"391 290 OFFCURVE",
"384 252 OFFCURVE",
"358 252 CURVE SMOOTH"
);
}
);
};
layerId = "685D33D6-AC85-457D-AB31-6AFB1340D947";
paths = (
{
closed = 1;
nodes = (
"580 -10 OFFCURVE",
"728 120 OFFCURVE",
"728 352 CURVE SMOOTH",
"728 562 OFFCURVE",
"602 702 OFFCURVE",
"324 702 CURVE SMOOTH",
"223 702 OFFCURVE",
"120 683 OFFCURVE",
"21 638 CURVE",
"18 391 LINE",
"36 383 LINE",
"96 406 OFFCURVE",
"179 421 OFFCURVE",
"256 421 CURVE SMOOTH",
"358 421 OFFCURVE",
"398 399 OFFCURVE",
"396 358 CURVE",
"13 358 LINE",
"12 341 OFFCURVE",
"10 314 OFFCURVE",
"10 290 CURVE SMOOTH",
"10 110 OFFCURVE",
"132 -10 OFFCURVE",
"358 -10 CURVE SMOOTH"
);
},
{
closed = 1;
nodes = (
"326 223 OFFCURVE",
"303 237 OFFCURVE",
"300 268 CURVE",
"404 268 LINE",
"403 242 OFFCURVE",
"384 223 OFFCURVE",
"352 223 CURVE SMOOTH"
);
}
);
width = 738;
},
{
background = {
paths = (
{
closed = 1;
nodes = (
"637 -10 OFFCURVE",
"800 118 OFFCURVE",
"800 346 CURVE SMOOTH",
"800 560 OFFCURVE",
"653 702 OFFCURVE",
"373 702 CURVE SMOOTH",
"109 702 OFFCURVE",
"-54 574 OFFCURVE",
"-54 346 CURVE SMOOTH",
"-54 132 OFFCURVE",
"93 -10 OFFCURVE",
"373 -10 CURVE SMOOTH"
);
},
{
closed = 1;
nodes = (
"350 252 OFFCURVE",
"335 271 OFFCURVE",
"335 346 CURVE SMOOTH",
"335 402 OFFCURVE",
"343 440 OFFCURVE",
"373 440 CURVE SMOOTH",
"396 440 OFFCURVE",
"411 421 OFFCURVE",
"411 346 CURVE SMOOTH",
"411 290 OFFCURVE",
"403 252 OFFCURVE",
"373 252 CURVE SMOOTH"
);
}
);
};
layerId = "3B426CF6-0C00-48CC-B0F4-6E2C4CD07FAD";
paths = (
{
closed = 1;
nodes = (
"622 -10 OFFCURVE",
"801 119 OFFCURVE",
"801 352 CURVE SMOOTH",
"801 561 OFFCURVE",
"657 702 OFFCURVE",
"364 702 CURVE SMOOTH",
"245 702 OFFCURVE",
"112 679 OFFCURVE",
"16 640 CURVE",
"17 390 LINE",
"29 384 LINE",
"95 406 OFFCURVE",
"190 421 OFFCURVE",
"276 421 CURVE SMOOTH",
"380 421 OFFCURVE",
"437 399 OFFCURVE",
"435 358 CURVE",
"12 358 LINE",
"11 346 OFFCURVE",
"10 327 OFFCURVE",
"10 310 CURVE SMOOTH",
"10 117 OFFCURVE",
"143 -10 OFFCURVE",
"382 -10 CURVE SMOOTH"
);
},
{
closed = 1;
nodes = (
"362 223 OFFCURVE",
"339 237 OFFCURVE",
"336 268 CURVE",
"440 268 LINE",
"439 242 OFFCURVE",
"420 223 OFFCURVE",
"388 223 CURVE SMOOTH"
);
}
);
width = 811;
}
);
rightMetricsKey = O;
unicode = 018F;
},
{
glyphname = F;
lastChange = "2023-05-23 19:28:12 +0000";
layers = (
{
anchors = (
{
name = bottom;
position = "{361, 0}";
},
{
name = top;
position = "{361, 690}";
}
);
layerId = "3B426CF6-0C00-48CC-B0F4-6E2C4CD07FAD";
paths = (
{
closed = 1;
nodes = (
"701 690 LINE",
"20 690 LINE",
"20 0 LINE",
"394 0 LINE",
"394 437 LINE",
"701 437 LINE"
);
},
{
closed = 1;
nodes = (
"356 195 LINE",
"668 195 LINE",
"668 400 LINE",
"356 400 LINE"
);
}
);
width = 721;
},
{
anchors = (
{
name = bottom;
position = "{304, 0}";
},
{
name = top;
position = "{304, 690}";
}
);
layerId = "685D33D6-AC85-457D-AB31-6AFB1340D947";
paths = (
{
closed = 1;
nodes = (
"587 690 LINE",
"20 690 LINE",
"20 0 LINE",
"332 0 LINE",
"332 437 LINE",
"587 437 LINE"
);
},
{
closed = 1;
nodes = (
"300 195 LINE",
"559 195 LINE",
"559 400 LINE",
"300 400 LINE"
);
}
);
width = 607;
}
);
leftKerningGroup = L;
rightKerningGroup = F;
unicode = 0046;
},
{
glyphname = G;
lastChange = "2023-05-23 19:28:12 +0000";
layers = (
{
anchors = (
{
name = bottom;
position = "{469, 0}";
},
{
name = top;
position = "{493, 690}";
}
);
background = {
paths = (
{
closed = 1;
nodes = (
"620 -10 OFFCURVE",
"776 21 OFFCURVE",
"859 67 CURVE",
"859 373 LINE",
"459 373 LINE",
"448 265 LINE",
"546 265 LINE",
"546 208 LINE",
"536 207 OFFCURVE",
"527 207 OFFCURVE",
"521 207 CURVE SMOOTH",
"440 207 OFFCURVE",
"395 244 OFFCURVE",
"395 310 CURVE SMOOTH",
"395 382 OFFCURVE",
"448 431 OFFCURVE",
"598 431 CURVE SMOOTH",
"683 431 OFFCURVE",
"775 415 OFFCURVE",
"826 395 CURVE",
"826 654 LINE",
"739 686 OFFCURVE",
"604 703 OFFCURVE",
"493 703 CURVE SMOOTH",
"200 703 OFFCURVE",
"10 569 OFFCURVE",
"10 335 CURVE SMOOTH",
"10 128 OFFCURVE",
"157 -10 OFFCURVE",
"469 -10 CURVE SMOOTH"
);
}
);
};
layerId = "3B426CF6-0C00-48CC-B0F4-6E2C4CD07FAD";
paths = (
{
closed = 1;
nodes = (
"620 -10 OFFCURVE",
"776 21 OFFCURVE",
"859 67 CURVE",
"859 373 LINE",
"459 373 LINE",
"448 265 LINE",
"546 265 LINE",
"546 208 LINE",
"536 207 OFFCURVE",
"527 207 OFFCURVE",
"521 207 CURVE SMOOTH",
"440 207 OFFCURVE",
"395 244 OFFCURVE",
"395 310 CURVE SMOOTH",
"395 382 OFFCURVE",
"448 431 OFFCURVE",
"598 431 CURVE SMOOTH",
"675 431 OFFCURVE",
"758 418 OFFCURVE",
"811 400 CURVE",
"826 409 LINE",
"826 654 LINE",
"739 686 OFFCURVE",
"604 703 OFFCURVE",
"493 703 CURVE SMOOTH",
"200 703 OFFCURVE",
"10 569 OFFCURVE",
"10 335 CURVE SMOOTH",
"10 128 OFFCURVE",
"157 -10 OFFCURVE",
"469 -10 CURVE SMOOTH"
);
}
);
width = 879;
},
{
anchors = (
{
name = bottom;
position = "{398, 0}";
},
{
name = top;
position = "{419, 690}";
}
);
layerId = "685D33D6-AC85-457D-AB31-6AFB1340D947";
paths = (
{
closed = 1;
nodes = (
"505 -10 OFFCURVE",
"631 17 OFFCURVE",
"709 70 CURVE",
"709 379 LINE",
"387 379 LINE",
"377 270 LINE",
"495 270 LINE",
"495 221 LINE",
"485 217 OFFCURVE",
"466 215 OFFCURVE",
"449 215 CURVE SMOOTH",
"384 215 OFFCURVE",
"343 255 OFFCURVE",
"343 321 CURVE SMOOTH",
"343 402 OFFCURVE",
"406 446 OFFCURVE",
"513 446 CURVE SMOOTH",
"564 446 OFFCURVE",
"612 436 OFFCURVE",
"651 421 CURVE",
"667 428 LINE",
"670 648 LINE",
"618 676 OFFCURVE",
"527 702 OFFCURVE",
"419 702 CURVE SMOOTH",
"174 702 OFFCURVE",
"10 569 OFFCURVE",
"10 341 CURVE SMOOTH",
"10 127 OFFCURVE",
"155 -10 OFFCURVE",
"398 -10 CURVE SMOOTH"
);
}
);
width = 729;
}
);
leftKerningGroup = C;
rightKerningGroup = G;
unicode = 0047;
},
{
glyphname = H;
lastChange = "2023-05-23 19:28:12 +0000";
layers = (
{
anchors = (
{
name = bottom;
position = "{415, 0}";
},
{
name = center;
position = "{415, 565}";
},
{
name = top;
position = "{415, 690}";
},
{
name = topleft;
position = "{27, 690}";
}
);
layerId = "3B426CF6-0C00-48CC-B0F4-6E2C4CD07FAD";
paths = (
{
closed = 1;
nodes = (
"20 690 LINE",
"20 0 LINE",
"394 0 LINE",
"394 690 LINE"
);
},
{
closed = 1;
nodes = (
"372 252 LINE",
"458 252 LINE",
"458 438 LINE",
"372 438 LINE"
);
},
{
closed = 1;
nodes = (
"436 690 LINE",
"436 0 LINE",
"810 0 LINE",
"810 690 LINE"
);
}
);
width = 830;
},
{
anchors = (
{
name = bottom;
position = "{350, 0}";
},
{
name = center;
position = "{350, 565}";
},
{
name = top;
position = "{350, 690}";
},
{
name = topleft;
position = "{18, 690}";
}
);
layerId = "685D33D6-AC85-457D-AB31-6AFB1340D947";
paths = (
{
closed = 1;
nodes = (
"20 690 LINE",
"20 0 LINE",
"332 0 LINE",
"332 690 LINE"
);
},
{
closed = 1;
nodes = (
"313 252 LINE",
"387 252 LINE",
"387 438 LINE",
"313 438 LINE"
);
},
{
closed = 1;
nodes = (
"369 690 LINE",
"369 0 LINE",
"680 0 LINE",
"680 690 LINE"
);
}
);
width = 700;
}
);
leftKerningGroup = L;
unicode = 0048;
},
{
glyphname = I;
lastChange = "2023-05-23 19:28:12 +0000";
layers = (
{
anchors = (
{
name = bottom;
position = "{207, 0}";
},
{
name = ogonek;
position = "{301, 0}";
},
{
name = top;
position = "{207, 690}";
},
{
name = topleft;
position = "{20, 690}";
}
);
layerId = "3B426CF6-0C00-48CC-B0F4-6E2C4CD07FAD";
paths = (
{
closed = 1;
nodes = (
"394 0 LINE",
"394 690 LINE",
"20 690 LINE",
"20 0 LINE"
);
}
);
width = 414;
},
{
anchors = (
{
name = bottom;
position = "{176, 0}";
},
{
name = ogonek;
position = "{269, 0}";
},
{
name = top;
position = "{176, 690}";
},
{
name = topleft;
position = "{20, 690}";
}
);
layerId = "685D33D6-AC85-457D-AB31-6AFB1340D947";
paths = (
{
closed = 1;
nodes = (
"332 0 LINE",
"332 690 LINE",
"20 690 LINE",
"20 0 LINE"
);
}
);
width = 352;
}
);
leftKerningGroup = L;
unicode = 0049;
},
{
glyphname = J;
lastChange = "2023-05-23 19:28:12 +0000";
layers = (
{
anchors = (
{
name = bottom;
position = "{390, 0}";
},
{
name = top;
position = "{390, 690}";
}
);
layerId = "3B426CF6-0C00-48CC-B0F4-6E2C4CD07FAD";
paths = (
{
closed = 1;
nodes = (
"609 -9 OFFCURVE",
"764 80 OFFCURVE",
"764 272 CURVE SMOOTH",
"764 690 LINE",
"31 690 LINE",
"20 438 LINE",
"390 438 LINE",
"390 297 LINE SMOOTH",
"390 276 OFFCURVE",
"390 262 OFFCURVE",
"370 262 CURVE SMOOTH",
"351 262 OFFCURVE",
"348 275 OFFCURVE",
"348 297 CURVE SMOOTH",
"348 413 LINE",
"20 402 LINE",
"20 272 LINE SMOOTH",
"20 103 OFFCURVE",
"126 -9 OFFCURVE",
"366 -9 CURVE SMOOTH"
);
}
);
width = 779;
},
{
anchors = (
{
name = bottom;
position = "{334, 0}";
},
{
name = top;
position = "{334, 690}";
}
);
layerId = "685D33D6-AC85-457D-AB31-6AFB1340D947";
paths = (
{
closed = 1;
nodes = (
"517 -9 OFFCURVE",
"645 80 OFFCURVE",
"645 272 CURVE SMOOTH",
"645 690 LINE",
"30 690 LINE",
"20 438 LINE",
"334 438 LINE",
"334 297 LINE SMOOTH",
"334 276 OFFCURVE",
"334 262 OFFCURVE",
"316 262 CURVE SMOOTH",
"302 262 OFFCURVE",
"298 271 OFFCURVE",
"298 297 CURVE SMOOTH",
"298 413 LINE",
"20 402 LINE",
"20 272 LINE SMOOTH",
"20 103 OFFCURVE",
"110 -9 OFFCURVE",
"314 -9 CURVE SMOOTH"
);
}
);
width = 667;
}
);
leftKerningGroup = J;
rightKerningGroup = J;
unicode = 004A;
},
{
glyphname = K;
lastChange = "2023-05-23 19:28:12 +0000";
layers = (
{
anchors = (
{
name = bottom;
position = "{430, 0}";
},
{
name = top;
position = "{430, 690}";
}
);
background = {
paths = (
{
closed = 1;
nodes = (
"394 0 LINE",
"394 207 LINE",
"419 207 LINE",
"454 0 LINE",
"860 0 LINE",
"735 450 LINE",
"791 517 OFFCURVE",
"830 595 OFFCURVE",
"845 690 CURVE",
"450 690 LINE",
"419 492 LINE",
"394 492 LINE",
"394 690 LINE",
"20 690 LINE",
"20 0 LINE"
);
}
);
};
layerId = "3B426CF6-0C00-48CC-B0F4-6E2C4CD07FAD";
paths = (
{
closed = 1;
nodes = (
"394 0 LINE",
"394 207 LINE",
"419 207 LINE",
"454 0 LINE",
"851 0 LINE",
"851 32 LINE",
"735 450 LINE",
"851 660 LINE",
"851 690 LINE",
"450 690 LINE",
"419 492 LINE",
"394 492 LINE",
"394 690 LINE",
"20 690 LINE",
"20 0 LINE"
);
}
);
width = 865;
},
{
anchors = (
{
name = bottom;
position = "{363, 0}";
},
{
name = top;
position = "{363, 690}";
}
);
layerId = "685D33D6-AC85-457D-AB31-6AFB1340D947";
paths = (
{
closed = 1;
nodes = (
"332 0 LINE",
"332 207 LINE",
"350 207 LINE",
"380 0 LINE",
"711 0 LINE",
"711 31 LINE",
"611 450 LINE",
"711 658 LINE",
"711 690 LINE",
"376 690 LINE",
"350 492 LINE",
"332 492 LINE",
"332 690 LINE",
"20 690 LINE",
"20 0 LINE"
);
}
);
width = 724;
}
);
leftKerningGroup = L;
rightKerningGroup = K;
unicode = 004B;
},
{
glyphname = L;
lastChange = "2023-05-30 20:57:14 +0000";
layers = (
{
anchors = (
{
name = bottom;
position = "{304, 0}";
},
{
name = center;
position = "{304, 345}";
},
{
name = top;
position = "{204, 690}";
},
{
name = topright;
position = "{296, 690}";
}
);
layerId = "3B426CF6-0C00-48CC-B0F4-6E2C4CD07FAD";
paths = (
{
closed = 1;
nodes = (
"607 0 LINE",
"607 253 LINE",
"394 253 LINE",
"394 690 LINE",
"20 690 LINE",
"20 0 LINE"
);
}
);
width = 617;
},
{
anchors = (
{
name = bottom;
position = "{258, 0}";
},
{
name = center;
position = "{258, 345}";
},
{
name = top;
position = "{177, 690}";
},
{
name = topright;
position = "{250, 690}";
}
);
layerId = "685D33D6-AC85-457D-AB31-6AFB1340D947";
paths = (
{
closed = 1;
nodes = (
"503 0 LINE",
"503 253 LINE",
"330 253 LINE",
"330 690 LINE",
"20 690 LINE",
"20 0 LINE"
);
}
);
width = 513;
}
);
leftKerningGroup = L;
rightKerningGroup = L;
unicode = 004C;
},
{
glyphname = Lslash;
lastChange = "2023-05-23 19:28:12 +0000";
layers = (
{
components = (
{
name = L;
}
);
layerId = "3B426CF6-0C00-48CC-B0F4-6E2C4CD07FAD";
paths = (
{
closed = 1;
nodes = (
"-22 302 LINE",
"489 402 LINE",
"489 552 LINE",
"-22 452 LINE"
);
}
);
width = 617;
},
{
components = (
{
name = L;
}
);
layerId = "685D33D6-AC85-457D-AB31-6AFB1340D947";
paths = (
{
closed = 1;
nodes = (
"-22 302 LINE",
"389 402 LINE",
"389 552 LINE",
"-22 452 LINE"
);
}
);
width = 513;
}
);
leftKerningGroup = L;
rightKerningGroup = L;
unicode = 0141;
},
{
glyphname = M;
lastChange = "2023-05-23 19:28:12 +0000";
layers = (
{
anchors = (
{
name = bottom;
position = "{496, 0}";
},
{
name = top;
position = "{496, 690}";
}
);
layerId = "3B426CF6-0C00-48CC-B0F4-6E2C4CD07FAD";
paths = (
{
closed = 1;
nodes = (
"391 0 LINE",
"391 44 LINE SMOOTH",
"391 83 OFFCURVE",
"386 181 OFFCURVE",
"374 277 CURVE",
"400 279 LINE",
"435 83 LINE",
"556 83 LINE",
"591 279 LINE",
"617 277 LINE",
"604 181 OFFCURVE",
"600 85 OFFCURVE",
"600 44 CURVE SMOOTH",
"600 0 LINE",
"971 0 LINE",
"971 690 LINE",
"529 690 LINE",
"511 521 LINE SMOOTH",
"509 503 OFFCURVE",
"507 485 OFFCURVE",
"505 459 CURVE",
"486 459 LINE",
"484 485 OFFCURVE",
"482 503 OFFCURVE",
"480 521 CURVE SMOOTH",
"462 690 LINE",
"20 690 LINE",
"20 0 LINE"
);
}
);
width = 991;
},
{
anchors = (
{
name = bottom;
position = "{421, 0}";
},
{
name = top;
position = "{421, 690}";
}
);
layerId = "685D33D6-AC85-457D-AB31-6AFB1340D947";
paths = (
{
closed = 1;
nodes = (
"330 0 LINE",
"330 44 LINE SMOOTH",
"330 81 OFFCURVE",
"324 181 OFFCURVE",
"314 277 CURVE",
"336 279 LINE",
"368 83 LINE",
"474 83 LINE",
"505 279 LINE",
"527 277 LINE",
"517 181 OFFCURVE",
"511 80 OFFCURVE",
"511 44 CURVE SMOOTH",
"511 0 LINE",
"821 0 LINE",
"821 690 LINE",
"450 690 LINE",
"435 524 LINE SMOOTH",
"433 504 OFFCURVE",
"432 486 OFFCURVE",
"430 459 CURVE",
"411 459 LINE",
"409 486 OFFCURVE",
"408 504 OFFCURVE",
"406 524 CURVE SMOOTH",
"391 690 LINE",
"20 690 LINE",
"20 0 LINE"
);
}
);
width = 841;
}
);
leftKerningGroup = L;
unicode = 004D;
},
{
glyphname = N;
lastChange = "2023-06-01 17:20:39 +0000";
layers = (
{
anchors = (
{
name = bottom;
position = "{448, 0}";
},
{
name = top;
position = "{448, 690}";
}
);
layerId = "3B426CF6-0C00-48CC-B0F4-6E2C4CD07FAD";
paths = (
{
closed = 1;
nodes = (
"394 0 LINE",
"394 35 LINE SMOOTH",
"394 81 OFFCURVE",
"389 150 OFFCURVE",
"380 206 CURVE",
"403 210 LINE",
"463 0 LINE",
"876 0 LINE",
"876 690 LINE",
"502 690 LINE",
"502 655 LINE SMOOTH",
"502 624 OFFCURVE",
"509 546 OFFCURVE",
"520 463 CURVE",
"497 459 LINE",
"433 690 LINE",
"20 690 LINE",
"20 0 LINE"
);
}
);
width = 896;
},
{
anchors = (
{
name = bottom;
position = "{377, 0}";
},
{
name = top;
position = "{377, 690}";
}
);
layerId = "685D33D6-AC85-457D-AB31-6AFB1340D947";
paths = (
{
closed = 1;
nodes = (
"330 0 LINE",
"330 35 LINE SMOOTH",
"330 85 OFFCURVE",
"325 154 OFFCURVE",
"318 206 CURVE",
"337 210 LINE",
"389 0 LINE",
"734 0 LINE",
"734 690 LINE",
"423 690 LINE",
"423 655 LINE SMOOTH",
"423 627 OFFCURVE",
"429 550 OFFCURVE",
"439 463 CURVE",
"420 459 LINE",
"364 690 LINE",
"20 690 LINE",
"20 0 LINE"
);
}
);
width = 754;
}
);
leftKerningGroup = L;
unicode = 004E;
},
{
glyphname = Nhookleft;
lastChange = "2023-06-01 23:08:46 +0000";
layers = (
{
background = {
paths = (
{
closed = 1;
nodes = (
"330 0 LINE",
"330 35 LINE SMOOTH",
"330 85 OFFCURVE",
"325 154 OFFCURVE",
"318 206 CURVE",
"337 210 LINE",
"389 0 LINE",
"734 0 LINE",
"734 690 LINE",
"423 690 LINE",
"423 655 LINE SMOOTH",
"423 627 OFFCURVE",
"429 550 OFFCURVE",
"439 463 CURVE",
"420 459 LINE",
"364 690 LINE",
"20 690 LINE",
"20 0 LINE"
);
}
);
};
layerId = "685D33D6-AC85-457D-AB31-6AFB1340D947";
paths = (
{
closed = 1;
nodes = (
"231 -138 OFFCURVE",
"330 -77 OFFCURVE",
"330 69 CURVE SMOOTH",
"330 102 OFFCURVE",
"325 157 OFFCURVE",
"318 206 CURVE",
"337 210 LINE",
"389 0 LINE",
"734 0 LINE",
"734 690 LINE",
"423 690 LINE",
"423 655 LINE SMOOTH",
"423 627 OFFCURVE",
"429 550 OFFCURVE",
"439 463 CURVE",
"420 459 LINE",
"364 690 LINE",
"20 690 LINE",
"20 37 LINE SMOOTH",
"20 -11 OFFCURVE",
"-3 -21 OFFCURVE",
"-41 -17 CURVE",
"-41 -120 LINE",
"-15 -130 OFFCURVE",
"37 -138 OFFCURVE",
"92 -138 CURVE SMOOTH"
);
}
);
width = 754;
},
{
layerId = "3B426CF6-0C00-48CC-B0F4-6E2C4CD07FAD";
paths = (
{
closed = 1;
nodes = (
"269 -138 OFFCURVE",
"380 -78 OFFCURVE",
"380 62 CURVE SMOOTH",
"380 103 OFFCURVE",
"375 150 OFFCURVE",
"366 206 CURVE",
"389 210 LINE",
"449 0 LINE",
"862 0 LINE",
"862 690 LINE",
"488 690 LINE",
"488 655 LINE SMOOTH",
"488 624 OFFCURVE",
"495 546 OFFCURVE",
"506 463 CURVE",
"483 459 LINE",
"419 690 LINE",
"6 690 LINE",
"6 -5 LINE SMOOTH",
"6 -41 OFFCURVE",
"-17 -51 OFFCURVE",
"-55 -47 CURVE",
"-55 -120 LINE",
"-31 -130 OFFCURVE",
"17 -138 OFFCURVE",
"98 -138 CURVE SMOOTH"
);
}
);
width = 882;
}
);
leftMetricsKey = j;
rightKerningGroup = j;
rightMetricsKey = N;
unicode = 019D;
},
{
glyphname = Eng;
lastChange = "2023-06-01 17:24:48 +0000";
layers = (
{
anchors = (
{
name = bottom;
position = "{436, 0}";
},
{
name = top;
position = "{436, 690}";
}
);
layerId = "3B426CF6-0C00-48CC-B0F4-6E2C4CD07FAD";
paths = (
{
closed = 1;
nodes = (
"790 -138 OFFCURVE",
"876 -78 OFFCURVE",
"876 69 CURVE SMOOTH",
"876 690 LINE",
"502 690 LINE",
"502 655 LINE SMOOTH",
"502 624 OFFCURVE",
"509 546 OFFCURVE",
"520 463 CURVE",
"497 459 LINE",
"433 690 LINE",
"20 690 LINE",
"20 0 LINE",
"394 0 LINE",
"394 35 LINE SMOOTH",
"394 81 OFFCURVE",
"389 150 OFFCURVE",
"380 206 CURVE",
"403 210 LINE",
"463 0 LINE",
"569 0 LINE",
"569 -5 LINE SMOOTH",
"569 -41 OFFCURVE",
"546 -51 OFFCURVE",
"508 -47 CURVE",
"508 -120 LINE",
"530 -130 OFFCURVE",
"575 -138 OFFCURVE",
"631 -138 CURVE SMOOTH"
);
}
);
width = 896;
},
{
anchors = (
{
name = bottom;
position = "{380, 0}";
},
{
name = top;
position = "{380, 690}";
}
);
layerId = "685D33D6-AC85-457D-AB31-6AFB1340D947";
paths = (
{
closed = 1;
nodes = (
"648 -138 OFFCURVE",
"734 -78 OFFCURVE",
"734 69 CURVE SMOOTH",
"734 690 LINE",
"423 690 LINE",
"423 655 LINE SMOOTH",
"423 627 OFFCURVE",
"429 550 OFFCURVE",
"439 463 CURVE",
"420 459 LINE",
"364 690 LINE",
"20 690 LINE",
"20 0 LINE",
"330 0 LINE",
"330 35 LINE SMOOTH",
"330 85 OFFCURVE",
"325 154 OFFCURVE",
"318 206 CURVE",
"337 210 LINE",
"389 0 LINE",
"427 0 LINE",
"427 -5 LINE SMOOTH",
"427 -41 OFFCURVE",
"404 -51 OFFCURVE",
"366 -47 CURVE",
"366 -120 LINE",
"388 -130 OFFCURVE",
"433 -138 OFFCURVE",
"489 -138 CURVE SMOOTH"
);
}
);
width = 754;
}
);
leftKerningGroup = L;
leftMetricsKey = N;
rightMetricsKey = N;
unicode = 014A;
},
{
glyphname = O;
lastChange = "2023-05-31 19:18:06 +0000";
layers = (
{
anchors = (
{
name = bottom;
position = "{437, 0}";
},
{
name = center;
position = "{437, 345}";
},
{
name = ogonek;
position = "{788, 10}";
},
{
name = top;
position = "{437, 690}";
},
{
name = topleft;
position = "{21, 690}";
},
{
name = topright;
position = "{570, 690}";
}
);
layerId = "3B426CF6-0C00-48CC-B0F4-6E2C4CD07FAD";
paths = (
{
closed = 1;
nodes = (
"701 -10 OFFCURVE",
"864 118 OFFCURVE",
"864 346 CURVE SMOOTH",
"864 560 OFFCURVE",
"717 702 OFFCURVE",
"437 702 CURVE SMOOTH",
"173 702 OFFCURVE",
"10 574 OFFCURVE",
"10 346 CURVE SMOOTH",
"10 132 OFFCURVE",
"157 -10 OFFCURVE",
"437 -10 CURVE SMOOTH"
);
},
{
closed = 1;
nodes = (
"414 252 OFFCURVE",
"399 271 OFFCURVE",
"399 346 CURVE SMOOTH",
"399 402 OFFCURVE",
"407 440 OFFCURVE",
"437 440 CURVE SMOOTH",
"460 440 OFFCURVE",
"475 421 OFFCURVE",
"475 346 CURVE SMOOTH",
"475 290 OFFCURVE",
"467 252 OFFCURVE",
"437 252 CURVE SMOOTH"
);
}
);
width = 874;
},
{
anchors = (
{
name = bottom;
position = "{381, 0}";
},
{
name = center;
position = "{381, 345}";
},
{
name = ogonek;
position = "{686, 10}";
},
{
name = top;
position = "{381, 690}";
},
{
name = topleft;
position = "{20, 690}";
},
{
name = topright;
position = "{498, 690}";
}
);
layerId = "685D33D6-AC85-457D-AB31-6AFB1340D947";
paths = (
{
closed = 1;
nodes = (
"611 -10 OFFCURVE",
"752 118 OFFCURVE",
"752 346 CURVE SMOOTH",
"752 560 OFFCURVE",
"625 702 OFFCURVE",
"381 702 CURVE SMOOTH",
"151 702 OFFCURVE",
"10 574 OFFCURVE",
"10 346 CURVE SMOOTH",
"10 132 OFFCURVE",
"137 -10 OFFCURVE",
"381 -10 CURVE SMOOTH"
);
},
{
closed = 1;
nodes = (
"362 252 OFFCURVE",
"348 271 OFFCURVE",
"348 346 CURVE SMOOTH",
"348 402 OFFCURVE",
"355 440 OFFCURVE",
"381 440 CURVE SMOOTH",
"400 440 OFFCURVE",
"414 421 OFFCURVE",
"414 346 CURVE SMOOTH",
"414 290 OFFCURVE",
"407 252 OFFCURVE",
"381 252 CURVE SMOOTH"
);
}
);
width = 762;
}
);
leftKerningGroup = O;
rightKerningGroup = O;
unicode = 004F;
},
{
glyphname = Ocircumflexacute;
lastChange = "2023-05-31 20:26:31 +0000";
layers = (
{
layerId = "685D33D6-AC85-457D-AB31-6AFB1340D947";
paths = (
{
closed = 1;
nodes = (
"611 -10 OFFCURVE",
"752 118 OFFCURVE",
"752 346 CURVE SMOOTH",
"752 435 OFFCURVE",
"730 511 OFFCURVE",
"687 570 CURVE",
"426 570 LINE",
"381 599 LINE",
"336 570 LINE",
"74 570 LINE",
"33 513 OFFCURVE",
"10 437 OFFCURVE",
"10 346 CURVE SMOOTH",
"10 132 OFFCURVE",
"137 -10 OFFCURVE",
"381 -10 CURVE SMOOTH"
);
},
{
closed = 1;
nodes = (
"362 252 OFFCURVE",
"348 271 OFFCURVE",
"348 346 CURVE SMOOTH",
"348 402 OFFCURVE",
"355 440 OFFCURVE",
"381 440 CURVE SMOOTH",
"400 440 OFFCURVE",
"414 421 OFFCURVE",
"414 346 CURVE SMOOTH",
"414 290 OFFCURVE",
"407 252 OFFCURVE",
"381 252 CURVE SMOOTH"
);
},
{
closed = 1;
nodes = (
"328 598 LINE",
"381 632 LINE",
"434 598 LINE",
"684 598 LINE",
"684 612 LINE",
"580 690 LINE",
"182 690 LINE",
"78 612 LINE",
"78 598 LINE"
);
},
{
closed = 1;
nodes = (
"509 718 LINE",
"673 797 LINE",
"673 815 LINE",
"253 815 LINE",
"253 718 LINE"
);
}
);
width = 762;
},
{
layerId = "3B426CF6-0C00-48CC-B0F4-6E2C4CD07FAD";
paths = (
{
closed = 1;
nodes = (
"701 -10 OFFCURVE",
"864 118 OFFCURVE",
"864 346 CURVE SMOOTH",
"864 431 OFFCURVE",
"841 506 OFFCURVE",
"794 564 CURVE",
"480 564 LINE",
"437 592 LINE",
"394 564 LINE",
"80 564 LINE",
"35 508 OFFCURVE",
"10 434 OFFCURVE",
"10 346 CURVE SMOOTH",
"10 132 OFFCURVE",
"157 -10 OFFCURVE",
"437 -10 CURVE SMOOTH"
);
},
{
closed = 1;
nodes = (
"414 252 OFFCURVE",
"399 271 OFFCURVE",
"399 346 CURVE SMOOTH",
"399 402 OFFCURVE",
"407 440 OFFCURVE",
"437 440 CURVE SMOOTH",
"460 440 OFFCURVE",
"475 421 OFFCURVE",
"475 346 CURVE SMOOTH",
"475 290 OFFCURVE",
"467 252 OFFCURVE",
"437 252 CURVE SMOOTH"
);
},
{
closed = 1;
nodes = (
"384 598 LINE",
"437 632 LINE",
"490 598 LINE",
"740 598 LINE",
"740 612 LINE",
"646 690 LINE",
"228 690 LINE",
"134 612 LINE",
"134 598 LINE"
);
},
{
closed = 1;
nodes = (
"565 723 LINE",
"729 797 LINE",
"729 815 LINE",
"309 815 LINE",
"309 723 LINE"
);
}
);
width = 874;
}
);
unicode = 1ED0;
},
{
glyphname = Ocircumflexgrave;
lastChange = "2023-05-31 20:26:36 +0000";
layers = (
{
layerId = "685D33D6-AC85-457D-AB31-6AFB1340D947";
paths = (
{
closed = 1;
nodes = (
"611 -10 OFFCURVE",
"752 118 OFFCURVE",
"752 346 CURVE SMOOTH",
"752 435 OFFCURVE",
"730 511 OFFCURVE",
"687 570 CURVE",
"426 570 LINE",
"381 599 LINE",
"336 570 LINE",
"74 570 LINE",
"33 513 OFFCURVE",
"10 437 OFFCURVE",
"10 346 CURVE SMOOTH",
"10 132 OFFCURVE",
"137 -10 OFFCURVE",
"381 -10 CURVE SMOOTH"
);
},
{
closed = 1;
nodes = (
"362 252 OFFCURVE",
"348 271 OFFCURVE",
"348 346 CURVE SMOOTH",
"348 402 OFFCURVE",
"355 440 OFFCURVE",
"381 440 CURVE SMOOTH",
"400 440 OFFCURVE",
"414 421 OFFCURVE",
"414 346 CURVE SMOOTH",
"414 290 OFFCURVE",
"407 252 OFFCURVE",
"381 252 CURVE SMOOTH"
);
},
{
closed = 1;
nodes = (
"328 598 LINE",
"381 632 LINE",
"434 598 LINE",
"684 598 LINE",
"684 612 LINE",
"580 690 LINE",
"182 690 LINE",
"78 612 LINE",
"78 598 LINE"
);
},
{
closed = 1;
nodes = (
"509 718 LINE",
"509 815 LINE",
"89 815 LINE",
"89 797 LINE",
"253 718 LINE"
);
}
);
width = 762;
},
{
layerId = "3B426CF6-0C00-48CC-B0F4-6E2C4CD07FAD";
paths = (
{
closed = 1;
nodes = (
"701 -10 OFFCURVE",
"864 118 OFFCURVE",
"864 346 CURVE SMOOTH",
"864 431 OFFCURVE",
"841 506 OFFCURVE",
"794 564 CURVE",
"480 564 LINE",
"437 592 LINE",
"394 564 LINE",
"80 564 LINE",
"35 508 OFFCURVE",
"10 434 OFFCURVE",
"10 346 CURVE SMOOTH",
"10 132 OFFCURVE",
"157 -10 OFFCURVE",
"437 -10 CURVE SMOOTH"
);
},
{
closed = 1;
nodes = (
"414 252 OFFCURVE",
"399 271 OFFCURVE",
"399 346 CURVE SMOOTH",
"399 402 OFFCURVE",
"407 440 OFFCURVE",
"437 440 CURVE SMOOTH",
"460 440 OFFCURVE",
"475 421 OFFCURVE",
"475 346 CURVE SMOOTH",
"475 290 OFFCURVE",
"467 252 OFFCURVE",
"437 252 CURVE SMOOTH"
);
},
{
closed = 1;
nodes = (
"384 598 LINE",
"437 632 LINE",
"490 598 LINE",
"740 598 LINE",
"740 612 LINE",
"646 690 LINE",
"228 690 LINE",
"134 612 LINE",
"134 598 LINE"
);
},
{
closed = 1;
nodes = (
"565 723 LINE",
"565 815 LINE",
"145 815 LINE",
"145 797 LINE",
"309 723 LINE"
);
}
);
width = 874;
}
);
unicode = 1ED2;
},
{
glyphname = Ocircumflexhookabove;
lastChange = "2023-06-01 22:35:14 +0000";
layers = (
{
layerId = "685D33D6-AC85-457D-AB31-6AFB1340D947";
paths = (
{
closed = 1;
nodes = (
"611 -10 OFFCURVE",
"752 118 OFFCURVE",
"752 346 CURVE SMOOTH",
"752 435 OFFCURVE",
"730 511 OFFCURVE",
"687 570 CURVE",
"426 570 LINE",
"381 599 LINE",
"336 570 LINE",
"74 570 LINE",
"33 513 OFFCURVE",
"10 437 OFFCURVE",
"10 346 CURVE SMOOTH",
"10 132 OFFCURVE",
"137 -10 OFFCURVE",
"381 -10 CURVE SMOOTH"
);
},
{
closed = 1;
nodes = (
"362 252 OFFCURVE",
"348 271 OFFCURVE",
"348 346 CURVE SMOOTH",
"348 402 OFFCURVE",
"355 440 OFFCURVE",
"381 440 CURVE SMOOTH",
"400 440 OFFCURVE",
"414 421 OFFCURVE",
"414 346 CURVE SMOOTH",
"414 290 OFFCURVE",
"407 252 OFFCURVE",
"381 252 CURVE SMOOTH"
);
},
{
closed = 1;
nodes = (
"328 598 LINE",
"381 632 LINE",
"434 598 LINE",
"684 598 LINE",
"684 612 LINE",
"580 690 LINE",
"182 690 LINE",
"78 612 LINE",
"78 598 LINE"
);
},
{
closed = 1;
nodes = (
"516 713 OFFCURVE",
"617 729 OFFCURVE",
"617 770 CURVE SMOOTH",
"617 811 OFFCURVE",
"530 821 OFFCURVE",
"402 821 CURVE SMOOTH",
"319 821 OFFCURVE",
"229 815 OFFCURVE",
"171 808 CURVE",
"171 760 LINE",
"368 773 LINE",
"368 752 LINE",
"206 741 LINE",
"206 718 LINE",
"247 715 OFFCURVE",
"317 713 OFFCURVE",
"365 713 CURVE SMOOTH"
);
}
);
width = 762;
},
{
layerId = "3B426CF6-0C00-48CC-B0F4-6E2C4CD07FAD";
paths = (
{
closed = 1;
nodes = (
"701 -10 OFFCURVE",
"864 118 OFFCURVE",
"864 346 CURVE SMOOTH",
"864 431 OFFCURVE",
"841 506 OFFCURVE",
"794 564 CURVE",
"480 564 LINE",
"437 592 LINE",
"394 564 LINE",
"80 564 LINE",
"35 508 OFFCURVE",
"10 434 OFFCURVE",
"10 346 CURVE SMOOTH",
"10 132 OFFCURVE",
"157 -10 OFFCURVE",
"437 -10 CURVE SMOOTH"
);
},
{
closed = 1;
nodes = (
"414 252 OFFCURVE",
"399 271 OFFCURVE",
"399 346 CURVE SMOOTH",
"399 402 OFFCURVE",
"407 440 OFFCURVE",
"437 440 CURVE SMOOTH",
"460 440 OFFCURVE",
"475 421 OFFCURVE",
"475 346 CURVE SMOOTH",
"475 290 OFFCURVE",
"467 252 OFFCURVE",
"437 252 CURVE SMOOTH"
);
},
{
closed = 1;
nodes = (
"384 598 LINE",
"437 632 LINE",
"490 598 LINE",
"740 598 LINE",
"740 612 LINE",
"646 690 LINE",
"228 690 LINE",
"134 612 LINE",
"134 598 LINE"
);
},
{
closed = 1;
nodes = (
"617 716 OFFCURVE",
"706 737 OFFCURVE",
"706 773 CURVE SMOOTH",
"706 802 OFFCURVE",
"653 821 OFFCURVE",
"486 821 CURVE SMOOTH",
"388 821 OFFCURVE",
"278 816 OFFCURVE",
"211 808 CURVE",
"211 759 LINE",
"429 772 LINE",
"429 751 LINE",
"250 740 LINE",
"250 721 LINE",
"295 718 OFFCURVE",
"374 716 OFFCURVE",
"427 716 CURVE SMOOTH"
);
}
);
width = 874;
}
);
unicode = 1ED4;
},
{
glyphname = Ocircumflextilde;
lastChange = "2023-05-31 20:26:42 +0000";
layers = (
{
layerId = "685D33D6-AC85-457D-AB31-6AFB1340D947";
paths = (
{
closed = 1;
nodes = (
"611 -10 OFFCURVE",
"752 118 OFFCURVE",
"752 346 CURVE SMOOTH",
"752 435 OFFCURVE",
"730 511 OFFCURVE",
"687 570 CURVE",
"426 570 LINE",
"381 599 LINE",
"336 570 LINE",
"74 570 LINE",
"33 513 OFFCURVE",
"10 437 OFFCURVE",
"10 346 CURVE SMOOTH",
"10 132 OFFCURVE",
"137 -10 OFFCURVE",
"381 -10 CURVE SMOOTH"
);
},
{
closed = 1;
nodes = (
"362 252 OFFCURVE",
"348 271 OFFCURVE",
"348 346 CURVE SMOOTH",
"348 402 OFFCURVE",
"355 440 OFFCURVE",
"381 440 CURVE SMOOTH",
"400 440 OFFCURVE",
"414 421 OFFCURVE",
"414 346 CURVE SMOOTH",
"414 290 OFFCURVE",
"407 252 OFFCURVE",
"381 252 CURVE SMOOTH"
);
},
{
closed = 1;
nodes = (
"328 598 LINE",
"381 632 LINE",
"434 598 LINE",
"684 598 LINE",
"684 612 LINE",
"580 690 LINE",
"182 690 LINE",
"78 612 LINE",
"78 598 LINE"
);
},
{
closed = 1;
nodes = (
"536 713 OFFCURVE",
"581 743 OFFCURVE",
"581 831 CURVE",
"448 831 LINE",
"448 813 OFFCURVE",
"438 802 OFFCURVE",
"415 802 CURVE SMOOTH",
"381 802 OFFCURVE",
"358 838 OFFCURVE",
"271 838 CURVE SMOOTH",
"219 838 OFFCURVE",
"171 808 OFFCURVE",
"171 719 CURVE",
"302 719 LINE",
"303 735 OFFCURVE",
"311 747 OFFCURVE",
"335 747 CURVE SMOOTH",
"367 747 OFFCURVE",
"406 713 OFFCURVE",
"475 713 CURVE"
);
}
);
width = 762;
},
{
layerId = "3B426CF6-0C00-48CC-B0F4-6E2C4CD07FAD";
paths = (
{
closed = 1;
nodes = (
"701 -10 OFFCURVE",
"864 118 OFFCURVE",
"864 346 CURVE SMOOTH",
"864 431 OFFCURVE",
"841 506 OFFCURVE",
"794 564 CURVE",
"480 564 LINE",
"437 592 LINE",
"394 564 LINE",
"80 564 LINE",
"35 508 OFFCURVE",
"10 434 OFFCURVE",
"10 346 CURVE SMOOTH",
"10 132 OFFCURVE",
"157 -10 OFFCURVE",
"437 -10 CURVE SMOOTH"
);
},
{
closed = 1;
nodes = (
"414 252 OFFCURVE",
"399 271 OFFCURVE",
"399 346 CURVE SMOOTH",
"399 402 OFFCURVE",
"407 440 OFFCURVE",
"437 440 CURVE SMOOTH",
"460 440 OFFCURVE",
"475 421 OFFCURVE",
"475 346 CURVE SMOOTH",
"475 290 OFFCURVE",
"467 252 OFFCURVE",
"437 252 CURVE SMOOTH"
);
},
{
closed = 1;
nodes = (
"384 598 LINE",
"437 632 LINE",
"490 598 LINE",
"740 598 LINE",
"740 612 LINE",
"646 690 LINE",
"228 690 LINE",
"134 612 LINE",
"134 598 LINE"
);
},
{
closed = 1;
nodes = (
"671 713 OFFCURVE",
"692 761 OFFCURVE",
"690 834 CURVE",
"520 834 LINE",
"520 815 OFFCURVE",
"510 804 OFFCURVE",
"491 804 CURVE SMOOTH",
"443 804 OFFCURVE",
"385 841 OFFCURVE",
"311 841 CURVE SMOOTH",
"184 841 OFFCURVE",
"162 792 OFFCURVE",
"167 719 CURVE",
"334 719 LINE",
"335 735 OFFCURVE",
"342 749 OFFCURVE",
"362 749 CURVE SMOOTH",
"407 749 OFFCURVE",
"486 713 OFFCURVE",
"555 713 CURVE"
);
}
);
width = 874;
}
);
unicode = 1ED6;
},
{
glyphname = OE;
lastChange = "2023-05-23 19:28:12 +0000";
layers = (
{
anchors = (
{
name = bottom;
position = "{393, 0}";
},
{
name = center;
position = "{633, 345}";
},
{
name = ogonek;
position = "{1249, 10}";
},
{
name = top;
position = "{410, 690}";
},
{
name = topleft;
position = "{643, 690}";
}
);
layerId = "3B426CF6-0C00-48CC-B0F4-6E2C4CD07FAD";
paths = (
{
closed = 1;
nodes = (
"1100 0 LINE",
"1100 253 LINE",
"799 253 LINE",
"799 290 LINE",
"1089 290 LINE",
"1089 400 LINE",
"799 400 LINE",
"799 437 LINE",
"1100 437 LINE",
"1100 690 LINE",
"433 690 LINE SMOOTH",
"179 690 OFFCURVE",
"10 580 OFFCURVE",
"10 345 CURVE SMOOTH",
"10 138 OFFCURVE",
"146 0 OFFCURVE",
"434 0 CURVE SMOOTH"
);
},
{
closed = 1;
nodes = (
"396 250 OFFCURVE",
"380 288 OFFCURVE",
"380 345 CURVE SMOOTH",
"380 408 OFFCURVE",
"398 440 OFFCURVE",
"436 440 CURVE SMOOTH",
"446 440 LINE",
"446 250 LINE",
"436 250 LINE SMOOTH"
);
}
);
width = 1120;
},
{
anchors = (
{
name = bottom;
position = "{373, 0}";
},
{
name = center;
position = "{549, 345}";
},
{
name = ogonek;
position = "{1122, 10}";
},
{
name = top;
position = "{369, 690}";
},
{
name = topleft;
position = "{578, 690}";
}
);
layerId = "685D33D6-AC85-457D-AB31-6AFB1340D947";
paths = (
{
closed = 1;
nodes = (
"988 0 LINE",
"988 253 LINE",
"718 253 LINE",
"718 290 LINE",
"978 290 LINE",
"978 400 LINE",
"718 400 LINE",
"718 437 LINE",
"988 437 LINE",
"988 690 LINE",
"392 690 LINE SMOOTH",
"163 690 OFFCURVE",
"10 580 OFFCURVE",
"10 345 CURVE SMOOTH",
"10 138 OFFCURVE",
"132 0 OFFCURVE",
"393 0 CURVE SMOOTH"
);
},
{
closed = 1;
nodes = (
"352 250 OFFCURVE",
"338 288 OFFCURVE",
"338 345 CURVE SMOOTH",
"338 411 OFFCURVE",
"357 440 OFFCURVE",
"395 440 CURVE SMOOTH",
"401 440 LINE",
"401 250 LINE",
"395 250 LINE SMOOTH"
);
}
);
width = 1008;
}
);
leftKerningGroup = O;
leftMetricsKey = O;
rightMetricsKey = E;
unicode = 0152;
},
{
glyphname = P;
lastChange = "2023-05-23 19:28:12 +0000";
layers = (
{
anchors = (
{
name = bottom;
position = "{429, 0}";
},
{
name = top;
position = "{429, 690}";
}
);
background = {
paths = (
{
closed = 1;
nodes = (
"452 0 LINE",
"798 0 LINE",
"680 283 LINE",
"419 192 LINE",
"460 192 LINE SMOOTH",
"692 192 OFFCURVE",
"796 288 OFFCURVE",
"796 458 CURVE SMOOTH",
"796 618 OFFCURVE",
"693 724 OFFCURVE",
"460 724 CURVE SMOOTH",
"46 724 LINE",
"46 0 LINE",
"366 0 LINE",
"366 192 LINE",
"382 192 LINE"
);
},
{
closed = 1;
nodes = (
"366 451 LINE",
"392 451 LINE SMOOTH",
"433 451 OFFCURVE",
"461 428 OFFCURVE",
"461 379 CURVE SMOOTH",
"461 336 OFFCURVE",
"439 307 OFFCURVE",
"392 307 CURVE SMOOTH",
"366 307 LINE"
);
}
);
};
layerId = "3B426CF6-0C00-48CC-B0F4-6E2C4CD07FAD";
paths = (
{
closed = 1;
nodes = (
"473 126 LINE SMOOTH",
"724 126 OFFCURVE",
"844 239 OFFCURVE",
"844 408 CURVE SMOOTH",
"844 600 OFFCURVE",
"689 690 OFFCURVE",
"459 690 CURVE SMOOTH",
"20 690 LINE",
"20 0 LINE",
"394 0 LINE",
"394 126 LINE"
);
},
{
closed = 1;
nodes = (
"394 444 LINE",
"401 444 LINE SMOOTH",
"426 444 OFFCURVE",
"453 435 OFFCURVE",
"453 380 CURVE SMOOTH",
"453 337 OFFCURVE",
"436 316 OFFCURVE",
"401 316 CURVE SMOOTH",
"394 316 LINE"
);
}
);
width = 854;
},
{
anchors = (
{
name = bottom;
position = "{362, 0}";
},
{
name = top;
position = "{362, 690}";
}
);
layerId = "685D33D6-AC85-457D-AB31-6AFB1340D947";
paths = (
{
closed = 1;
nodes = (
"399 126 LINE SMOOTH",
"617 126 OFFCURVE",
"719 239 OFFCURVE",
"719 408 CURVE SMOOTH",
"719 600 OFFCURVE",
"587 690 OFFCURVE",
"388 690 CURVE SMOOTH",
"20 690 LINE",
"20 0 LINE",
"332 0 LINE",
"332 126 LINE"
);
},
{
closed = 1;
nodes = (
"332 444 LINE",
"337 444 LINE SMOOTH",
"366 444 OFFCURVE",
"382 428 OFFCURVE",
"382 380 CURVE SMOOTH",
"382 343 OFFCURVE",
"372 316 OFFCURVE",
"337 316 CURVE SMOOTH",
"332 316 LINE"
);
}
);
width = 729;
}
);
leftKerningGroup = L;
rightKerningGroup = P;
unicode = 0050;
},
{
glyphname = Thorn;
lastChange = "2023-05-23 19:28:12 +0000";
layers = (
{
layerId = "3B426CF6-0C00-48CC-B0F4-6E2C4CD07FAD";
paths = (
{
closed = 1;
nodes = (
"384 690 LINE",
"20 690 LINE",
"20 0 LINE",
"384 0 LINE"
);
},
{
closed = 1;
nodes = (
"483 75 LINE SMOOTH",
"708 75 OFFCURVE",
"834 183 OFFCURVE",
"834 345 CURVE SMOOTH",
"834 518 OFFCURVE",
"693 615 OFFCURVE",
"483 615 CURVE SMOOTH",
"345 615 LINE",
"366 409 LINE",
"391 409 LINE SMOOTH",
"416 409 OFFCURVE",
"443 400 OFFCURVE",
"443 345 CURVE SMOOTH",
"443 293 OFFCURVE",
"419 281 OFFCURVE",
"391 281 CURVE SMOOTH",
"366 281 LINE",
"345 75 LINE"
);
}
);
width = 844;
},
{
layerId = "685D33D6-AC85-457D-AB31-6AFB1340D947";
paths = (
{
closed = 1;
nodes = (
"334 690 LINE",
"20 690 LINE",
"20 0 LINE",
"334 0 LINE"
);
},
{
closed = 1;
nodes = (
"419 75 LINE SMOOTH",
"613 75 OFFCURVE",
"722 183 OFFCURVE",
"722 345 CURVE SMOOTH",
"722 518 OFFCURVE",
"601 615 OFFCURVE",
"419 615 CURVE SMOOTH",
"300 615 LINE",
"319 409 LINE",
"340 409 LINE SMOOTH",
"369 409 OFFCURVE",
"384 393 OFFCURVE",
"384 345 CURVE SMOOTH",
"384 297 OFFCURVE",
"368 281 OFFCURVE",
"340 281 CURVE SMOOTH",
"319 281 LINE",
"300 75 LINE"
);
}
);
width = 732;
}
);
leftKerningGroup = L;
unicode = 00DE;
},
{
glyphname = Q;
lastChange = "2023-05-23 19:43:24 +0000";
layers = (
{
anchors = (
{
name = bottom;
position = "{430, 0}";
},
{
name = center;
position = "{437, 345}";
},
{
name = ogonek;
position = "{788, 10}";
},
{
name = top;
position = "{490, 690}";
},
{
name = topleft;
position = "{21, 690}";
},
{
name = topright;
position = "{853, 690}";
}
);
background = {
paths = (
{
closed = 1;
nodes = (
"815 -56 LINE",
"815 -38 LINE",
"622 134 LINE",
"438 48 LINE",
"488 -56 LINE"
);
}
);
};
layerId = "3B426CF6-0C00-48CC-B0F4-6E2C4CD07FAD";
paths = (
{
closed = 1;
nodes = (
"865 0 LINE",
"865 18 LINE",
"767 105 LINE",
"830 163 OFFCURVE",
"864 244 OFFCURVE",
"864 346 CURVE SMOOTH",
"864 560 OFFCURVE",
"717 702 OFFCURVE",
"437 702 CURVE SMOOTH",
"173 702 OFFCURVE",
"10 574 OFFCURVE",
"10 346 CURVE SMOOTH",
"10 138 OFFCURVE",
"157 0 OFFCURVE",
"437 0 CURVE SMOOTH"
);
},
{
closed = 1;
nodes = (
"414 252 OFFCURVE",
"399 271 OFFCURVE",
"399 346 CURVE SMOOTH",
"399 402 OFFCURVE",
"407 440 OFFCURVE",
"437 440 CURVE SMOOTH",
"460 440 OFFCURVE",
"475 421 OFFCURVE",
"475 346 CURVE SMOOTH",
"475 290 OFFCURVE",
"467 252 OFFCURVE",
"437 252 CURVE SMOOTH"
);
}
);
width = 874;
},
{
anchors = (
{
name = bottom;
position = "{368, 0}";
},
{
name = center;
position = "{381, 345}";
},
{
name = ogonek;
position = "{686, 10}";
},
{
name = top;
position = "{368, 690}";
},
{
name = topleft;
position = "{20, 690}";
},
{
name = topright;
position = "{742, 690}";
}
);
background = {
paths = (
{
closed = 1;
nodes = (
"713 -56 LINE",
"713 -44 LINE",
"553 134 LINE",
"407 48 LINE",
"447 -56 LINE"
);
}
);
};
layerId = "685D33D6-AC85-457D-AB31-6AFB1340D947";
paths = (
{
closed = 1;
nodes = (
"745 0 LINE",
"745 12 LINE",
"665 101 LINE",
"721 160 OFFCURVE",
"752 242 OFFCURVE",
"752 346 CURVE SMOOTH",
"752 560 OFFCURVE",
"625 702 OFFCURVE",
"381 702 CURVE SMOOTH",
"151 702 OFFCURVE",
"10 574 OFFCURVE",
"10 346 CURVE SMOOTH",
"10 138 OFFCURVE",
"137 0 OFFCURVE",
"381 0 CURVE SMOOTH"
);
},
{
closed = 1;
nodes = (
"362 252 OFFCURVE",
"348 271 OFFCURVE",
"348 346 CURVE SMOOTH",
"348 402 OFFCURVE",
"355 440 OFFCURVE",
"381 440 CURVE SMOOTH",
"400 440 OFFCURVE",
"414 421 OFFCURVE",
"414 346 CURVE SMOOTH",
"414 290 OFFCURVE",
"407 252 OFFCURVE",
"381 252 CURVE SMOOTH"
);
}
);
width = 762;
}
);
leftKerningGroup = O;
leftMetricsKey = O;
rightKerningGroup = D;
unicode = 0051;
},
{
glyphname = R;
lastChange = "2023-05-23 19:28:12 +0000";
layers = (
{
anchors = (
{
name = bottom;
position = "{430, 0}";
},
{
name = top;
position = "{430, 690}";
}
);
background = {
paths = (
{
closed = 1;
nodes = (
"394 0 LINE",
"394 155 LINE",
"411 155 LINE",
"454 0 LINE",
"846 0 LINE",
"741 245 LINE",
"810 289 OFFCURVE",
"844 355 OFFCURVE",
"844 436 CURVE SMOOTH",
"844 609 OFFCURVE",
"695 690 OFFCURVE",
"473 690 CURVE SMOOTH",
"20 690 LINE",
"20 0 LINE"
);
},
{
closed = 1;
nodes = (
"394 430 LINE",
"401 430 LINE SMOOTH",
"429 430 OFFCURVE",
"453 416 OFFCURVE",
"453 361 CURVE SMOOTH",
"453 315 OFFCURVE",
"436 293 OFFCURVE",
"401 293 CURVE SMOOTH",
"394 293 LINE"
);
}
);
};
layerId = "3B426CF6-0C00-48CC-B0F4-6E2C4CD07FAD";
paths = (
{
closed = 1;
nodes = (
"394 0 LINE",
"394 155 LINE",
"411 155 LINE",
"454 0 LINE",
"836 0 LINE",
"836 23 LINE",
"741 245 LINE",
"810 289 OFFCURVE",
"844 355 OFFCURVE",
"844 436 CURVE SMOOTH",
"844 609 OFFCURVE",
"695 690 OFFCURVE",
"473 690 CURVE SMOOTH",
"20 690 LINE",
"20 0 LINE"
);
},
{
closed = 1;
nodes = (
"394 430 LINE",
"401 430 LINE SMOOTH",
"429 430 OFFCURVE",
"453 416 OFFCURVE",
"453 361 CURVE SMOOTH",
"453 315 OFFCURVE",
"436 293 OFFCURVE",
"401 293 CURVE SMOOTH",
"394 293 LINE"
);
}
);
width = 851;
},
{
anchors = (
{
name = bottom;
position = "{363, 0}";
},
{
name = top;
position = "{363, 690}";
}
);
layerId = "685D33D6-AC85-457D-AB31-6AFB1340D947";
paths = (
{
closed = 1;
nodes = (
"332 0 LINE",
"332 155 LINE",
"352 155 LINE",
"383 0 LINE",
"714 0 LINE",
"714 21 LINE",
"631 245 LINE",
"690 289 OFFCURVE",
"719 355 OFFCURVE",
"719 436 CURVE SMOOTH",
"719 609 OFFCURVE",
"591 690 OFFCURVE",
"399 690 CURVE SMOOTH",
"20 690 LINE",
"20 0 LINE"
);
},
{
closed = 1;
nodes = (
"332 430 LINE",
"337 430 LINE SMOOTH",
"365 430 OFFCURVE",
"382 412 OFFCURVE",
"382 361 CURVE SMOOTH",
"382 321 OFFCURVE",
"372 293 OFFCURVE",
"337 293 CURVE SMOOTH",
"332 293 LINE"
);
}
);
width = 726;
}
);
leftKerningGroup = L;
rightKerningGroup = R;
unicode = 0052;
},
{
glyphname = S;
lastChange = "2023-05-23 19:28:12 +0000";
layers = (
{
anchors = (
{
name = bottom;
position = "{371, 0}";
},
{
name = top;
position = "{381, 690}";
}
);
background = {
paths = (
{
closed = 1;
nodes = (
"640 -13 OFFCURVE",
"762 61 OFFCURVE",
"762 214 CURVE SMOOTH",
"762 372 OFFCURVE",
"626 409 OFFCURVE",
"457 409 CURVE SMOOTH",
"421 409 OFFCURVE",
"404 408 OFFCURVE",
"394 407 CURVE",
"394 442 LINE",
"416 447 OFFCURVE",
"438 448 OFFCURVE",
"482 448 CURVE SMOOTH",
"554 448 OFFCURVE",
"641 437 OFFCURVE",
"700 410 CURVE",
"718 420 LINE",
"718 660 LINE",
"647 686 OFFCURVE",
"524 703 OFFCURVE",
"401 703 CURVE SMOOTH",
"153 703 OFFCURVE",
"10 621 OFFCURVE",
"10 473 CURVE SMOOTH",
"10 332 OFFCURVE",
"100 276 OFFCURVE",
"333 277 CURVE SMOOTH",
"352 277 OFFCURVE",
"365 278 OFFCURVE",
"377 279 CURVE",
"377 244 LINE",
"361 240 OFFCURVE",
"329 238 OFFCURVE",
"297 239 CURVE SMOOTH",
"203 241 OFFCURVE",
"103 256 OFFCURVE",
"36 292 CURVE",
"21 284 LINE",
"21 42 LINE",
"87 7 OFFCURVE",
"210 -13 OFFCURVE",
"349 -13 CURVE SMOOTH"
);
}
);
};
layerId = "3B426CF6-0C00-48CC-B0F4-6E2C4CD07FAD";
paths = (
{
closed = 1;
nodes = (
"584 -13 OFFCURVE",
"762 51 OFFCURVE",
"762 214 CURVE SMOOTH",
"762 372 OFFCURVE",
"626 409 OFFCURVE",
"457 409 CURVE SMOOTH",
"421 409 OFFCURVE",
"404 408 OFFCURVE",
"394 407 CURVE",
"394 442 LINE",
"416 447 OFFCURVE",
"438 448 OFFCURVE",
"482 448 CURVE SMOOTH",
"554 448 OFFCURVE",
"641 437 OFFCURVE",
"700 410 CURVE",
"718 420 LINE",
"718 655 LINE",
"648 688 OFFCURVE",
"524 703 OFFCURVE",
"401 703 CURVE SMOOTH",
"175 703 OFFCURVE",
"10 620 OFFCURVE",
"10 468 CURVE SMOOTH",
"10 332 OFFCURVE",
"114 276 OFFCURVE",
"333 277 CURVE SMOOTH",
"352 277 OFFCURVE",
"365 278 OFFCURVE",
"377 279 CURVE",
"377 244 LINE",
"361 240 OFFCURVE",
"329 238 OFFCURVE",
"297 239 CURVE SMOOTH",
"203 241 OFFCURVE",
"103 256 OFFCURVE",
"36 292 CURVE",
"21 284 LINE",
"21 45 LINE",
"87 9 OFFCURVE",
"207 -13 OFFCURVE",
"346 -13 CURVE SMOOTH"
);
}
);
width = 772;
},
{
anchors = (
{
name = bottom;
position = "{329, 0}";
},
{
name = top;
position = "{326, 690}";
}
);
layerId = "685D33D6-AC85-457D-AB31-6AFB1340D947";
paths = (
{
closed = 1;
nodes = (
"509 -13 OFFCURVE",
"650 71 OFFCURVE",
"650 209 CURVE SMOOTH",
"650 346 OFFCURVE",
"564 409 OFFCURVE",
"401 409 CURVE SMOOTH",
"369 409 OFFCURVE",
"350 407 OFFCURVE",
"337 406 CURVE",
"337 436 LINE",
"346 441 OFFCURVE",
"379 446 OFFCURVE",
"412 446 CURVE SMOOTH",
"489 446 OFFCURVE",
"556 430 OFFCURVE",
"600 406 CURVE",
"612 411 LINE",
"612 661 LINE",
"554 688 OFFCURVE",
"470 703 OFFCURVE",
"349 703 CURVE SMOOTH",
"141 703 OFFCURVE",
"10 606 OFFCURVE",
"10 464 CURVE SMOOTH",
"10 341 OFFCURVE",
"97 276 OFFCURVE",
"272 276 CURVE SMOOTH",
"288 276 OFFCURVE",
"309 277 OFFCURVE",
"322 279 CURVE",
"322 247 LINE",
"307 241 OFFCURVE",
"275 239 OFFCURVE",
"241 240 CURVE SMOOTH",
"153 242 OFFCURVE",
"76 264 OFFCURVE",
"30 295 CURVE",
"20 290 LINE",
"20 41 LINE",
"71 8 OFFCURVE",
"183 -13 OFFCURVE",
"296 -13 CURVE SMOOTH"
);
}
);
width = 660;
}
);
leftKerningGroup = S;
rightKerningGroup = S;
unicode = 0053;
},
{
glyphname = Germandbls;
lastChange = "2023-05-23 19:28:12 +0000";
layers = (
{
background = {
paths = (
{
closed = 1;
nodes = (
"379 0 LINE",
"379 490 LINE",
"559 490 LINE",
"411 415 LINE",
"411 271 LINE",
"482 271 LINE SMOOTH",
"526 271 OFFCURVE",
"570 262 OFFCURVE",
"570 231 CURVE SMOOTH",
"570 205 OFFCURVE",
"539 190 OFFCURVE",
"490 190 CURVE SMOOTH",
"461 190 OFFCURVE",
"435 195 OFFCURVE",
"411 205 CURVE",
"411 6 LINE",
"452 -5 OFFCURVE",
"510 -13 OFFCURVE",
"578 -13 CURVE SMOOTH",
"797 -13 OFFCURVE",
"939 72 OFFCURVE",
"939 204 CURVE SMOOTH",
"939 297 OFFCURVE",
"868 386 OFFCURVE",
"690 375 CURVE",
"690 387 LINE",
"886 474 LINE",
"886 690 LINE",
"20 690 LINE",
"20 0 LINE"
);
}
);
};
layerId = "3B426CF6-0C00-48CC-B0F4-6E2C4CD07FAD";
paths = (
{
closed = 1;
nodes = (
"797 -13 OFFCURVE",
"939 72 OFFCURVE",
"939 204 CURVE SMOOTH",
"939 297 OFFCURVE",
"868 386 OFFCURVE",
"690 375 CURVE",
"690 387 LINE",
"886 474 LINE",
"886 690 LINE",
"20 690 LINE",
"20 0 LINE",
"379 0 LINE",
"379 490 LINE",
"559 490 LINE",
"411 415 LINE",
"411 271 LINE",
"482 271 LINE SMOOTH",
"526 271 OFFCURVE",
"570 262 OFFCURVE",
"570 231 CURVE SMOOTH",
"570 205 OFFCURVE",
"539 190 OFFCURVE",
"490 190 CURVE SMOOTH",
"466 190 OFFCURVE",
"443 194 OFFCURVE",
"422 201 CURVE",
"411 194 LINE",
"411 6 LINE",
"452 -5 OFFCURVE",
"510 -13 OFFCURVE",
"578 -13 CURVE SMOOTH"
);
}
);
width = 949;
},
{
layerId = "685D33D6-AC85-457D-AB31-6AFB1340D947";
paths = (
{
closed = 1;
nodes = (
"702 -13 OFFCURVE",
"827 72 OFFCURVE",
"827 204 CURVE SMOOTH",
"827 297 OFFCURVE",
"764 386 OFFCURVE",
"608 375 CURVE",
"608 387 LINE",
"780 474 LINE",
"780 690 LINE",
"20 690 LINE",
"20 0 LINE",
"335 0 LINE",
"335 490 LINE",
"493 490 LINE",
"364 415 LINE",
"364 271 LINE",
"426 271 LINE SMOOTH",
"465 271 OFFCURVE",
"503 262 OFFCURVE",
"503 231 CURVE SMOOTH",
"503 205 OFFCURVE",
"477 190 OFFCURVE",
"433 190 CURVE SMOOTH",
"411 190 OFFCURVE",
"391 194 OFFCURVE",
"372 201 CURVE",
"364 194 LINE",
"364 6 LINE",
"400 -5 OFFCURVE",
"450 -13 OFFCURVE",
"509 -13 CURVE SMOOTH"
);
}
);
width = 837;
}
);
leftKerningGroup = L;
rightKerningGroup = Germandbls;
unicode = 1E9E;
},
{
glyphname = T;
lastChange = "2023-05-23 19:28:12 +0000";
layers = (
{
anchors = (
{
name = bottom;
position = "{374, 0}";
},
{
name = center;
position = "{374, 347}";
},
{
name = top;
position = "{374, 690}";
}
);
layerId = "3B426CF6-0C00-48CC-B0F4-6E2C4CD07FAD";
paths = (
{
closed = 1;
nodes = (
"187 438 LINE",
"187 0 LINE",
"561 0 LINE",
"561 438 LINE",
"733 438 LINE",
"733 690 LINE",
"15 690 LINE",
"15 438 LINE"
);
}
);
width = 748;
},
{
anchors = (
{
name = bottom;
position = "{318, 0}";
},
{
name = center;
position = "{318, 347}";
},
{
name = top;
position = "{318, 690}";
}
);
layerId = "685D33D6-AC85-457D-AB31-6AFB1340D947";
paths = (
{
closed = 1;
nodes = (
"162 437 LINE",
"162 0 LINE",
"474 0 LINE",
"474 437 LINE",
"621 437 LINE",
"621 689 LINE",
"15 689 LINE",
"15 437 LINE"
);
}
);
width = 636;
}
);
leftKerningGroup = T;
rightKerningGroup = T;
unicode = 0054;
},
{
glyphname = U;
lastChange = "2023-05-31 19:37:10 +0000";
layers = (
{
anchors = (
{
name = bottom;
position = "{417, 0}";
},
{
name = ogonek;
position = "{587, 10}";
},
{
name = top;
position = "{417, 690}";
},
{
name = topright;
position = "{566, 690}";
}
);
layerId = "3B426CF6-0C00-48CC-B0F4-6E2C4CD07FAD";
paths = (
{
closed = 1;
nodes = (
"20 120 OFFCURVE",
"108 -10 OFFCURVE",
"417 -10 CURVE SMOOTH",
"675 -10 OFFCURVE",
"813 91 OFFCURVE",
"813 290 CURVE SMOOTH",
"813 690 LINE",
"439 690 LINE",
"439 301 LINE SMOOTH",
"439 284 OFFCURVE",
"433 271 OFFCURVE",
"417 271 CURVE SMOOTH",
"404 271 OFFCURVE",
"394 279 OFFCURVE",
"394 301 CURVE SMOOTH",
"394 690 LINE",
"20 690 LINE",
"20 290 LINE SMOOTH"
);
}
);
width = 833;
},
{
anchors = (
{
name = bottom;
position = "{351, 0}";
},
{
name = ogonek;
position = "{496, 10}";
},
{
name = top;
position = "{351, 690}";
},
{
name = topright;
position = "{435, 690}";
}
);
layerId = "685D33D6-AC85-457D-AB31-6AFB1340D947";
paths = (
{
closed = 1;
nodes = (
"20 84 OFFCURVE",
"131 -10 OFFCURVE",
"351 -10 CURVE SMOOTH",
"566 -10 OFFCURVE",
"681 91 OFFCURVE",
"681 290 CURVE SMOOTH",
"681 690 LINE",
"369 690 LINE",
"369 301 LINE SMOOTH",
"369 283 OFFCURVE",
"364 271 OFFCURVE",
"351 271 CURVE SMOOTH",
"339 271 OFFCURVE",
"332 279 OFFCURVE",
"332 301 CURVE SMOOTH",
"332 690 LINE",
"20 690 LINE",
"20 290 LINE SMOOTH"
);
}
);
width = 701;
}
);
leftKerningGroup = J;
rightKerningGroup = J;
unicode = 0055;
},
{
glyphname = V;
lastChange = "2023-05-23 19:28:12 +0000";
layers = (
{
anchors = (
{
name = bottom;
position = "{399, 0}";
},
{
name = top;
position = "{399, 690}";
}
);
background = {
paths = (
{
closed = 1;
nodes = (
"136 0 LINE",
"661 0 LINE",
"824 690 LINE",
"427 690 LINE",
"411 316 LINE",
"386 316 LINE",
"370 690 LINE",
"-27 690 LINE"
);
}
);
};
layerId = "3B426CF6-0C00-48CC-B0F4-6E2C4CD07FAD";
paths = (
{
closed = 1;
nodes = (
"735 0 LINE",
"862 652 LINE",
"862 690 LINE",
"467 690 LINE",
"456 434 LINE SMOOTH",
"455 401 OFFCURVE",
"452 368 OFFCURVE",
"450 276 CURVE",
"422 276 LINE",
"420 368 OFFCURVE",
"419 401 OFFCURVE",
"417 434 CURVE SMOOTH",
"405 690 LINE",
"10 690 LINE",
"10 652 LINE",
"137 0 LINE"
);
}
);
width = 872;
},
{
anchors = (
{
name = bottom;
position = "{388, 0}";
},
{
name = top;
position = "{388, 690}";
}
);
layerId = "685D33D6-AC85-457D-AB31-6AFB1340D947";
paths = (
{
closed = 1;
nodes = (
"621 0 LINE",
"746 661 LINE",
"746 690 LINE",
"406 690 LINE",
"395 429 LINE SMOOTH",
"391 346 OFFCURVE",
"391 273 OFFCURVE",
"391 264 CURVE",
"365 264 LINE",
"365 273 OFFCURVE",
"364 346 OFFCURVE",
"361 429 CURVE SMOOTH",
"350 690 LINE",
"10 690 LINE",
"10 661 LINE",
"135 0 LINE"
);
}
);
width = 756;
}
);
leftKerningGroup = V;
rightKerningGroup = V;
unicode = 0056;
},
{
glyphname = W;
lastChange = "2023-05-23 19:28:12 +0000";
layers = (
{
anchors = (
{
name = bottom;
position = "{568, 0}";
},
{
name = top;
position = "{568, 690}";
}
);
background = {
paths = (
{
closed = 1;
nodes = (
"541 0 LINE",
"551 136 LINE SMOOTH",
"553 163 OFFCURVE",
"555 190 OFFCURVE",
"557 238 CURVE",
"580 238 LINE",
"582 190 OFFCURVE",
"584 163 OFFCURVE",
"586 136 CURVE SMOOTH",
"595 0 LINE",
"1015 0 LINE",
"1164 690 LINE",
"758 690 LINE",
"758 474 LINE SMOOTH",
"758 444 OFFCURVE",
"758 413 OFFCURVE",
"760 379 CURVE",
"737 379 LINE",
"733 422 OFFCURVE",
"729 448 OFFCURVE",
"726 474 CURVE SMOOTH",
"696 690 LINE",
"439 690 LINE",
"410 474 LINE SMOOTH",
"407 448 OFFCURVE",
"403 422 OFFCURVE",
"399 379 CURVE",
"376 379 LINE",
"378 413 OFFCURVE",
"378 444 OFFCURVE",
"378 474 CURVE SMOOTH",
"378 690 LINE",
"-28 690 LINE",
"132 0 LINE"
);
}
);
};
layerId = "3B426CF6-0C00-48CC-B0F4-6E2C4CD07FAD";
paths = (
{
closed = 1;
nodes = (
"562 0 LINE",
"573 136 LINE SMOOTH",
"575 163 OFFCURVE",
"576 190 OFFCURVE",
"578 238 CURVE",
"602 238 LINE",
"604 190 OFFCURVE",
"605 163 OFFCURVE",
"607 136 CURVE SMOOTH",
"618 0 LINE",
"1048 0 LINE",
"1170 649 LINE",
"1170 690 LINE",
"782 690 LINE",
"782 474 LINE SMOOTH",
"782 444 OFFCURVE",
"782 413 OFFCURVE",
"784 379 CURVE",
"761 379 LINE",
"757 422 OFFCURVE",
"753 448 OFFCURVE",
"750 474 CURVE SMOOTH",
"721 690 LINE",
"459 690 LINE",
"430 474 LINE SMOOTH",
"427 448 OFFCURVE",
"423 422 OFFCURVE",
"419 379 CURVE",
"396 379 LINE",
"398 413 OFFCURVE",
"398 444 OFFCURVE",
"398 474 CURVE SMOOTH",
"398 690 LINE",
"10 690 LINE",
"10 649 LINE",
"132 0 LINE"
);
}
);
width = 1180;
},
{
anchors = (
{
name = bottom;
position = "{522, 0}";
},
{
name = top;
position = "{522, 690}";
}
);
layerId = "685D33D6-AC85-457D-AB31-6AFB1340D947";
paths = (
{
closed = 1;
nodes = (
"517 0 LINE",
"527 151 LINE SMOOTH",
"529 178 OFFCURVE",
"531 204 OFFCURVE",
"532 238 CURVE",
"555 238 LINE",
"555 204 OFFCURVE",
"558 178 OFFCURVE",
"560 151 CURVE SMOOTH",
"569 0 LINE",
"959 0 LINE",
"1076 635 LINE",
"1076 690 LINE",
"728 690 LINE",
"728 453 LINE SMOOTH",
"728 429 OFFCURVE",
"728 407 OFFCURVE",
"729 379 CURVE",
"707 379 LINE",
"706 407 OFFCURVE",
"703 429 OFFCURVE",
"700 453 CURVE SMOOTH",
"671 690 LINE",
"415 690 LINE",
"386 453 LINE SMOOTH",
"383 429 OFFCURVE",
"381 407 OFFCURVE",
"379 379 CURVE",
"357 379 LINE",
"358 407 OFFCURVE",
"358 429 OFFCURVE",
"358 453 CURVE SMOOTH",
"358 690 LINE",
"10 690 LINE",
"10 635 LINE",
"127 0 LINE"
);
}
);
width = 1086;
}
);
leftKerningGroup = W;
rightKerningGroup = W;
unicode = 0057;
},
{
glyphname = X;
lastChange = "2023-05-23 19:28:12 +0000";
layers = (
{
anchors = (
{
name = bottom;
position = "{434, 0}";
},
{
name = top;
position = "{434, 690}";
}
);
background = {
paths = (
{
closed = 1;
nodes = (
"403 0 LINE",
"417 158 LINE",
"443 158 LINE",
"457 0 LINE",
"857 0 LINE",
"857 31 LINE",
"726 373 LINE",
"857 662 LINE",
"857 690 LINE",
"457 690 LINE",
"442 512 LINE",
"418 512 LINE",
"403 690 LINE",
"3 690 LINE",
"3 662 LINE",
"134 373 LINE",
"3 31 LINE",
"3 0 LINE"
);
}
);
};
layerId = "3B426CF6-0C00-48CC-B0F4-6E2C4CD07FAD";
paths = (
{
closed = 1;
nodes = (
"401 0 LINE",
"423 148 LINE",
"446 148 LINE",
"466 0 LINE",
"857 0 LINE",
"857 31 LINE",
"726 353 LINE",
"857 662 LINE",
"857 690 LINE",
"466 690 LINE",
"445 522 LINE",
"422 522 LINE",
"401 690 LINE",
"10 690 LINE",
"10 662 LINE",
"141 356 LINE",
"10 28 LINE",
"10 0 LINE"
);
}
);
width = 867;
},
{
anchors = (
{
name = bottom;
position = "{369, 0}";
},
{
name = top;
position = "{369, 690}";
}
);
layerId = "685D33D6-AC85-457D-AB31-6AFB1340D947";
paths = (
{
closed = 1;
nodes = (
"345 0 LINE",
"358 181 LINE",
"379 181 LINE",
"392 0 LINE",
"726 0 LINE",
"726 24 LINE",
"621 384 LINE",
"726 670 LINE",
"726 690 LINE",
"390 690 LINE",
"379 503 LINE",
"358 503 LINE",
"347 690 LINE",
"11 690 LINE",
"11 670 LINE",
"116 384 LINE",
"11 24 LINE",
"11 0 LINE"
);
}
);
width = 736;
}
);
leftKerningGroup = X;
rightKerningGroup = X;
unicode = 0058;
},
{
glyphname = Y;
lastChange = "2023-05-23 19:28:12 +0000";
layers = (
{
anchors = (
{
name = bottom;
position = "{411, 0}";
},
{
name = top;
position = "{416, 690}";
},
{
name = topleft;
position = "{21, 690}";
}
);
background = {
paths = (
{
closed = 1;
nodes = (
"604 0 LINE",
"604 236 LINE",
"811 658 LINE",
"811 690 LINE",
"445 690 LINE",
"431 527 LINE SMOOTH",
"430 510 OFFCURVE",
"428 494 OFFCURVE",
"427 467 CURVE",
"405 467 LINE",
"403 494 OFFCURVE",
"402 510 OFFCURVE",
"401 527 CURVE SMOOTH",
"387 690 LINE",
"10 690 LINE",
"10 658 LINE",
"230 237 LINE",
"230 0 LINE"
);
}
);
};
layerId = "3B426CF6-0C00-48CC-B0F4-6E2C4CD07FAD";
paths = (
{
closed = 1;
nodes = (
"604 0 LINE",
"604 198 LINE",
"811 658 LINE",
"811 690 LINE",
"445 690 LINE",
"431 527 LINE SMOOTH",
"430 510 OFFCURVE",
"428 494 OFFCURVE",
"427 467 CURVE",
"405 467 LINE",
"404 487 OFFCURVE",
"402 507 OFFCURVE",
"401 527 CURVE SMOOTH",
"387 690 LINE",
"10 690 LINE",
"10 658 LINE",
"230 200 LINE",
"230 0 LINE"
);
}
);
width = 821;
},
{
anchors = (
{
name = bottom;
position = "{352, 0}";
},
{
name = top;
position = "{357, 690}";
},
{
name = topleft;
position = "{16, 690}";
}
);
layerId = "685D33D6-AC85-457D-AB31-6AFB1340D947";
paths = (
{
closed = 1;
nodes = (
"513 0 LINE",
"513 212 LINE",
"695 662 LINE",
"695 690 LINE",
"381 690 LINE",
"369 511 LINE SMOOTH",
"368 493 OFFCURVE",
"367 464 OFFCURVE",
"367 455 CURVE",
"345 455 LINE",
"345 466 OFFCURVE",
"345 493 OFFCURVE",
"344 511 CURVE SMOOTH",
"331 690 LINE",
"20 690 LINE",
"20 662 LINE",
"199 211 LINE",
"199 0 LINE"
);
}
);
width = 705;
}
);
leftKerningGroup = Y;
rightKerningGroup = Y;
unicode = 0059;
},
{
glyphname = Z;
lastChange = "2023-05-23 19:28:12 +0000";
layers = (
{
anchors = (
{
name = bottom;
position = "{376, 0}";
},
{
name = center;
position = "{376, 345}";
},
{
name = top;
position = "{376, 690}";
}
);
background = {
paths = (
{
closed = 1;
nodes = (
"734 253 LINE",
"627 253 OFFCURVE",
"544 249 OFFCURVE",
"446 230 CURVE",
"441 249 LINE",
"578 325 OFFCURVE",
"677 401 OFFCURVE",
"734 464 CURVE",
"734 690 LINE",
"20 690 LINE",
"20 436 LINE",
"125 436 OFFCURVE",
"205 439 OFFCURVE",
"309 456 CURVE",
"315 437 LINE",
"170 361 OFFCURVE",
"75 285 OFFCURVE",
"20 226 CURVE",
"20 0 LINE",
"734 -1 LINE"
);
}
);
};
layerId = "3B426CF6-0C00-48CC-B0F4-6E2C4CD07FAD";
paths = (
{
closed = 1;
nodes = (
"734 0 LINE",
"734 253 LINE",
"627 253 OFFCURVE",
"544 249 OFFCURVE",
"446 230 CURVE",
"441 249 LINE",
"533 302 OFFCURVE",
"650 379 OFFCURVE",
"734 442 CURVE",
"734 690 LINE",
"20 690 LINE",
"20 436 LINE",
"125 436 OFFCURVE",
"205 439 OFFCURVE",
"309 456 CURVE",
"315 437 LINE",
"226 384 OFFCURVE",
"108 305 OFFCURVE",
"20 239 CURVE",
"20 0 LINE"
);
}
);
width = 754;
},
{
anchors = (
{
name = bottom;
position = "{321, 0}";
},
{
name = center;
position = "{321, 345}";
},
{
name = top;
position = "{321, 690}";
}
);
layerId = "685D33D6-AC85-457D-AB31-6AFB1340D947";
paths = (
{
closed = 1;
nodes = (
"622 0 LINE",
"622 253 LINE",
"525 253 OFFCURVE",
"450 249 OFFCURVE",
"367 244 CURVE",
"366 255 LINE",
"464 321 OFFCURVE",
"566 395 OFFCURVE",
"622 441 CURVE",
"622 690 LINE",
"20 690 LINE",
"20 436 LINE",
"114 436 OFFCURVE",
"184 439 OFFCURVE",
"260 442 CURVE",
"263 430 LINE",
"180 372 OFFCURVE",
"83 296 OFFCURVE",
"20 242 CURVE",
"20 0 LINE"
);
}
);
width = 642;
}
);
leftKerningGroup = Z;
rightKerningGroup = Z;
unicode = 005A;
},
{
glyphname = a;
lastChange = "2023-05-30 20:55:29 +0000";
layers = (
{
anchors = (
{
name = bottom;
position = "{384, 0}";
},
{
name = ogonek;
position = "{683, 0}";
},
{
name = top;
position = "{384, 565}";
}
);
background = {
paths = (
{
closed = 1;
nodes = (
"301 -13 OFFCURVE",
"372 37 OFFCURVE",
"386 121 CURVE",
"404 121 LINE",
"420 0 LINE",
"774 0 LINE",
"774 299 LINE SMOOTH",
"774 492 OFFCURVE",
"634 578 OFFCURVE",
"381 578 CURVE SMOOTH",
"230 578 OFFCURVE",
"100 547 OFFCURVE",
"23 512 CURVE",
"23 278 LINE",
"73 305 OFFCURVE",
"154 329 OFFCURVE",
"239 329 CURVE SMOOTH",
"402 329 OFFCURVE",
"404 243 OFFCURVE",
"404 221 CURVE SMOOTH",
"404 165 LINE",
"386 165 LINE",
"379 242 OFFCURVE",
"310 298 OFFCURVE",
"199 298 CURVE SMOOTH",
"75 298 OFFCURVE",
"12 230 OFFCURVE",
"11 143 CURVE SMOOTH",
"10 51 OFFCURVE",
"77 -13 OFFCURVE",
"196 -13 CURVE SMOOTH"
);
},
{
closed = 1;
nodes = (
"294 111 OFFCURVE",
"279 123 OFFCURVE",
"279 143 CURVE SMOOTH",
"279 163 OFFCURVE",
"296 175 OFFCURVE",
"320 175 CURVE SMOOTH",
"346 175 OFFCURVE",
"361 162 OFFCURVE",
"361 143 CURVE SMOOTH",
"361 122 OFFCURVE",
"344 111 OFFCURVE",
"320 111 CURVE SMOOTH"
);
}
);
};
layerId = "3B426CF6-0C00-48CC-B0F4-6E2C4CD07FAD";
paths = (
{
closed = 1;
nodes = (
"301 -13 OFFCURVE",
"372 37 OFFCURVE",
"386 121 CURVE",
"404 121 LINE",
"420 0 LINE",
"774 0 LINE",
"774 299 LINE SMOOTH",
"774 492 OFFCURVE",
"634 578 OFFCURVE",
"381 578 CURVE SMOOTH",
"230 578 OFFCURVE",
"100 547 OFFCURVE",
"23 512 CURVE",
"23 290 LINE",
"35 284 LINE",
"85 308 OFFCURVE",
"160 329 OFFCURVE",
"239 329 CURVE SMOOTH",
"338 329 OFFCURVE",
"404 299 OFFCURVE",
"404 221 CURVE SMOOTH",
"404 165 LINE",
"386 165 LINE",
"379 242 OFFCURVE",
"310 298 OFFCURVE",
"199 298 CURVE SMOOTH",
"75 298 OFFCURVE",
"12 230 OFFCURVE",
"11 143 CURVE SMOOTH",
"10 51 OFFCURVE",
"77 -13 OFFCURVE",
"196 -13 CURVE SMOOTH"
);
},
{
closed = 1;
nodes = (
"294 111 OFFCURVE",
"279 123 OFFCURVE",
"279 143 CURVE SMOOTH",
"279 163 OFFCURVE",
"296 175 OFFCURVE",
"320 175 CURVE SMOOTH",
"346 175 OFFCURVE",
"361 162 OFFCURVE",
"361 143 CURVE SMOOTH",
"361 122 OFFCURVE",
"344 111 OFFCURVE",
"320 111 CURVE SMOOTH"
);
}
);
width = 794;
},
{
anchors = (
{
name = bottom;
position = "{330, 0}";
},
{
name = ogonek;
position = "{612, 0}";
},
{
name = top;
position = "{330, 565}";
}
);
layerId = "685D33D6-AC85-457D-AB31-6AFB1340D947";
paths = (
{
closed = 1;
nodes = (
"280 -13 OFFCURVE",
"351 30 OFFCURVE",
"369 122 CURVE",
"379 122 LINE",
"385 0 LINE",
"684 0 LINE",
"684 300 LINE SMOOTH",
"684 497 OFFCURVE",
"553 578 OFFCURVE",
"307 578 CURVE SMOOTH",
"208 578 OFFCURVE",
"91 555 OFFCURVE",
"17 526 CURVE",
"17 290 LINE",
"31 283 LINE",
"79 311 OFFCURVE",
"150 332 OFFCURVE",
"220 332 CURVE SMOOTH",
"333 332 OFFCURVE",
"379 290 OFFCURVE",
"379 224 CURVE SMOOTH",
"379 164 LINE",
"366 164 LINE",
"348 246 OFFCURVE",
"291 299 OFFCURVE",
"185 299 CURVE SMOOTH",
"78 299 OFFCURVE",
"10 239 OFFCURVE",
"10 143 CURVE SMOOTH",
"10 49 OFFCURVE",
"78 -13 OFFCURVE",
"184 -13 CURVE SMOOTH"
);
},
{
closed = 1;
nodes = (
"282 111 OFFCURVE",
"269 124 OFFCURVE",
"269 143 CURVE SMOOTH",
"269 164 OFFCURVE",
"284 176 OFFCURVE",
"305 176 CURVE SMOOTH",
"329 176 OFFCURVE",
"341 162 OFFCURVE",
"341 143 CURVE SMOOTH",
"341 123 OFFCURVE",
"327 111 OFFCURVE",
"305 111 CURVE SMOOTH"
);
}
);
width = 704;
}
);
leftKerningGroup = a;
rightKerningGroup = a;
unicode = 0061;
},
{
glyphname = abreve;
lastChange = "2023-06-01 23:09:39 +0000";
layers = (
{
background = {
paths = (
{
closed = 1;
nodes = (
"154 523 OFFCURVE",
"24 598 OFFCURVE",
"36 726 CURVE",
"366 726 LINE",
"366 694 OFFCURVE",
"368 690 OFFCURVE",
"384 690 CURVE SMOOTH",
"401 690 OFFCURVE",
"403 695 OFFCURVE",
"403 726 CURVE",
"733 726 LINE",
"742 596 OFFCURVE",
"615 523 OFFCURVE",
"384 523 CURVE SMOOTH"
);
}
);
};
layerId = "3B426CF6-0C00-48CC-B0F4-6E2C4CD07FAD";
paths = (
{
closed = 1;
nodes = (
"301 -13 OFFCURVE",
"372 37 OFFCURVE",
"386 121 CURVE",
"404 121 LINE",
"420 0 LINE",
"774 0 LINE",
"774 299 LINE SMOOTH",
"774 429 OFFCURVE",
"710 511 OFFCURVE",
"590 550 CURVE",
"536 532 OFFCURVE",
"467 523 OFFCURVE",
"384 523 CURVE SMOOTH",
"294 523 OFFCURVE",
"220 534 OFFCURVE",
"163 556 CURVE",
"120 548 OFFCURVE",
"65 530 OFFCURVE",
"23 512 CURVE",
"23 290 LINE",
"35 284 LINE",
"93 312 OFFCURVE",
"173 329 OFFCURVE",
"239 329 CURVE SMOOTH",
"402 329 OFFCURVE",
"404 243 OFFCURVE",
"404 221 CURVE SMOOTH",
"404 165 LINE",
"386 165 LINE",
"379 242 OFFCURVE",
"310 298 OFFCURVE",
"199 298 CURVE SMOOTH",
"75 298 OFFCURVE",
"12 230 OFFCURVE",
"11 143 CURVE SMOOTH",
"10 51 OFFCURVE",
"77 -13 OFFCURVE",
"196 -13 CURVE SMOOTH"
);
},
{
closed = 1;
nodes = (
"294 111 OFFCURVE",
"279 123 OFFCURVE",
"279 143 CURVE SMOOTH",
"279 163 OFFCURVE",
"296 175 OFFCURVE",
"320 175 CURVE SMOOTH",
"346 175 OFFCURVE",
"361 162 OFFCURVE",
"361 143 CURVE SMOOTH",
"361 122 OFFCURVE",
"344 111 OFFCURVE",
"320 111 CURVE SMOOTH"
);
},
{
closed = 1;
nodes = (
"573 559 OFFCURVE",
"680 608 OFFCURVE",
"695 690 CURVE",
"439 690 LINE",
"439 669 OFFCURVE",
"419 654 OFFCURVE",
"384 654 CURVE SMOOTH",
"352 654 OFFCURVE",
"330 667 OFFCURVE",
"330 690 CURVE",
"73 690 LINE",
"87 608 OFFCURVE",
"200 559 OFFCURVE",
"384 559 CURVE SMOOTH"
);
}
);
width = 794;
},
{
layerId = "685D33D6-AC85-457D-AB31-6AFB1340D947";
paths = (
{
closed = 1;
nodes = (
"280 -16 OFFCURVE",
"351 27 OFFCURVE",
"369 120 CURVE",
"379 120 LINE",
"385 0 LINE",
"684 0 LINE",
"684 300 LINE SMOOTH",
"684 440 OFFCURVE",
"618 521 OFFCURVE",
"491 556 CURVE",
"447 540 OFFCURVE",
"393 531 OFFCURVE",
"330 531 CURVE SMOOTH",
"262 531 OFFCURVE",
"199 542 OFFCURVE",
"151 562 CURVE",
"109 554 OFFCURVE",
"53 540 OFFCURVE",
"17 526 CURVE",
"17 288 LINE",
"31 280 LINE",
"89 312 OFFCURVE",
"154 329 OFFCURVE",
"220 329 CURVE SMOOTH",
"317 329 OFFCURVE",
"379 302 OFFCURVE",
"379 221 CURVE SMOOTH",
"379 161 LINE",
"366 161 LINE",
"348 243 OFFCURVE",
"291 297 OFFCURVE",
"185 297 CURVE SMOOTH",
"78 297 OFFCURVE",
"10 236 OFFCURVE",
"10 141 CURVE SMOOTH",
"10 46 OFFCURVE",
"78 -16 OFFCURVE",
"184 -16 CURVE SMOOTH"
);
},
{
closed = 1;
nodes = (
"282 109 OFFCURVE",
"269 122 OFFCURVE",
"269 141 CURVE SMOOTH",
"269 162 OFFCURVE",
"284 174 OFFCURVE",
"305 174 CURVE SMOOTH",
"329 174 OFFCURVE",
"341 160 OFFCURVE",
"341 141 CURVE SMOOTH",
"341 121 OFFCURVE",
"327 109 OFFCURVE",
"305 109 CURVE SMOOTH"
);
},
{
closed = 1;
nodes = (
"473 559 OFFCURVE",
"579 612 OFFCURVE",
"585 690 CURVE",
"372 690 LINE",
"369 667 OFFCURVE",
"359 654 OFFCURVE",
"330 654 CURVE SMOOTH",
"301 654 OFFCURVE",
"291 667 OFFCURVE",
"289 690 CURVE",
"76 690 LINE",
"82 614 OFFCURVE",
"186 559 OFFCURVE",
"330 559 CURVE SMOOTH"
);
}
);
width = 704;
}
);
leftKerningGroup = a;
rightKerningGroup = a;
unicode = 0103;
},
{
glyphname = adieresis;
lastChange = "2023-06-01 23:09:39 +0000";
layers = (
{
background = {
paths = (
{
closed = 1;
nodes = (
"5 548 OFFCURVE",
"80 511 OFFCURVE",
"202 511 CURVE SMOOTH",
"292 511 OFFCURVE",
"358 532 OFFCURVE",
"384 570 CURVE",
"409 532 OFFCURVE",
"475 511 OFFCURVE",
"565 511 CURVE SMOOTH",
"686 511 OFFCURVE",
"762 547 OFFCURVE",
"762 611 CURVE SMOOTH",
"762 674 OFFCURVE",
"687 711 OFFCURVE",
"565 711 CURVE SMOOTH",
"476 711 OFFCURVE",
"410 690 OFFCURVE",
"384 651 CURVE",
"358 690 OFFCURVE",
"293 711 OFFCURVE",
"202 711 CURVE SMOOTH",
"81 711 OFFCURVE",
"5 674 OFFCURVE",
"5 611 CURVE SMOOTH"
);
}
);
};
layerId = "3B426CF6-0C00-48CC-B0F4-6E2C4CD07FAD";
paths = (
{
closed = 1;
nodes = (
"301 -13 OFFCURVE",
"372 37 OFFCURVE",
"386 121 CURVE",
"404 121 LINE",
"420 0 LINE",
"774 0 LINE",
"774 299 LINE SMOOTH",
"774 392 OFFCURVE",
"740 475 OFFCURVE",
"658 520 CURVE",
"632 514 OFFCURVE",
"600 511 OFFCURVE",
"565 511 CURVE SMOOTH",
"475 511 OFFCURVE",
"409 532 OFFCURVE",
"384 570 CURVE",
"358 532 OFFCURVE",
"292 511 OFFCURVE",
"202 511 CURVE SMOOTH",
"149 511 OFFCURVE",
"105 518 OFFCURVE",
"72 531 CURVE",
"54 525 OFFCURVE",
"37 519 OFFCURVE",
"23 512 CURVE",
"23 290 LINE",
"35 284 LINE",
"85 308 OFFCURVE",
"160 329 OFFCURVE",
"239 329 CURVE SMOOTH",
"402 329 OFFCURVE",
"404 243 OFFCURVE",
"404 221 CURVE SMOOTH",
"404 165 LINE",
"386 165 LINE",
"379 242 OFFCURVE",
"310 298 OFFCURVE",
"199 298 CURVE SMOOTH",
"75 298 OFFCURVE",
"12 230 OFFCURVE",
"11 143 CURVE SMOOTH",
"10 51 OFFCURVE",
"77 -13 OFFCURVE",
"196 -13 CURVE SMOOTH"
);
},
{
closed = 1;
nodes = (
"294 111 OFFCURVE",
"279 123 OFFCURVE",
"279 143 CURVE SMOOTH",
"279 163 OFFCURVE",
"296 175 OFFCURVE",
"320 175 CURVE SMOOTH",
"346 175 OFFCURVE",
"361 162 OFFCURVE",
"361 143 CURVE SMOOTH",
"361 122 OFFCURVE",
"344 111 OFFCURVE",
"320 111 CURVE SMOOTH"
);
},
{
closed = 1;
nodes = (
"309 547 OFFCURVE",
"374 578 OFFCURVE",
"374 625 CURVE SMOOTH",
"374 675 OFFCURVE",
"302 703 OFFCURVE",
"199 703 CURVE SMOOTH",
"86 703 OFFCURVE",
"22 671 OFFCURVE",
"22 625 CURVE SMOOTH",
"22 575 OFFCURVE",
"93 547 OFFCURVE",
"199 547 CURVE SMOOTH"
);
},
{
closed = 1;
nodes = (
"681 547 OFFCURVE",
"745 578 OFFCURVE",
"745 625 CURVE SMOOTH",
"745 675 OFFCURVE",
"674 703 OFFCURVE",
"568 703 CURVE SMOOTH",
"458 703 OFFCURVE",
"393 671 OFFCURVE",
"393 625 CURVE SMOOTH",
"393 575 OFFCURVE",
"465 547 OFFCURVE",
"568 547 CURVE SMOOTH"
);
}
);
width = 794;
},
{
layerId = "685D33D6-AC85-457D-AB31-6AFB1340D947";
paths = (
{
closed = 1;
nodes = (
"280 -16 OFFCURVE",
"351 27 OFFCURVE",
"369 120 CURVE",
"379 120 LINE",
"385 0 LINE",
"684 0 LINE",
"684 300 LINE SMOOTH",
"684 406 OFFCURVE",
"645 485 OFFCURVE",
"557 531 CURVE",
"532 523 OFFCURVE",
"503 519 OFFCURVE",
"469 519 CURVE SMOOTH",
"408 519 OFFCURVE",
"358 536 OFFCURVE",
"330 565 CURVE",
"302 536 OFFCURVE",
"253 519 OFFCURVE",
"191 519 CURVE SMOOTH",
"143 519 OFFCURVE",
"104 528 OFFCURVE",
"76 545 CURVE",
"54 539 OFFCURVE",
"35 533 OFFCURVE",
"17 526 CURVE",
"17 288 LINE",
"31 280 LINE",
"79 308 OFFCURVE",
"150 329 OFFCURVE",
"220 329 CURVE SMOOTH",
"317 329 OFFCURVE",
"379 302 OFFCURVE",
"379 221 CURVE SMOOTH",
"379 161 LINE",
"366 161 LINE",
"348 243 OFFCURVE",
"291 297 OFFCURVE",
"185 297 CURVE SMOOTH",
"78 297 OFFCURVE",
"10 236 OFFCURVE",
"10 141 CURVE SMOOTH",
"10 46 OFFCURVE",
"78 -16 OFFCURVE",
"184 -16 CURVE SMOOTH"
);
},
{
closed = 1;
nodes = (
"282 109 OFFCURVE",
"269 122 OFFCURVE",
"269 141 CURVE SMOOTH",
"269 162 OFFCURVE",
"284 174 OFFCURVE",
"305 174 CURVE SMOOTH",
"329 174 OFFCURVE",
"341 160 OFFCURVE",
"341 141 CURVE SMOOTH",
"341 121 OFFCURVE",
"327 109 OFFCURVE",
"305 109 CURVE SMOOTH"
);
},
{
closed = 1;
nodes = (
"275 547 OFFCURVE",
"323 578 OFFCURVE",
"323 625 CURVE SMOOTH",
"323 675 OFFCURVE",
"270 703 OFFCURVE",
"192 703 CURVE SMOOTH",
"107 703 OFFCURVE",
"60 671 OFFCURVE",
"60 625 CURVE SMOOTH",
"60 575 OFFCURVE",
"113 547 OFFCURVE",
"192 547 CURVE SMOOTH"
);
},
{
closed = 1;
nodes = (
"552 547 OFFCURVE",
"600 578 OFFCURVE",
"600 625 CURVE SMOOTH",
"600 675 OFFCURVE",
"547 703 OFFCURVE",
"468 703 CURVE SMOOTH",
"384 703 OFFCURVE",
"337 671 OFFCURVE",
"337 625 CURVE SMOOTH",
"337 575 OFFCURVE",
"390 547 OFFCURVE",
"468 547 CURVE SMOOTH"
);
}
);
width = 704;
}
);
leftKerningGroup = a;
rightKerningGroup = a;
unicode = 00E4;
},
{
glyphname = aring;
lastChange = "2023-06-01 23:09:39 +0000";
layers = (
{
layerId = "3B426CF6-0C00-48CC-B0F4-6E2C4CD07FAD";
paths = (
{
closed = 1;
nodes = (
"301 -13 OFFCURVE",
"372 37 OFFCURVE",
"386 121 CURVE",
"404 121 LINE",
"420 0 LINE",
"774 0 LINE",
"774 299 LINE SMOOTH",
"774 417 OFFCURVE",
"722 497 OFFCURVE",
"614 542 CURVE",
"574 504 OFFCURVE",
"494 483 OFFCURVE",
"384 483 CURVE SMOOTH",
"266 483 OFFCURVE",
"182 508 OFFCURVE",
"146 552 CURVE",
"97 541 OFFCURVE",
"55 527 OFFCURVE",
"23 512 CURVE",
"23 290 LINE",
"35 284 LINE",
"85 308 OFFCURVE",
"160 329 OFFCURVE",
"239 329 CURVE SMOOTH",
"402 329 OFFCURVE",
"404 243 OFFCURVE",
"404 221 CURVE SMOOTH",
"404 165 LINE",
"386 165 LINE",
"379 242 OFFCURVE",
"310 298 OFFCURVE",
"199 298 CURVE SMOOTH",
"75 298 OFFCURVE",
"12 230 OFFCURVE",
"11 143 CURVE SMOOTH",
"10 51 OFFCURVE",
"77 -13 OFFCURVE",
"196 -13 CURVE SMOOTH"
);
},
{
closed = 1;
nodes = (
"294 111 OFFCURVE",
"279 123 OFFCURVE",
"279 143 CURVE SMOOTH",
"279 163 OFFCURVE",
"296 175 OFFCURVE",
"320 175 CURVE SMOOTH",
"346 175 OFFCURVE",
"361 162 OFFCURVE",
"361 143 CURVE SMOOTH",
"361 122 OFFCURVE",
"344 111 OFFCURVE",
"320 111 CURVE SMOOTH"
);
},
{
closed = 1;
nodes = (
"524 518 OFFCURVE",
"606 554 OFFCURVE",
"606 610 CURVE SMOOTH",
"606 669 OFFCURVE",
"515 703 OFFCURVE",
"384 703 CURVE SMOOTH",
"245 703 OFFCURVE",
"163 665 OFFCURVE",
"163 610 CURVE SMOOTH",
"163 551 OFFCURVE",
"254 518 OFFCURVE",
"384 518 CURVE SMOOTH"
);
},
{
closed = 1;
nodes = (
"363 587 OFFCURVE",
"345 595 OFFCURVE",
"345 610 CURVE SMOOTH",
"345 625 OFFCURVE",
"362 634 OFFCURVE",
"384 634 CURVE SMOOTH",
"406 634 OFFCURVE",
"424 626 OFFCURVE",
"424 610 CURVE SMOOTH",
"424 596 OFFCURVE",
"407 587 OFFCURVE",
"384 587 CURVE SMOOTH"
);
}
);
width = 794;
},
{
layerId = "685D33D6-AC85-457D-AB31-6AFB1340D947";
paths = (
{
closed = 1;
nodes = (
"280 -16 OFFCURVE",
"351 27 OFFCURVE",
"369 120 CURVE",
"379 120 LINE",
"385 0 LINE",
"684 0 LINE",
"684 300 LINE SMOOTH",
"684 421 OFFCURVE",
"635 503 OFFCURVE",
"525 546 CURVE",
"495 499 OFFCURVE",
"425 473 OFFCURVE",
"330 473 CURVE SMOOTH",
"229 473 OFFCURVE",
"155 504 OFFCURVE",
"129 558 CURVE",
"87 549 OFFCURVE",
"49 538 OFFCURVE",
"17 526 CURVE",
"17 288 LINE",
"31 280 LINE",
"79 308 OFFCURVE",
"150 329 OFFCURVE",
"220 329 CURVE SMOOTH",
"317 329 OFFCURVE",
"379 302 OFFCURVE",
"379 221 CURVE SMOOTH",
"379 161 LINE",
"366 161 LINE",
"348 243 OFFCURVE",
"291 297 OFFCURVE",
"185 297 CURVE SMOOTH",
"78 297 OFFCURVE",
"10 236 OFFCURVE",
"10 141 CURVE SMOOTH",
"10 46 OFFCURVE",
"78 -16 OFFCURVE",
"184 -16 CURVE SMOOTH"
);
},
{
closed = 1;
nodes = (
"282 109 OFFCURVE",
"269 122 OFFCURVE",
"269 141 CURVE SMOOTH",
"269 162 OFFCURVE",
"284 174 OFFCURVE",
"305 174 CURVE SMOOTH",
"329 174 OFFCURVE",
"341 160 OFFCURVE",
"341 141 CURVE SMOOTH",
"341 121 OFFCURVE",
"327 109 OFFCURVE",
"305 109 CURVE SMOOTH"
);
},
{
closed = 1;
nodes = (
"448 502 OFFCURVE",
"514 542 OFFCURVE",
"514 603 CURVE SMOOTH",
"514 667 OFFCURVE",
"440 703 OFFCURVE",
"330 703 CURVE SMOOTH",
"214 703 OFFCURVE",
"148 663 OFFCURVE",
"148 603 CURVE SMOOTH",
"148 539 OFFCURVE",
"222 502 OFFCURVE",
"330 502 CURVE SMOOTH"
);
},
{
closed = 1;
nodes = (
"312 577 OFFCURVE",
"299 586 OFFCURVE",
"299 603 CURVE SMOOTH",
"299 618 OFFCURVE",
"311 628 OFFCURVE",
"330 628 CURVE SMOOTH",
"350 628 OFFCURVE",
"363 619 OFFCURVE",
"363 603 CURVE SMOOTH",
"363 587 OFFCURVE",
"351 577 OFFCURVE",
"330 577 CURVE SMOOTH"
);
}
);
width = 704;
}
);
leftKerningGroup = a;
rightKerningGroup = a;
unicode = 00E5;
},
{
glyphname = ae;
lastChange = "2023-05-31 19:35:47 +0000";
layers = (
{
anchors = (
{
name = top;
position = "{552, 565}";
}
);
background = {
paths = (
{
closed = 1;
nodes = (
"301 -13 OFFCURVE",
"372 37 OFFCURVE",
"386 121 CURVE",
"404 121 LINE",
"420 0 LINE",
"774 0 LINE",
"774 299 LINE SMOOTH",
"774 492 OFFCURVE",
"634 578 OFFCURVE",
"381 578 CURVE SMOOTH",
"230 578 OFFCURVE",
"100 547 OFFCURVE",
"23 512 CURVE",
"23 290 LINE",
"35 284 LINE",
"85 308 OFFCURVE",
"160 329 OFFCURVE",
"239 329 CURVE SMOOTH",
"338 329 OFFCURVE",
"404 299 OFFCURVE",
"404 221 CURVE SMOOTH",
"404 165 LINE",
"386 165 LINE",
"379 242 OFFCURVE",
"310 298 OFFCURVE",
"199 298 CURVE SMOOTH",
"75 298 OFFCURVE",
"12 230 OFFCURVE",
"11 143 CURVE SMOOTH",
"10 51 OFFCURVE",
"77 -13 OFFCURVE",
"196 -13 CURVE SMOOTH"
);
},
{
closed = 1;
nodes = (
"294 111 OFFCURVE",
"279 123 OFFCURVE",
"279 143 CURVE SMOOTH",
"279 163 OFFCURVE",
"296 175 OFFCURVE",
"320 175 CURVE SMOOTH",
"346 175 OFFCURVE",
"361 162 OFFCURVE",
"361 143 CURVE SMOOTH",
"361 122 OFFCURVE",
"344 111 OFFCURVE",
"320 111 CURVE SMOOTH"
);
}
);
};
layerId = "3B426CF6-0C00-48CC-B0F4-6E2C4CD07FAD";
paths = (
{
closed = 1;
nodes = (
"297 -13 OFFCURVE",
"371 44 OFFCURVE",
"386 121 CURVE",
"410 121 LINE",
"475 38 OFFCURVE",
"611 -13 OFFCURVE",
"785 -13 CURVE SMOOTH",
"892 -13 OFFCURVE",
"1022 12 OFFCURVE",
"1092 50 CURVE",
"1092 245 LINE",
"1082 253 LINE",
"1016 235 OFFCURVE",
"941 222 OFFCURVE",
"859 222 CURVE SMOOTH",
"767 222 OFFCURVE",
"710 246 OFFCURVE",
"703 271 CURVE",
"1091 271 LINE",
"1092 280 OFFCURVE",
"1093 297 OFFCURVE",
"1093 309 CURVE SMOOTH",
"1093 474 OFFCURVE",
"954 578 OFFCURVE",
"744 578 CURVE SMOOTH",
"669 578 OFFCURVE",
"597 564 OFFCURVE",
"552 545 CURVE",
"496 569 OFFCURVE",
"433 577 OFFCURVE",
"360 577 CURVE SMOOTH",
"249 577 OFFCURVE",
"127 558 OFFCURVE",
"23 511 CURVE",
"23 290 LINE",
"36 284 LINE",
"94 311 OFFCURVE",
"166 329 OFFCURVE",
"243 329 CURVE SMOOTH",
"338 329 OFFCURVE",
"404 302 OFFCURVE",
"404 218 CURVE SMOOTH",
"404 165 LINE",
"386 165 LINE",
"376 245 OFFCURVE",
"301 298 OFFCURVE",
"199 298 CURVE SMOOTH",
"86 298 OFFCURVE",
"11 235 OFFCURVE",
"11 141 CURVE SMOOTH",
"11 49 OFFCURVE",
"85 -13 OFFCURVE",
"196 -13 CURVE SMOOTH"
);
},
{
closed = 1;
nodes = (
"294 111 OFFCURVE",
"279 123 OFFCURVE",
"279 143 CURVE SMOOTH",
"279 163 OFFCURVE",
"296 175 OFFCURVE",
"320 175 CURVE SMOOTH",
"346 175 OFFCURVE",
"361 162 OFFCURVE",
"361 143 CURVE SMOOTH",
"361 122 OFFCURVE",
"344 111 OFFCURVE",
"320 111 CURVE SMOOTH"
);
},
{
closed = 1;
nodes = (
"698 320 OFFCURVE",
"713 342 OFFCURVE",
"745 342 CURVE SMOOTH",
"770 342 OFFCURVE",
"791 328 OFFCURVE",
"793 297 CURVE",
"697 297 LINE"
);
}
);
width = 1108;
},
{
anchors = (
{
name = top;
position = "{522, 565}";
}
);
background = {
paths = (
{
closed = 1;
nodes = (
"823 -13 OFFCURVE",
"935 12 OFFCURVE",
"992 50 CURVE",
"992 243 LINE",
"978 252 LINE",
"923 234 OFFCURVE",
"861 223 OFFCURVE",
"790 223 CURVE SMOOTH",
"703 223 OFFCURVE",
"658 239 OFFCURVE",
"646 271 CURVE",
"991 271 LINE",
"992 280 OFFCURVE",
"993 295 OFFCURVE",
"993 309 CURVE SMOOTH",
"993 470 OFFCURVE",
"895 578 OFFCURVE",
"674 578 CURVE SMOOTH",
"477 578 OFFCURVE",
"345 460 OFFCURVE",
"345 286 CURVE SMOOTH",
"345 90 OFFCURVE",
"482 -13 OFFCURVE",
"710 -13 CURVE SMOOTH"
);
},
{
closed = 1;
nodes = (
"642 323 OFFCURVE",
"656 342 OFFCURVE",
"683 342 CURVE SMOOTH",
"706 342 OFFCURVE",
"724 328 OFFCURVE",
"726 297 CURVE",
"641 297 LINE"
);
}
);
};
layerId = "685D33D6-AC85-457D-AB31-6AFB1340D947";
paths = (
{
closed = 1;
nodes = (
"279 -13 OFFCURVE",
"353 41 OFFCURVE",
"369 122 CURVE",
"385 122 LINE",
"446 33 OFFCURVE",
"566 -13 OFFCURVE",
"725 -13 CURVE SMOOTH",
"823 -13 OFFCURVE",
"935 12 OFFCURVE",
"992 50 CURVE",
"992 243 LINE",
"978 252 LINE",
"923 234 OFFCURVE",
"861 223 OFFCURVE",
"789 223 CURVE SMOOTH",
"701 223 OFFCURVE",
"656 237 OFFCURVE",
"642 271 CURVE",
"991 271 LINE",
"992 280 OFFCURVE",
"993 295 OFFCURVE",
"993 309 CURVE SMOOTH",
"993 472 OFFCURVE",
"892 578 OFFCURVE",
"670 578 CURVE SMOOTH",
"612 578 OFFCURVE",
"561 570 OFFCURVE",
"522 551 CURVE",
"466 569 OFFCURVE",
"397 578 OFFCURVE",
"313 578 CURVE SMOOTH",
"203 578 OFFCURVE",
"85 554 OFFCURVE",
"17 522 CURVE",
"17 290 LINE",
"31 283 LINE",
"77 310 OFFCURVE",
"149 332 OFFCURVE",
"219 332 CURVE SMOOTH",
"333 332 OFFCURVE",
"379 290 OFFCURVE",
"379 224 CURVE SMOOTH",
"379 164 LINE",
"366 164 LINE",
"348 245 OFFCURVE",
"282 299 OFFCURVE",
"185 299 CURVE SMOOTH",
"80 299 OFFCURVE",
"10 237 OFFCURVE",
"10 144 CURVE SMOOTH",
"10 50 OFFCURVE",
"80 -13 OFFCURVE",
"184 -13 CURVE SMOOTH"
);
},
{
closed = 1;
nodes = (
"282 111 OFFCURVE",
"269 124 OFFCURVE",
"269 143 CURVE SMOOTH",
"269 164 OFFCURVE",
"284 176 OFFCURVE",
"305 176 CURVE SMOOTH",
"329 176 OFFCURVE",
"341 162 OFFCURVE",
"341 143 CURVE SMOOTH",
"341 123 OFFCURVE",
"327 111 OFFCURVE",
"305 111 CURVE SMOOTH"
);
},
{
closed = 1;
nodes = (
"638 324 OFFCURVE",
"653 342 OFFCURVE",
"680 342 CURVE SMOOTH",
"703 342 OFFCURVE",
"721 328 OFFCURVE",
"723 297 CURVE",
"637 297 LINE"
);
}
);
width = 1008;
}
);
leftKerningGroup = a;
leftMetricsKey = a;
rightKerningGroup = e;
rightMetricsKey = e;
unicode = 00E6;
},
{
glyphname = b;
lastChange = "2023-05-23 19:28:12 +0000";
layers = (
{
anchors = (
{
name = bottom;
position = "{472, 0}";
},
{
name = bottomleft;
position = "{28, -125}";
},
{
name = center;
position = "{271, -58}";
},
{
name = top;
position = "{472, 724}";
}
);
background = {
paths = (
{
closed = 1;
nodes = (
"923 470 OFFCURVE",
"817 578 OFFCURVE",
"659 578 CURVE SMOOTH",
"507 578 OFFCURVE",
"426 479 OFFCURVE",
"414 332 CURVE",
"394 332 LINE",
"394 690 LINE",
"20 690 LINE",
"20 0 LINE",
"371 0 LINE",
"394 224 LINE",
"414 224 LINE",
"427 69 OFFCURVE",
"522 -13 OFFCURVE",
"660 -13 CURVE SMOOTH",
"828 -13 OFFCURVE",
"923 104 OFFCURVE",
"923 280 CURVE SMOOTH"
);
},
{
closed = 1;
nodes = (
"533 248 OFFCURVE",
"513 231 OFFCURVE",
"484 231 CURVE SMOOTH",
"453 231 OFFCURVE",
"435 250 OFFCURVE",
"435 278 CURVE SMOOTH",
"435 308 OFFCURVE",
"455 325 OFFCURVE",
"484 325 CURVE SMOOTH",
"515 325 OFFCURVE",
"533 306 OFFCURVE",
"533 278 CURVE SMOOTH"
);
}
);
};
layerId = "3B426CF6-0C00-48CC-B0F4-6E2C4CD07FAD";
paths = (
{
closed = 1;
nodes = (
"817 -13 OFFCURVE",
"923 93 OFFCURVE",
"923 283 CURVE SMOOTH",
"923 472 OFFCURVE",
"817 578 OFFCURVE",
"659 578 CURVE SMOOTH",
"507 578 OFFCURVE",
"426 481 OFFCURVE",
"414 336 CURVE",
"378 336 LINE",
"378 229 LINE",
"414 229 LINE",
"426 84 OFFCURVE",
"507 -13 OFFCURVE",
"659 -13 CURVE SMOOTH"
);
},
{
closed = 1;
nodes = (
"381 0 LINE",
"394 240 LINE",
"394 690 LINE",
"20 690 LINE",
"20 0 LINE"
);
},
{
closed = 1;
nodes = (
"463 229 OFFCURVE",
"441 249 OFFCURVE",
"441 282 CURVE SMOOTH",
"441 315 OFFCURVE",
"463 335 OFFCURVE",
"496 335 CURVE SMOOTH",
"531 335 OFFCURVE",
"551 313 OFFCURVE",
"551 282 CURVE SMOOTH",
"551 251 OFFCURVE",
"531 229 OFFCURVE",
"496 229 CURVE SMOOTH"
);
}
);
width = 933;
},
{
anchors = (
{
name = bottom;
position = "{400, 0}";
},
{
name = bottomleft;
position = "{68, -125}";
},
{
name = center;
position = "{282, -58}";
},
{
name = top;
position = "{400, 724}";
}
);
layerId = "685D33D6-AC85-457D-AB31-6AFB1340D947";
paths = (
{
closed = 1;
nodes = (
"757 -12 OFFCURVE",
"866 93 OFFCURVE",
"866 282 CURVE SMOOTH",
"866 471 OFFCURVE",
"757 576 OFFCURVE",
"604 576 CURVE SMOOTH",
"445 576 OFFCURVE",
"360 484 OFFCURVE",
"343 339 CURVE",
"303 339 LINE",
"303 225 LINE",
"343 225 LINE",
"360 80 OFFCURVE",
"445 -12 OFFCURVE",
"604 -12 CURVE SMOOTH"
);
},
{
closed = 1;
nodes = (
"317 0 LINE",
"327 226 LINE",
"327 690 LINE",
"20 690 LINE",
"20 0 LINE"
);
},
{
closed = 1;
nodes = (
"397 230 OFFCURVE",
"375 250 OFFCURVE",
"375 282 CURVE SMOOTH",
"375 314 OFFCURVE",
"397 334 OFFCURVE",
"429 334 CURVE SMOOTH",
"462 334 OFFCURVE",
"482 313 OFFCURVE",
"482 282 CURVE SMOOTH",
"482 251 OFFCURVE",
"462 230 OFFCURVE",
"429 230 CURVE SMOOTH"
);
}
);
width = 876;
}
);
leftKerningGroup = l;
rightKerningGroup = b;
unicode = 0062;
},
{
glyphname = c;
lastChange = "2023-05-23 19:28:12 +0000";
layers = (
{
anchors = (
{
name = bottom;
position = "{410, 0}";
},
{
name = top;
position = "{410, 565}";
}
);
background = {
paths = (
{
closed = 1;
nodes = (
"510 -13 OFFCURVE",
"613 11 OFFCURVE",
"677 49 CURVE",
"677 244 LINE",
"665 251 LINE",
"617 228 OFFCURVE",
"554 210 OFFCURVE",
"476 210 CURVE SMOOTH",
"396 210 OFFCURVE",
"348 226 OFFCURVE",
"348 284 CURVE SMOOTH",
"348 328 OFFCURVE",
"377 356 OFFCURVE",
"477 356 CURVE SMOOTH",
"560 356 OFFCURVE",
"621 334 OFFCURVE",
"665 309 CURVE",
"677 316 LINE",
"677 511 LINE",
"615 554 OFFCURVE",
"507 578 OFFCURVE",
"401 578 CURVE SMOOTH",
"166 578 OFFCURVE",
"10 460 OFFCURVE",
"10 274 CURVE SMOOTH",
"10 105 OFFCURVE",
"138 -13 OFFCURVE",
"406 -13 CURVE SMOOTH"
);
}
);
};
layerId = "3B426CF6-0C00-48CC-B0F4-6E2C4CD07FAD";
paths = (
{
closed = 1;
nodes = (
"510 -13 OFFCURVE",
"613 11 OFFCURVE",
"677 49 CURVE",
"677 244 LINE",
"665 251 LINE",
"617 228 OFFCURVE",
"554 210 OFFCURVE",
"476 210 CURVE SMOOTH",
"399 210 OFFCURVE",
"348 231 OFFCURVE",
"348 284 CURVE SMOOTH",
"348 327 OFFCURVE",
"384 356 OFFCURVE",
"477 356 CURVE SMOOTH",
"560 356 OFFCURVE",
"621 334 OFFCURVE",
"665 309 CURVE",
"677 316 LINE",
"677 511 LINE",
"615 554 OFFCURVE",
"507 578 OFFCURVE",
"401 578 CURVE SMOOTH",
"166 578 OFFCURVE",
"10 460 OFFCURVE",
"10 274 CURVE SMOOTH",
"10 105 OFFCURVE",
"138 -13 OFFCURVE",
"406 -13 CURVE SMOOTH"
);
}
);
width = 697;
},
{
anchors = (
{
name = bottom;
position = "{365, 0}";
},
{
name = top;
position = "{365, 565}";
}
);
layerId = "685D33D6-AC85-457D-AB31-6AFB1340D947";
paths = (
{
closed = 1;
nodes = (
"435 -13 OFFCURVE",
"529 12 OFFCURVE",
"577 47 CURVE",
"577 250 LINE",
"564 256 LINE",
"527 233 OFFCURVE",
"473 219 OFFCURVE",
"416 219 CURVE SMOOTH",
"347 219 OFFCURVE",
"301 240 OFFCURVE",
"301 283 CURVE SMOOTH",
"301 321 OFFCURVE",
"339 346 OFFCURVE",
"417 346 CURVE SMOOTH",
"468 346 OFFCURVE",
"526 335 OFFCURVE",
"566 308 CURVE",
"577 314 LINE",
"577 520 LINE",
"531 552 OFFCURVE",
"446 578 OFFCURVE",
"352 578 CURVE SMOOTH",
"146 578 OFFCURVE",
"10 473 OFFCURVE",
"10 284 CURVE SMOOTH",
"10 93 OFFCURVE",
"148 -13 OFFCURVE",
"344 -13 CURVE SMOOTH"
);
}
);
width = 597;
}
);
leftKerningGroup = c;
rightKerningGroup = c;
unicode = 0063;
},
{
glyphname = cdotaccent;
lastChange = "2023-06-01 23:09:55 +0000";
layers = (
{
layerId = "3B426CF6-0C00-48CC-B0F4-6E2C4CD07FAD";
paths = (
{
closed = 1;
nodes = (
"510 -13 OFFCURVE",
"613 11 OFFCURVE",
"677 49 CURVE",
"677 257 LINE",
"628 231 OFFCURVE",
"561 210 OFFCURVE",
"476 210 CURVE SMOOTH",
"396 210 OFFCURVE",
"348 226 OFFCURVE",
"348 284 CURVE SMOOTH",
"348 328 OFFCURVE",
"377 356 OFFCURVE",
"477 356 CURVE SMOOTH",
"568 356 OFFCURVE",
"633 330 OFFCURVE",
"677 302 CURVE",
"677 511 LINE",
"647 529 OFFCURVE",
"610 545 OFFCURVE",
"568 556 CURVE",
"537 527 OFFCURVE",
"477 512 OFFCURVE",
"396 511 CURVE SMOOTH",
"316 511 OFFCURVE",
"256 526 OFFCURVE",
"224 555 CURVE",
"92 516 OFFCURVE",
"10 427 OFFCURVE",
"10 284 CURVE SMOOTH",
"10 105 OFFCURVE",
"138 -13 OFFCURVE",
"406 -13 CURVE SMOOTH"
);
},
{
closed = 1;
nodes = (
"514 547 OFFCURVE",
"582 578 OFFCURVE",
"582 625 CURVE SMOOTH",
"582 675 OFFCURVE",
"506 703 OFFCURVE",
"396 703 CURVE SMOOTH",
"279 703 OFFCURVE",
"211 671 OFFCURVE",
"211 625 CURVE SMOOTH",
"211 575 OFFCURVE",
"287 547 OFFCURVE",
"396 547 CURVE SMOOTH"
);
}
);
width = 697;
},
{
layerId = "685D33D6-AC85-457D-AB31-6AFB1340D947";
paths = (
{
closed = 1;
nodes = (
"435 -13 OFFCURVE",
"529 12 OFFCURVE",
"577 47 CURVE",
"577 266 LINE",
"541 237 OFFCURVE",
"480 219 OFFCURVE",
"416 219 CURVE SMOOTH",
"350 219 OFFCURVE",
"301 234 OFFCURVE",
"301 283 CURVE SMOOTH",
"301 321 OFFCURVE",
"332 346 OFFCURVE",
"417 346 CURVE SMOOTH",
"472 346 OFFCURVE",
"537 333 OFFCURVE",
"577 300 CURVE",
"577 520 LINE",
"557 535 OFFCURVE",
"526 548 OFFCURVE",
"492 559 CURVE",
"463 533 OFFCURVE",
"417 518 OFFCURVE",
"359 519 CURVE SMOOTH",
"297 519 OFFCURVE",
"250 534 OFFCURVE",
"222 561 CURVE",
"91 522 OFFCURVE",
"10 425 OFFCURVE",
"10 282 CURVE SMOOTH",
"10 93 OFFCURVE",
"148 -13 OFFCURVE",
"344 -13 CURVE SMOOTH"
);
},
{
closed = 1;
nodes = (
"444 547 OFFCURVE",
"491 578 OFFCURVE",
"491 625 CURVE SMOOTH",
"491 675 OFFCURVE",
"439 703 OFFCURVE",
"361 703 CURVE SMOOTH",
"279 703 OFFCURVE",
"232 671 OFFCURVE",
"232 625 CURVE SMOOTH",
"232 575 OFFCURVE",
"285 547 OFFCURVE",
"361 547 CURVE SMOOTH"
);
}
);
width = 597;
}
);
leftKerningGroup = c;
rightKerningGroup = c;
unicode = 010B;
},
{
glyphname = d;
lastChange = "2023-05-30 20:56:30 +0000";
layers = (
{
anchors = (
{
name = bottom;
position = "{435, 0}";
},
{
name = center;
position = "{662, 623}";
},
{
name = top;
position = "{710, 690}";
},
{
name = topright;
position = "{803, 690}";
}
);
background = {
paths = (
{
closed = 1;
nodes = (
"10 104 OFFCURVE",
"105 -13 OFFCURVE",
"273 -13 CURVE SMOOTH",
"410 -13 OFFCURVE",
"506 69 OFFCURVE",
"519 224 CURVE",
"539 224 LINE",
"562 0 LINE",
"913 0 LINE",
"913 690 LINE",
"539 690 LINE",
"539 332 LINE",
"519 332 LINE",
"507 480 OFFCURVE",
"426 578 OFFCURVE",
"274 578 CURVE SMOOTH",
"116 578 OFFCURVE",
"10 470 OFFCURVE",
"10 280 CURVE SMOOTH"
);
},
{
closed = 1;
nodes = (
"400 306 OFFCURVE",
"418 325 OFFCURVE",
"449 325 CURVE SMOOTH",
"478 325 OFFCURVE",
"498 308 OFFCURVE",
"498 278 CURVE SMOOTH",
"498 250 OFFCURVE",
"480 231 OFFCURVE",
"449 231 CURVE SMOOTH",
"420 231 OFFCURVE",
"400 248 OFFCURVE",
"400 278 CURVE SMOOTH"
);
}
);
};
layerId = "3B426CF6-0C00-48CC-B0F4-6E2C4CD07FAD";
paths = (
{
closed = 1;
nodes = (
"426 -13 OFFCURVE",
"507 84 OFFCURVE",
"519 229 CURVE",
"555 229 LINE",
"555 336 LINE",
"519 336 LINE",
"507 481 OFFCURVE",
"426 578 OFFCURVE",
"274 578 CURVE SMOOTH",
"116 578 OFFCURVE",
"10 472 OFFCURVE",
"10 282 CURVE SMOOTH",
"10 93 OFFCURVE",
"116 -13 OFFCURVE",
"274 -13 CURVE SMOOTH"
);
},
{
closed = 1;
nodes = (
"402 230 OFFCURVE",
"382 252 OFFCURVE",
"382 283 CURVE SMOOTH",
"382 314 OFFCURVE",
"402 336 OFFCURVE",
"437 336 CURVE SMOOTH",
"470 336 OFFCURVE",
"492 316 OFFCURVE",
"492 283 CURVE SMOOTH",
"492 250 OFFCURVE",
"470 230 OFFCURVE",
"437 230 CURVE SMOOTH"
);
},
{
closed = 1;
nodes = (
"913 0 LINE",
"913 690 LINE",
"539 690 LINE",
"539 240 LINE",
"552 0 LINE"
);
}
);
width = 933;
},
{
anchors = (
{
name = bottom;
position = "{414, 0}";
},
{
name = center;
position = "{568, 623}";
},
{
name = top;
position = "{631, 733}";
},
{
name = topright;
position = "{777, 690}";
}
);
layerId = "685D33D6-AC85-457D-AB31-6AFB1340D947";
paths = (
{
closed = 1;
nodes = (
"431 -11 OFFCURVE",
"516 82 OFFCURVE",
"533 227 CURVE",
"573 227 LINE",
"573 340 LINE",
"533 340 LINE",
"516 485 OFFCURVE",
"431 577 OFFCURVE",
"272 577 CURVE SMOOTH",
"119 577 OFFCURVE",
"10 472 OFFCURVE",
"10 283 CURVE SMOOTH",
"10 94 OFFCURVE",
"119 -11 OFFCURVE",
"272 -11 CURVE SMOOTH"
);
},
{
closed = 1;
nodes = (
"413 231 OFFCURVE",
"393 252 OFFCURVE",
"393 283 CURVE SMOOTH",
"393 314 OFFCURVE",
"413 335 OFFCURVE",
"447 335 CURVE SMOOTH",
"479 335 OFFCURVE",
"501 315 OFFCURVE",
"501 283 CURVE SMOOTH",
"501 251 OFFCURVE",
"479 231 OFFCURVE",
"447 231 CURVE SMOOTH"
);
},
{
closed = 1;
nodes = (
"856 0 LINE",
"856 690 LINE",
"549 690 LINE",
"549 226 LINE",
"558 0 LINE"
);
}
);
width = 876;
}
);
leftKerningGroup = d;
leftMetricsKey = c;
rightMetricsKey = l;
unicode = 0064;
},
{
glyphname = eth;
lastChange = "2023-05-23 19:28:12 +0000";
layers = (
{
layerId = "3B426CF6-0C00-48CC-B0F4-6E2C4CD07FAD";
paths = (
{
closed = 1;
nodes = (
"653 -12 OFFCURVE",
"827 102 OFFCURVE",
"827 292 CURVE SMOOTH",
"827 440 OFFCURVE",
"679 598 OFFCURVE",
"457 684 CURVE",
"76 684 LINE",
"227 588 OFFCURVE",
"375 479 OFFCURVE",
"443 393 CURVE",
"438 389 LINE",
"382 431 OFFCURVE",
"329 444 OFFCURVE",
"271 444 CURVE SMOOTH",
"115 444 OFFCURVE",
"10 367 OFFCURVE",
"10 232 CURVE SMOOTH",
"10 85 OFFCURVE",
"164 -12 OFFCURVE",
"394 -12 CURVE SMOOTH"
);
},
{
closed = 1;
nodes = (
"375 235 OFFCURVE",
"353 252 OFFCURVE",
"353 278 CURVE SMOOTH",
"353 304 OFFCURVE",
"375 321 OFFCURVE",
"408 321 CURVE SMOOTH",
"441 321 OFFCURVE",
"463 304 OFFCURVE",
"463 278 CURVE SMOOTH",
"463 252 OFFCURVE",
"441 235 OFFCURVE",
"408 235 CURVE SMOOTH"
);
},
{
closed = 1;
nodes = (
"334 515 LINE",
"286 554 LINE",
"148 511 LINE",
"168 465 LINE"
);
},
{
closed = 1;
nodes = (
"751 644 LINE",
"730 690 LINE",
"543 632 LINE",
"601 598 LINE"
);
}
);
width = 837;
},
{
layerId = "685D33D6-AC85-457D-AB31-6AFB1340D947";
paths = (
{
closed = 1;
nodes = (
"566 -12 OFFCURVE",
"715 103 OFFCURVE",
"715 295 CURVE SMOOTH",
"715 446 OFFCURVE",
"587 604 OFFCURVE",
"396 692 CURVE",
"67 692 LINE",
"197 594 OFFCURVE",
"324 484 OFFCURVE",
"383 397 CURVE",
"379 393 LINE",
"331 436 OFFCURVE",
"285 449 OFFCURVE",
"235 449 CURVE SMOOTH",
"100 449 OFFCURVE",
"10 371 OFFCURVE",
"10 235 CURVE SMOOTH",
"10 86 OFFCURVE",
"143 -12 OFFCURVE",
"342 -12 CURVE SMOOTH"
);
},
{
closed = 1;
nodes = (
"324 238 OFFCURVE",
"306 255 OFFCURVE",
"306 281 CURVE SMOOTH",
"306 308 OFFCURVE",
"324 325 OFFCURVE",
"353 325 CURVE SMOOTH",
"382 325 OFFCURVE",
"401 308 OFFCURVE",
"401 281 CURVE SMOOTH",
"401 255 OFFCURVE",
"382 238 OFFCURVE",
"353 238 CURVE SMOOTH"
);
},
{
closed = 1;
nodes = (
"289 520 LINE",
"249 560 LINE",
"129 516 LINE",
"147 470 LINE"
);
},
{
closed = 1;
nodes = (
"649 650 LINE",
"631 698 LINE",
"469 638 LINE",
"520 604 LINE"
);
}
);
width = 725;
}
);
leftKerningGroup = d;
rightKerningGroup = b;
rightMetricsKey = b;
unicode = 00F0;
},
{
glyphname = e;
lastChange = "2023-05-30 21:03:07 +0000";
layers = (
{
anchors = (
{
name = "#entry";
position = "{5, 0}";
},
{
name = bottom;
position = "{391, 0}";
},
{
name = ogonek;
position = "{669, 16}";
},
{
name = top;
position = "{396, 565}";
}
);
background = {
paths = (
{
closed = 1;
nodes = (
"510 -13 OFFCURVE",
"613 11 OFFCURVE",
"677 49 CURVE",
"677 244 LINE",
"665 251 LINE",
"617 228 OFFCURVE",
"554 210 OFFCURVE",
"476 210 CURVE SMOOTH",
"396 210 OFFCURVE",
"348 226 OFFCURVE",
"348 284 CURVE SMOOTH",
"348 328 OFFCURVE",
"377 356 OFFCURVE",
"477 356 CURVE SMOOTH",
"560 356 OFFCURVE",
"621 334 OFFCURVE",
"665 309 CURVE",
"677 316 LINE",
"677 511 LINE",
"615 554 OFFCURVE",
"507 578 OFFCURVE",
"401 578 CURVE SMOOTH",
"166 578 OFFCURVE",
"10 460 OFFCURVE",
"10 274 CURVE SMOOTH",
"10 105 OFFCURVE",
"138 -13 OFFCURVE",
"406 -13 CURVE SMOOTH"
);
}
);
};
layerId = "3B426CF6-0C00-48CC-B0F4-6E2C4CD07FAD";
paths = (
{
closed = 1;
nodes = (
"569 -13 OFFCURVE",
"699 12 OFFCURVE",
"769 50 CURVE",
"769 245 LINE",
"759 253 LINE",
"693 235 OFFCURVE",
"618 223 OFFCURVE",
"532 223 CURVE SMOOTH",
"432 223 OFFCURVE",
"378 239 OFFCURVE",
"362 271 CURVE",
"768 271 LINE",
"769 281 OFFCURVE",
"770 297 OFFCURVE",
"770 309 CURVE SMOOTH",
"770 470 OFFCURVE",
"632 578 OFFCURVE",
"396 578 CURVE SMOOTH",
"164 578 OFFCURVE",
"10 460 OFFCURVE",
"10 273 CURVE SMOOTH",
"10 101 OFFCURVE",
"149 -13 OFFCURVE",
"444 -13 CURVE SMOOTH"
);
},
{
closed = 1;
nodes = (
"358 323 OFFCURVE",
"376 342 OFFCURVE",
"407 342 CURVE SMOOTH",
"432 342 OFFCURVE",
"454 328 OFFCURVE",
"457 297 CURVE",
"357 297 LINE"
);
}
);
width = 785;
},
{
anchors = (
{
name = "#entry";
position = "{5, 0}";
},
{
name = bottom;
position = "{335, 0}";
},
{
name = ogonek;
position = "{588, 17}";
},
{
name = top;
position = "{339, 565}";
}
);
layerId = "685D33D6-AC85-457D-AB31-6AFB1340D947";
paths = (
{
closed = 1;
nodes = (
"488 -13 OFFCURVE",
"600 12 OFFCURVE",
"657 50 CURVE",
"657 243 LINE",
"643 252 LINE",
"588 234 OFFCURVE",
"526 223 OFFCURVE",
"455 223 CURVE SMOOTH",
"368 223 OFFCURVE",
"323 239 OFFCURVE",
"311 271 CURVE",
"656 271 LINE",
"657 280 OFFCURVE",
"658 295 OFFCURVE",
"658 309 CURVE SMOOTH",
"658 470 OFFCURVE",
"560 578 OFFCURVE",
"339 578 CURVE SMOOTH",
"142 578 OFFCURVE",
"10 460 OFFCURVE",
"10 286 CURVE SMOOTH",
"10 90 OFFCURVE",
"147 -13 OFFCURVE",
"375 -13 CURVE SMOOTH"
);
},
{
closed = 1;
nodes = (
"307 323 OFFCURVE",
"321 342 OFFCURVE",
"348 342 CURVE SMOOTH",
"371 342 OFFCURVE",
"389 328 OFFCURVE",
"391 297 CURVE",
"306 297 LINE"
);
}
);
width = 673;
}
);
leftKerningGroup = c;
rightKerningGroup = e;
unicode = 0065;
},
{
glyphname = edieresis;
lastChange = "2023-05-24 14:25:01 +0000";
layers = (
{
layerId = "3B426CF6-0C00-48CC-B0F4-6E2C4CD07FAD";
paths = (
{
closed = 1;
nodes = (
"569 -13 OFFCURVE",
"699 12 OFFCURVE",
"769 50 CURVE",
"769 245 LINE",
"759 253 LINE",
"693 235 OFFCURVE",
"618 223 OFFCURVE",
"532 223 CURVE SMOOTH",
"432 223 OFFCURVE",
"378 239 OFFCURVE",
"362 271 CURVE",
"768 271 LINE",
"769 281 OFFCURVE",
"770 297 OFFCURVE",
"770 309 CURVE SMOOTH",
"770 398 OFFCURVE",
"733 470 OFFCURVE",
"659 517 CURVE",
"635 513 OFFCURVE",
"608 511 OFFCURVE",
"578 511 CURVE SMOOTH",
"488 511 OFFCURVE",
"422 532 OFFCURVE",
"397 570 CURVE",
"371 532 OFFCURVE",
"305 511 OFFCURVE",
"215 511 CURVE SMOOTH",
"185 511 OFFCURVE",
"158 513 OFFCURVE",
"134 518 CURVE",
"50 466 OFFCURVE",
"10 384 OFFCURVE",
"10 283 CURVE SMOOTH",
"10 105 OFFCURVE",
"149 -13 OFFCURVE",
"444 -13 CURVE SMOOTH"
);
},
{
closed = 1;
nodes = (
"358 323 OFFCURVE",
"376 342 OFFCURVE",
"407 342 CURVE SMOOTH",
"432 342 OFFCURVE",
"454 328 OFFCURVE",
"457 297 CURVE",
"357 297 LINE"
);
},
{
closed = 1;
nodes = (
"321 547 OFFCURVE",
"386 578 OFFCURVE",
"386 625 CURVE SMOOTH",
"386 675 OFFCURVE",
"314 703 OFFCURVE",
"211 703 CURVE SMOOTH",
"98 703 OFFCURVE",
"34 671 OFFCURVE",
"34 625 CURVE SMOOTH",
"34 575 OFFCURVE",
"105 547 OFFCURVE",
"211 547 CURVE SMOOTH"
);
},
{
closed = 1;
nodes = (
"693 547 OFFCURVE",
"757 578 OFFCURVE",
"757 625 CURVE SMOOTH",
"757 675 OFFCURVE",
"686 703 OFFCURVE",
"580 703 CURVE SMOOTH",
"470 703 OFFCURVE",
"405 671 OFFCURVE",
"405 625 CURVE SMOOTH",
"405 575 OFFCURVE",
"477 547 OFFCURVE",
"580 547 CURVE SMOOTH"
);
}
);
width = 785;
},
{
layerId = "685D33D6-AC85-457D-AB31-6AFB1340D947";
paths = (
{
closed = 1;
nodes = (
"488 -13 OFFCURVE",
"600 12 OFFCURVE",
"657 50 CURVE",
"657 243 LINE",
"643 252 LINE",
"588 234 OFFCURVE",
"526 223 OFFCURVE",
"455 223 CURVE SMOOTH",
"368 223 OFFCURVE",
"323 239 OFFCURVE",
"311 271 CURVE",
"656 271 LINE",
"657 280 OFFCURVE",
"658 295 OFFCURVE",
"658 309 CURVE SMOOTH",
"658 402 OFFCURVE",
"624 479 OFFCURVE",
"549 527 CURVE",
"528 522 OFFCURVE",
"503 519 OFFCURVE",
"477 519 CURVE SMOOTH",
"416 519 OFFCURVE",
"366 536 OFFCURVE",
"338 565 CURVE",
"310 536 OFFCURVE",
"261 519 OFFCURVE",
"199 519 CURVE SMOOTH",
"178 519 OFFCURVE",
"158 521 OFFCURVE",
"140 524 CURVE",
"56 471 OFFCURVE",
"10 384 OFFCURVE",
"10 283 CURVE SMOOTH",
"10 89 OFFCURVE",
"147 -13 OFFCURVE",
"375 -13 CURVE SMOOTH"
);
},
{
closed = 1;
nodes = (
"307 323 OFFCURVE",
"321 342 OFFCURVE",
"348 342 CURVE SMOOTH",
"371 342 OFFCURVE",
"389 328 OFFCURVE",
"391 297 CURVE",
"306 297 LINE"
);
},
{
closed = 1;
nodes = (
"284 547 OFFCURVE",
"331 578 OFFCURVE",
"331 625 CURVE SMOOTH",
"331 675 OFFCURVE",
"278 703 OFFCURVE",
"200 703 CURVE SMOOTH",
"116 703 OFFCURVE",
"68 671 OFFCURVE",
"68 625 CURVE SMOOTH",
"68 575 OFFCURVE",
"121 547 OFFCURVE",
"200 547 CURVE SMOOTH"
);
},
{
closed = 1;
nodes = (
"561 547 OFFCURVE",
"608 578 OFFCURVE",
"608 625 CURVE SMOOTH",
"608 675 OFFCURVE",
"555 703 OFFCURVE",
"476 703 CURVE SMOOTH",
"393 703 OFFCURVE",
"345 671 OFFCURVE",
"345 625 CURVE SMOOTH",
"345 575 OFFCURVE",
"398 547 OFFCURVE",
"476 547 CURVE SMOOTH"
);
}
);
width = 673;
}
);
leftKerningGroup = c;
rightKerningGroup = e;
unicode = 00EB;
},
{
glyphname = edotaccent;
lastChange = "2023-05-23 19:28:12 +0000";
layers = (
{
background = {
paths = (
{
closed = 1;
nodes = (
"198 674 OFFCURVE",
"273 711 OFFCURVE",
"396 711 CURVE SMOOTH",
"518 711 OFFCURVE",
"593 674 OFFCURVE",
"593 611 CURVE SMOOTH",
"593 547 OFFCURVE",
"518 512 OFFCURVE",
"396 511 CURVE SMOOTH",
"274 511 OFFCURVE",
"198 547 OFFCURVE",
"198 611 CURVE SMOOTH"
);
}
);
};
layerId = "3B426CF6-0C00-48CC-B0F4-6E2C4CD07FAD";
paths = (
{
closed = 1;
nodes = (
"569 -13 OFFCURVE",
"699 12 OFFCURVE",
"769 50 CURVE",
"769 245 LINE",
"759 253 LINE",
"693 235 OFFCURVE",
"618 223 OFFCURVE",
"532 223 CURVE SMOOTH",
"432 223 OFFCURVE",
"378 239 OFFCURVE",
"362 271 CURVE",
"768 271 LINE",
"769 281 OFFCURVE",
"770 297 OFFCURVE",
"770 309 CURVE SMOOTH",
"770 437 OFFCURVE",
"696 521 OFFCURVE",
"569 557 CURVE",
"537 527 OFFCURVE",
"477 512 OFFCURVE",
"396 511 CURVE SMOOTH",
"315 511 OFFCURVE",
"255 527 OFFCURVE",
"223 556 CURVE",
"86 517 OFFCURVE",
"10 424 OFFCURVE",
"10 283 CURVE SMOOTH",
"10 105 OFFCURVE",
"149 -13 OFFCURVE",
"444 -13 CURVE SMOOTH"
);
},
{
closed = 1;
nodes = (
"358 323 OFFCURVE",
"376 342 OFFCURVE",
"407 342 CURVE SMOOTH",
"432 342 OFFCURVE",
"454 328 OFFCURVE",
"457 297 CURVE",
"357 297 LINE"
);
},
{
closed = 1;
nodes = (
"514 547 OFFCURVE",
"582 578 OFFCURVE",
"582 625 CURVE SMOOTH",
"582 675 OFFCURVE",
"506 703 OFFCURVE",
"396 703 CURVE SMOOTH",
"279 703 OFFCURVE",
"211 671 OFFCURVE",
"211 625 CURVE SMOOTH",
"211 575 OFFCURVE",
"287 547 OFFCURVE",
"396 547 CURVE SMOOTH"
);
}
);
width = 785;
},
{
layerId = "685D33D6-AC85-457D-AB31-6AFB1340D947";
paths = (
{
closed = 1;
nodes = (
"488 -13 OFFCURVE",
"600 12 OFFCURVE",
"657 50 CURVE",
"657 243 LINE",
"643 252 LINE",
"588 234 OFFCURVE",
"526 223 OFFCURVE",
"455 223 CURVE SMOOTH",
"368 223 OFFCURVE",
"323 239 OFFCURVE",
"311 271 CURVE",
"656 271 LINE",
"657 280 OFFCURVE",
"658 295 OFFCURVE",
"658 309 CURVE SMOOTH",
"658 437 OFFCURVE",
"592 527 OFFCURVE",
"470 561 CURVE",
"442 533 OFFCURVE",
"395 518 OFFCURVE",
"334 519 CURVE SMOOTH",
"278 519 OFFCURVE",
"231 532 OFFCURVE",
"203 555 CURVE",
"84 511 OFFCURVE",
"10 409 OFFCURVE",
"10 283 CURVE SMOOTH",
"10 89 OFFCURVE",
"147 -13 OFFCURVE",
"375 -13 CURVE SMOOTH"
);
},
{
closed = 1;
nodes = (
"307 323 OFFCURVE",
"321 342 OFFCURVE",
"348 342 CURVE SMOOTH",
"371 342 OFFCURVE",
"389 328 OFFCURVE",
"391 297 CURVE",
"306 297 LINE"
);
},
{
closed = 1;
nodes = (
"422 547 OFFCURVE",
"468 578 OFFCURVE",
"468 625 CURVE SMOOTH",
"468 675 OFFCURVE",
"416 703 OFFCURVE",
"339 703 CURVE SMOOTH",
"257 703 OFFCURVE",
"210 671 OFFCURVE",
"210 625 CURVE SMOOTH",
"210 575 OFFCURVE",
"262 547 OFFCURVE",
"339 547 CURVE SMOOTH"
);
}
);
width = 673;
}
);
leftKerningGroup = c;
rightKerningGroup = e;
unicode = 0117;
},
{
glyphname = schwa;
lastChange = "2023-06-01 23:10:13 +0000";
layers = (
{
layerId = "685D33D6-AC85-457D-AB31-6AFB1340D947";
paths = (
{
closed = 1;
nodes = (
"545 -13 OFFCURVE",
"663 104 OFFCURVE",
"663 279 CURVE SMOOTH",
"663 475 OFFCURVE",
"526 578 OFFCURVE",
"298 578 CURVE SMOOTH",
"185 578 OFFCURVE",
"73 553 OFFCURVE",
"16 515 CURVE",
"16 322 LINE",
"30 313 LINE",
"85 331 OFFCURVE",
"147 342 OFFCURVE",
"218 342 CURVE SMOOTH",
"305 342 OFFCURVE",
"350 326 OFFCURVE",
"362 294 CURVE",
"17 294 LINE",
"16 285 OFFCURVE",
"15 270 OFFCURVE",
"15 256 CURVE SMOOTH",
"15 95 OFFCURVE",
"139 -13 OFFCURVE",
"324 -13 CURVE SMOOTH"
);
},
{
closed = 1;
nodes = (
"302 223 OFFCURVE",
"284 237 OFFCURVE",
"282 268 CURVE",
"367 268 LINE",
"366 242 OFFCURVE",
"352 223 OFFCURVE",
"325 223 CURVE SMOOTH"
);
}
);
width = 673;
},
{
layerId = "3B426CF6-0C00-48CC-B0F4-6E2C4CD07FAD";
paths = (
{
closed = 1;
nodes = (
"626 -13 OFFCURVE",
"775 102 OFFCURVE",
"775 288 CURVE SMOOTH",
"775 490 OFFCURVE",
"601 578 OFFCURVE",
"347 578 CURVE SMOOTH",
"215 578 OFFCURVE",
"89 554 OFFCURVE",
"16 515 CURVE",
"16 320 LINE",
"26 312 LINE",
"62 323 OFFCURVE",
"167 343 OFFCURVE",
"255 343 CURVE SMOOTH",
"348 343 OFFCURVE",
"414 321 OFFCURVE",
"423 294 CURVE",
"17 294 LINE",
"16 284 OFFCURVE",
"15 268 OFFCURVE",
"15 254 CURVE SMOOTH",
"15 87 OFFCURVE",
"151 -13 OFFCURVE",
"380 -13 CURVE SMOOTH"
);
},
{
closed = 1;
nodes = (
"353 223 OFFCURVE",
"331 237 OFFCURVE",
"328 268 CURVE",
"428 268 LINE",
"427 242 OFFCURVE",
"409 223 OFFCURVE",
"378 223 CURVE SMOOTH"
);
}
);
width = 785;
}
);
leftKerningGroup = c;
rightKerningGroup = o;
unicode = 0259;
},
{
glyphname = f;
lastChange = "2023-05-23 19:28:12 +0000";
layers = (
{
anchors = (
{
name = bottom;
position = "{331, 0}";
},
{
name = top;
position = "{331, 724}";
}
);
background = {
paths = (
{
closed = 1;
nodes = (
"489 0 LINE",
"489 225 LINE",
"646 225 LINE",
"646 460 LINE",
"488 460 LINE",
"488 468 LINE SMOOTH",
"488 499 OFFCURVE",
"511 509 OFFCURVE",
"563 509 CURVE SMOOTH",
"595 509 OFFCURVE",
"628 504 OFFCURVE",
"646 496 CURVE",
"646 671 LINE",
"607 689 OFFCURVE",
"516 703 OFFCURVE",
"425 703 CURVE SMOOTH",
"239 703 OFFCURVE",
"115 644 OFFCURVE",
"115 501 CURVE SMOOTH",
"115 460 LINE",
"15 460 LINE",
"15 225 LINE",
"115 225 LINE",
"115 0 LINE"
);
}
);
};
layerId = "3B426CF6-0C00-48CC-B0F4-6E2C4CD07FAD";
paths = (
{
closed = 1;
nodes = (
"489 0 LINE",
"489 225 LINE",
"646 225 LINE",
"646 460 LINE",
"488 460 LINE",
"488 468 LINE SMOOTH",
"488 499 OFFCURVE",
"511 509 OFFCURVE",
"563 509 CURVE SMOOTH",
"588 509 OFFCURVE",
"614 506 OFFCURVE",
"633 501 CURVE",
"646 508 LINE",
"646 671 LINE",
"607 689 OFFCURVE",
"516 703 OFFCURVE",
"425 703 CURVE SMOOTH",
"239 703 OFFCURVE",
"115 644 OFFCURVE",
"115 501 CURVE SMOOTH",
"115 460 LINE",
"15 460 LINE",
"15 225 LINE",
"115 225 LINE",
"115 0 LINE"
);
}
);
width = 661;
},
{
anchors = (
{
name = bottom;
position = "{275, 0}";
},
{
name = top;
position = "{275, 724}";
}
);
layerId = "685D33D6-AC85-457D-AB31-6AFB1340D947";
paths = (
{
closed = 1;
nodes = (
"404 0 LINE",
"404 225 LINE",
"534 225 LINE",
"534 460 LINE",
"404 460 LINE",
"404 473 LINE SMOOTH",
"406 508 OFFCURVE",
"429 514 OFFCURVE",
"469 514 CURVE SMOOTH",
"491 514 OFFCURVE",
"514 511 OFFCURVE",
"528 506 CURVE",
"534 511 LINE",
"534 680 LINE",
"496 694 OFFCURVE",
"429 703 OFFCURVE",
"363 703 CURVE SMOOTH",
"225 703 OFFCURVE",
"98 659 OFFCURVE",
"98 506 CURVE SMOOTH",
"98 460 LINE",
"15 460 LINE",
"15 225 LINE",
"98 225 LINE",
"98 0 LINE"
);
}
);
width = 549;
}
);
leftKerningGroup = f;
rightKerningGroup = f;
unicode = 0066;
},
{
glyphname = g;
lastChange = "2023-05-23 19:28:12 +0000";
layers = (
{
anchors = (
{
name = bottom;
position = "{455, -260}";
},
{
name = top;
position = "{455, 565}";
}
);
background = {
paths = (
{
closed = 1;
nodes = (
"675 -139 OFFCURVE",
"913 -46 OFFCURVE",
"913 194 CURVE SMOOTH",
"913 565 LINE",
"562 565 LINE",
"539 392 LINE",
"519 392 LINE",
"506 512 OFFCURVE",
"410 578 OFFCURVE",
"273 578 CURVE SMOOTH",
"111 578 OFFCURVE",
"10 487 OFFCURVE",
"10 345 CURVE SMOOTH",
"10 199 OFFCURVE",
"116 110 OFFCURVE",
"274 110 CURVE SMOOTH",
"426 110 OFFCURVE",
"507 192 OFFCURVE",
"519 304 CURVE",
"539 304 LINE",
"539 236 LINE SMOOTH",
"539 151 OFFCURVE",
"483 82 OFFCURVE",
"267 82 CURVE SMOOTH",
"202 82 OFFCURVE",
"127 91 OFFCURVE",
"77 111 CURVE",
"77 -99 LINE",
"133 -121 OFFCURVE",
"235 -138 OFFCURVE",
"344 -138 CURVE SMOOTH"
);
},
{
closed = 1;
nodes = (
"418 308 OFFCURVE",
"400 325 OFFCURVE",
"400 347 CURVE SMOOTH",
"400 372 OFFCURVE",
"420 386 OFFCURVE",
"449 386 CURVE SMOOTH",
"480 386 OFFCURVE",
"498 371 OFFCURVE",
"498 347 CURVE SMOOTH",
"498 323 OFFCURVE",
"478 308 OFFCURVE",
"449 308 CURVE SMOOTH"
);
}
);
};
layerId = "3B426CF6-0C00-48CC-B0F4-6E2C4CD07FAD";
paths = (
{
closed = 1;
nodes = (
"675 -139 OFFCURVE",
"913 -46 OFFCURVE",
"913 194 CURVE SMOOTH",
"913 565 LINE",
"562 565 LINE",
"539 392 LINE",
"519 392 LINE",
"506 512 OFFCURVE",
"410 578 OFFCURVE",
"273 578 CURVE SMOOTH",
"111 578 OFFCURVE",
"10 487 OFFCURVE",
"10 345 CURVE SMOOTH",
"10 199 OFFCURVE",
"116 110 OFFCURVE",
"274 110 CURVE SMOOTH",
"426 110 OFFCURVE",
"507 192 OFFCURVE",
"519 304 CURVE",
"539 304 LINE",
"539 236 LINE SMOOTH",
"539 151 OFFCURVE",
"483 82 OFFCURVE",
"267 82 CURVE SMOOTH",
"206 82 OFFCURVE",
"137 90 OFFCURVE",
"88 107 CURVE",
"77 98 LINE",
"77 -99 LINE",
"133 -121 OFFCURVE",
"235 -138 OFFCURVE",
"344 -138 CURVE SMOOTH"
);
},
{
closed = 1;
nodes = (
"418 308 OFFCURVE",
"400 325 OFFCURVE",
"400 347 CURVE SMOOTH",
"400 372 OFFCURVE",
"420 386 OFFCURVE",
"449 386 CURVE SMOOTH",
"480 386 OFFCURVE",
"498 371 OFFCURVE",
"498 347 CURVE SMOOTH",
"498 323 OFFCURVE",
"478 308 OFFCURVE",
"449 308 CURVE SMOOTH"
);
}
);
width = 933;
},
{
anchors = (
{
name = bottom;
position = "{398, -260}";
},
{
name = top;
position = "{398, 565}";
}
);
layerId = "685D33D6-AC85-457D-AB31-6AFB1340D947";
paths = (
{
closed = 1;
nodes = (
"565 -138 OFFCURVE",
"776 -61 OFFCURVE",
"776 194 CURVE SMOOTH",
"776 565 LINE",
"488 565 LINE",
"469 391 LINE",
"454 391 LINE",
"442 510 OFFCURVE",
"360 577 OFFCURVE",
"239 577 CURVE SMOOTH",
"97 577 OFFCURVE",
"10 485 OFFCURVE",
"10 344 CURVE SMOOTH",
"10 195 OFFCURVE",
"102 109 OFFCURVE",
"240 109 CURVE SMOOTH",
"374 109 OFFCURVE",
"443 190 OFFCURVE",
"454 302 CURVE",
"469 302 LINE",
"469 232 LINE SMOOTH",
"469 117 OFFCURVE",
"403 82 OFFCURVE",
"253 82 CURVE SMOOTH",
"197 82 OFFCURVE",
"128 95 OFFCURVE",
"82 115 CURVE",
"71 107 LINE",
"75 -99 LINE",
"136 -124 OFFCURVE",
"229 -138 OFFCURVE",
"329 -138 CURVE SMOOTH"
);
},
{
closed = 1;
nodes = (
"366 308 OFFCURVE",
"350 323 OFFCURVE",
"350 346 CURVE SMOOTH",
"350 371 OFFCURVE",
"368 385 OFFCURVE",
"393 385 CURVE SMOOTH",
"420 385 OFFCURVE",
"436 369 OFFCURVE",
"436 346 CURVE SMOOTH",
"436 321 OFFCURVE",
"418 308 OFFCURVE",
"393 308 CURVE SMOOTH"
);
}
);
width = 796;
}
);
leftKerningGroup = d;
unicode = 0067;
},
{
glyphname = gbreve;
lastChange = "2023-06-01 23:10:20 +0000";
layers = (
{
layerId = "3B426CF6-0C00-48CC-B0F4-6E2C4CD07FAD";
paths = (
{
closed = 1;
nodes = (
"675 -139 OFFCURVE",
"913 -46 OFFCURVE",
"913 194 CURVE SMOOTH",
"913 565 LINE",
"699 565 LINE",
"661 547 OFFCURVE",
"614 535 OFFCURVE",
"557 528 CURVE",
"539 392 LINE",
"519 392 LINE",
"513 448 OFFCURVE",
"489 492 OFFCURVE",
"451 523 CURVE",
"344 523 OFFCURVE",
"259 540 OFFCURVE",
"200 571 CURVE",
"81 548 OFFCURVE",
"10 464 OFFCURVE",
"10 345 CURVE SMOOTH",
"10 199 OFFCURVE",
"116 110 OFFCURVE",
"274 110 CURVE SMOOTH",
"426 110 OFFCURVE",
"507 192 OFFCURVE",
"519 304 CURVE",
"539 304 LINE",
"539 236 LINE SMOOTH",
"539 151 OFFCURVE",
"483 82 OFFCURVE",
"267 82 CURVE SMOOTH",
"206 82 OFFCURVE",
"137 90 OFFCURVE",
"88 107 CURVE",
"77 98 LINE",
"77 -99 LINE",
"133 -121 OFFCURVE",
"235 -138 OFFCURVE",
"344 -138 CURVE SMOOTH"
);
},
{
closed = 1;
nodes = (
"418 308 OFFCURVE",
"400 325 OFFCURVE",
"400 347 CURVE SMOOTH",
"400 372 OFFCURVE",
"420 386 OFFCURVE",
"449 386 CURVE SMOOTH",
"480 386 OFFCURVE",
"498 371 OFFCURVE",
"498 347 CURVE SMOOTH",
"498 323 OFFCURVE",
"478 308 OFFCURVE",
"449 308 CURVE SMOOTH"
);
},
{
closed = 1;
nodes = (
"644 559 OFFCURVE",
"751 608 OFFCURVE",
"766 690 CURVE",
"510 690 LINE",
"510 669 OFFCURVE",
"490 654 OFFCURVE",
"455 654 CURVE SMOOTH",
"423 654 OFFCURVE",
"401 667 OFFCURVE",
"401 690 CURVE",
"144 690 LINE",
"158 608 OFFCURVE",
"271 559 OFFCURVE",
"455 559 CURVE SMOOTH"
);
}
);
width = 933;
},
{
layerId = "685D33D6-AC85-457D-AB31-6AFB1340D947";
paths = (
{
closed = 1;
nodes = (
"565 -138 OFFCURVE",
"776 -61 OFFCURVE",
"776 194 CURVE SMOOTH",
"776 565 LINE",
"578 565 LINE",
"551 552 OFFCURVE",
"520 543 OFFCURVE",
"486 537 CURVE",
"469 391 LINE",
"454 391 LINE",
"448 452 OFFCURVE",
"424 498 OFFCURVE",
"385 531 CURVE",
"309 532 OFFCURVE",
"244 546 OFFCURVE",
"195 574 CURVE",
"80 556 OFFCURVE",
"10 469 OFFCURVE",
"10 344 CURVE SMOOTH",
"10 195 OFFCURVE",
"102 109 OFFCURVE",
"240 109 CURVE SMOOTH",
"374 109 OFFCURVE",
"443 190 OFFCURVE",
"454 302 CURVE",
"469 302 LINE",
"469 232 LINE SMOOTH",
"469 117 OFFCURVE",
"403 82 OFFCURVE",
"253 82 CURVE SMOOTH",
"197 82 OFFCURVE",
"128 95 OFFCURVE",
"82 115 CURVE",
"71 107 LINE",
"75 -99 LINE",
"136 -124 OFFCURVE",
"229 -138 OFFCURVE",
"329 -138 CURVE SMOOTH"
);
},
{
closed = 1;
nodes = (
"366 308 OFFCURVE",
"350 323 OFFCURVE",
"350 346 CURVE SMOOTH",
"350 371 OFFCURVE",
"368 385 OFFCURVE",
"393 385 CURVE SMOOTH",
"420 385 OFFCURVE",
"436 369 OFFCURVE",
"436 346 CURVE SMOOTH",
"436 321 OFFCURVE",
"418 308 OFFCURVE",
"393 308 CURVE SMOOTH"
);
},
{
closed = 1;
nodes = (
"540 559 OFFCURVE",
"646 612 OFFCURVE",
"652 690 CURVE",
"439 690 LINE",
"436 667 OFFCURVE",
"426 654 OFFCURVE",
"398 654 CURVE SMOOTH",
"368 654 OFFCURVE",
"359 667 OFFCURVE",
"356 690 CURVE",
"143 690 LINE",
"149 612 OFFCURVE",
"254 559 OFFCURVE",
"398 559 CURVE SMOOTH"
);
}
);
width = 796;
}
);
leftKerningGroup = d;
unicode = 011F;
},
{
glyphname = gdotaccent;
lastChange = "2023-06-01 23:10:20 +0000";
layers = (
{
layerId = "3B426CF6-0C00-48CC-B0F4-6E2C4CD07FAD";
paths = (
{
closed = 1;
nodes = (
"675 -139 OFFCURVE",
"913 -46 OFFCURVE",
"913 194 CURVE SMOOTH",
"913 565 LINE",
"636 565 LINE",
"620 546 OFFCURVE",
"593 531 OFFCURVE",
"556 522 CURVE",
"539 392 LINE",
"519 392 LINE",
"514 441 OFFCURVE",
"495 481 OFFCURVE",
"464 511 CURVE",
"455 511 LINE SMOOTH",
"356 511 OFFCURVE",
"287 535 OFFCURVE",
"265 578 CURVE",
"108 575 OFFCURVE",
"10 485 OFFCURVE",
"10 345 CURVE SMOOTH",
"10 199 OFFCURVE",
"116 110 OFFCURVE",
"274 110 CURVE SMOOTH",
"426 110 OFFCURVE",
"507 192 OFFCURVE",
"519 304 CURVE",
"539 304 LINE",
"539 236 LINE SMOOTH",
"539 151 OFFCURVE",
"483 82 OFFCURVE",
"267 82 CURVE SMOOTH",
"206 82 OFFCURVE",
"137 90 OFFCURVE",
"88 107 CURVE",
"77 98 LINE",
"77 -99 LINE",
"133 -121 OFFCURVE",
"235 -138 OFFCURVE",
"344 -138 CURVE SMOOTH"
);
},
{
closed = 1;
nodes = (
"418 308 OFFCURVE",
"400 325 OFFCURVE",
"400 347 CURVE SMOOTH",
"400 372 OFFCURVE",
"420 386 OFFCURVE",
"449 386 CURVE SMOOTH",
"480 386 OFFCURVE",
"498 371 OFFCURVE",
"498 347 CURVE SMOOTH",
"498 323 OFFCURVE",
"478 308 OFFCURVE",
"449 308 CURVE SMOOTH"
);
},
{
closed = 1;
nodes = (
"573 547 OFFCURVE",
"641 578 OFFCURVE",
"641 625 CURVE SMOOTH",
"641 675 OFFCURVE",
"565 703 OFFCURVE",
"455 703 CURVE SMOOTH",
"338 703 OFFCURVE",
"270 671 OFFCURVE",
"270 625 CURVE SMOOTH",
"270 575 OFFCURVE",
"346 547 OFFCURVE",
"455 547 CURVE SMOOTH"
);
}
);
width = 933;
},
{
layerId = "685D33D6-AC85-457D-AB31-6AFB1340D947";
paths = (
{
closed = 1;
nodes = (
"565 -138 OFFCURVE",
"776 -61 OFFCURVE",
"776 194 CURVE SMOOTH",
"776 565 LINE",
"537 565 LINE",
"524 551 OFFCURVE",
"507 540 OFFCURVE",
"485 532 CURVE",
"469 391 LINE",
"454 391 LINE",
"449 445 OFFCURVE",
"429 487 OFFCURVE",
"398 519 CURVE",
"398 519 LINE SMOOTH",
"326 519 OFFCURVE",
"272 540 OFFCURVE",
"248 577 CURVE",
"98 578 OFFCURVE",
"10 485 OFFCURVE",
"10 344 CURVE SMOOTH",
"10 195 OFFCURVE",
"102 109 OFFCURVE",
"240 109 CURVE SMOOTH",
"374 109 OFFCURVE",
"443 190 OFFCURVE",
"454 302 CURVE",
"469 302 LINE",
"469 232 LINE SMOOTH",
"469 117 OFFCURVE",
"403 82 OFFCURVE",
"253 82 CURVE SMOOTH",
"197 82 OFFCURVE",
"128 95 OFFCURVE",
"82 115 CURVE",
"71 107 LINE",
"75 -99 LINE",
"136 -124 OFFCURVE",
"229 -138 OFFCURVE",
"329 -138 CURVE SMOOTH"
);
},
{
closed = 1;
nodes = (
"366 308 OFFCURVE",
"350 323 OFFCURVE",
"350 346 CURVE SMOOTH",
"350 371 OFFCURVE",
"368 385 OFFCURVE",
"393 385 CURVE SMOOTH",
"420 385 OFFCURVE",
"436 369 OFFCURVE",
"436 346 CURVE SMOOTH",
"436 321 OFFCURVE",
"418 308 OFFCURVE",
"393 308 CURVE SMOOTH"
);
},
{
closed = 1;
nodes = (
"481 547 OFFCURVE",
"527 578 OFFCURVE",
"527 625 CURVE SMOOTH",
"527 675 OFFCURVE",
"475 703 OFFCURVE",
"398 703 CURVE SMOOTH",
"316 703 OFFCURVE",
"269 671 OFFCURVE",
"269 625 CURVE SMOOTH",
"269 575 OFFCURVE",
"321 547 OFFCURVE",
"398 547 CURVE SMOOTH"
);
}
);
width = 796;
}
);
leftKerningGroup = d;
unicode = 0121;
},
{
glyphname = h;
lastChange = "2023-05-31 06:25:13 +0000";
layers = (
{
anchors = (
{
name = bottom;
position = "{439, 0}";
},
{
name = center;
position = "{282, 623}";
},
{
name = top;
position = "{207, 690}";
}
);
background = {
paths = (
{
closed = 1;
nodes = (
"394 0 LINE",
"394 270 LINE SMOOTH",
"394 302 OFFCURVE",
"405 322 OFFCURVE",
"439 322 CURVE SMOOTH",
"466 322 OFFCURVE",
"484 310 OFFCURVE",
"484 270 CURVE SMOOTH",
"484 0 LINE",
"858 0 LINE",
"858 362 LINE SMOOTH",
"858 503 OFFCURVE",
"793 578 OFFCURVE",
"640 578 CURVE SMOOTH",
"518 578 OFFCURVE",
"428 519 OFFCURVE",
"406 336 CURVE",
"394 336 LINE",
"394 690 LINE",
"20 690 LINE",
"20 0 LINE"
);
}
);
};
layerId = "3B426CF6-0C00-48CC-B0F4-6E2C4CD07FAD";
paths = (
{
closed = 1;
nodes = (
"394 0 LINE",
"394 270 LINE SMOOTH",
"394 302 OFFCURVE",
"405 322 OFFCURVE",
"439 322 CURVE SMOOTH",
"466 322 OFFCURVE",
"484 310 OFFCURVE",
"484 270 CURVE SMOOTH",
"484 0 LINE",
"858 0 LINE",
"858 342 LINE SMOOTH",
"858 501 OFFCURVE",
"781 578 OFFCURVE",
"638 578 CURVE SMOOTH",
"517 578 OFFCURVE",
"430 527 OFFCURVE",
"414 356 CURVE",
"394 356 LINE",
"394 690 LINE",
"20 690 LINE",
"20 0 LINE"
);
}
);
width = 878;
},
{
anchors = (
{
name = bottom;
position = "{365, 0}";
},
{
name = center;
position = "{230, 623}";
},
{
name = top;
position = "{423, 733}";
}
);
layerId = "685D33D6-AC85-457D-AB31-6AFB1340D947";
paths = (
{
closed = 1;
nodes = (
"327 0 LINE",
"327 263 LINE SMOOTH",
"327 303 OFFCURVE",
"336 323 OFFCURVE",
"365 323 CURVE SMOOTH",
"389 323 OFFCURVE",
"404 311 OFFCURVE",
"404 263 CURVE SMOOTH",
"404 0 LINE",
"711 0 LINE",
"711 372 LINE SMOOTH",
"711 511 OFFCURVE",
"655 578 OFFCURVE",
"533 578 CURVE SMOOTH",
"418 578 OFFCURVE",
"346 530 OFFCURVE",
"344 356 CURVE",
"327 356 LINE",
"327 690 LINE",
"20 690 LINE",
"20 0 LINE"
);
}
);
width = 731;
}
);
leftKerningGroup = l;
rightKerningGroup = n;
unicode = 0068;
},
{
glyphname = i;
lastChange = "2023-05-30 16:45:28 +0000";
layers = (
{
anchors = (
{
name = bottom;
position = "{206, 0}";
},
{
name = ogonek;
position = "{304, 0}";
},
{
name = top;
position = "{206, 690}";
}
);
background = {
paths = (
{
closed = 1;
nodes = (
"393 0 LINE",
"393 446 LINE",
"357 411 OFFCURVE",
"287 393 OFFCURVE",
"206 393 CURVE SMOOTH",
"120 393 OFFCURVE",
"50 415 OFFCURVE",
"19 446 CURVE",
"19 0 LINE"
);
},
{
closed = 1;
nodes = (
"321 426 OFFCURVE",
"398 463 OFFCURVE",
"398 558 CURVE SMOOTH",
"398 638 OFFCURVE",
"344 690 OFFCURVE",
"206 690 CURVE SMOOTH",
"91 690 OFFCURVE",
"14 654 OFFCURVE",
"14 558 CURVE SMOOTH",
"14 479 OFFCURVE",
"68 426 OFFCURVE",
"206 426 CURVE SMOOTH"
);
}
);
};
layerId = "3B426CF6-0C00-48CC-B0F4-6E2C4CD07FAD";
paths = (
{
closed = 1;
nodes = (
"393 0 LINE",
"393 560 LINE",
"360 527 OFFCURVE",
"289 510 OFFCURVE",
"206 510 CURVE SMOOTH",
"119 510 OFFCURVE",
"47 530 OFFCURVE",
"19 560 CURVE",
"19 0 LINE"
);
},
{
closed = 1;
nodes = (
"324 546 OFFCURVE",
"392 577 OFFCURVE",
"392 624 CURVE SMOOTH",
"392 674 OFFCURVE",
"316 702 OFFCURVE",
"206 702 CURVE SMOOTH",
"89 702 OFFCURVE",
"21 670 OFFCURVE",
"21 624 CURVE SMOOTH",
"21 574 OFFCURVE",
"97 546 OFFCURVE",
"206 546 CURVE SMOOTH"
);
}
);
width = 412;
},
{
anchors = (
{
name = bottom;
position = "{174, 0}";
},
{
name = ogonek;
position = "{269, 0}";
},
{
name = top;
position = "{174, 690}";
}
);
layerId = "685D33D6-AC85-457D-AB31-6AFB1340D947";
paths = (
{
closed = 1;
nodes = (
"327 0 LINE",
"327 558 LINE",
"299 532 OFFCURVE",
"244 516 OFFCURVE",
"174 516 CURVE SMOOTH",
"104 516 OFFCURVE",
"50 531 OFFCURVE",
"20 558 CURVE",
"20 0 LINE"
);
},
{
closed = 1;
nodes = (
"275 547 OFFCURVE",
"332 578 OFFCURVE",
"332 625 CURVE SMOOTH",
"332 675 OFFCURVE",
"269 703 OFFCURVE",
"174 703 CURVE SMOOTH",
"73 703 OFFCURVE",
"15 671 OFFCURVE",
"15 625 CURVE SMOOTH",
"15 575 OFFCURVE",
"80 547 OFFCURVE",
"174 547 CURVE SMOOTH"
);
}
);
width = 347;
}
);
leftKerningGroup = i;
rightKerningGroup = i;
unicode = 0069;
},
{
glyphname = idotless;
lastChange = "2023-05-23 19:28:12 +0000";
layers = (
{
anchors = (
{
name = bottom;
position = "{207, 0}";
},
{
name = center;
position = "{189, 283}";
},
{
name = ogonek;
position = "{297, 0}";
},
{
name = top;
position = "{207, 565}";
},
{
name = topright;
position = "{394, 565}";
}
);
layerId = "3B426CF6-0C00-48CC-B0F4-6E2C4CD07FAD";
paths = (
{
closed = 1;
nodes = (
"394 0 LINE",
"394 565 LINE",
"20 565 LINE",
"20 0 LINE"
);
}
);
width = 414;
},
{
anchors = (
{
name = bottom;
position = "{173, 0}";
},
{
name = center;
position = "{178, 283}";
},
{
name = ogonek;
position = "{271, 0}";
},
{
name = top;
position = "{173, 565}";
},
{
name = topright;
position = "{327, 565}";
}
);
layerId = "685D33D6-AC85-457D-AB31-6AFB1340D947";
paths = (
{
closed = 1;
nodes = (
"327 0 LINE",
"327 565 LINE",
"20 565 LINE",
"20 0 LINE"
);
}
);
width = 347;
}
);
leftKerningGroup = idotless;
unicode = 0131;
},
{
glyphname = idieresis;
lastChange = "2023-06-01 23:11:05 +0000";
layers = (
{
anchors = (
{
name = bottom;
position = "{207, 0}";
},
{
name = center;
position = "{189, 283}";
},
{
name = ogonek;
position = "{297, 0}";
},
{
name = top;
position = "{207, 565}";
},
{
name = topright;
position = "{394, 565}";
}
);
background = {
paths = (
{
closed = 1;
nodes = (
"141 511 OFFCURVE",
"216 548 OFFCURVE",
"216 611 CURVE SMOOTH",
"216 674 OFFCURVE",
"141 711 OFFCURVE",
"22 711 CURVE SMOOTH",
"-99 711 OFFCURVE",
"-175 674 OFFCURVE",
"-175 611 CURVE SMOOTH",
"-175 548 OFFCURVE",
"-100 511 OFFCURVE",
"22 511 CURVE SMOOTH"
);
},
{
closed = 1;
nodes = (
"506 511 OFFCURVE",
"582 547 OFFCURVE",
"582 611 CURVE SMOOTH",
"582 674 OFFCURVE",
"507 711 OFFCURVE",
"385 711 CURVE SMOOTH",
"268 711 OFFCURVE",
"191 674 OFFCURVE",
"191 611 CURVE SMOOTH",
"191 548 OFFCURVE",
"266 511 OFFCURVE",
"385 511 CURVE SMOOTH"
);
}
);
};
layerId = "3B426CF6-0C00-48CC-B0F4-6E2C4CD07FAD";
paths = (
{
closed = 1;
nodes = (
"391 0 LINE",
"391 511 LINE",
"385 511 LINE SMOOTH",
"295 511 OFFCURVE",
"229 532 OFFCURVE",
"204 565 CURVE",
"178 532 OFFCURVE",
"112 511 OFFCURVE",
"22 511 CURVE SMOOTH",
"17 511 LINE",
"17 0 LINE"
);
},
{
closed = 1;
nodes = (
"132 547 OFFCURVE",
"197 578 OFFCURVE",
"197 625 CURVE SMOOTH",
"197 675 OFFCURVE",
"125 703 OFFCURVE",
"22 703 CURVE SMOOTH",
"-91 703 OFFCURVE",
"-155 671 OFFCURVE",
"-155 625 CURVE SMOOTH",
"-155 575 OFFCURVE",
"-84 547 OFFCURVE",
"22 547 CURVE SMOOTH"
);
},
{
closed = 1;
nodes = (
"504 547 OFFCURVE",
"568 578 OFFCURVE",
"568 625 CURVE SMOOTH",
"568 675 OFFCURVE",
"497 703 OFFCURVE",
"391 703 CURVE SMOOTH",
"281 703 OFFCURVE",
"216 671 OFFCURVE",
"216 625 CURVE SMOOTH",
"216 575 OFFCURVE",
"288 547 OFFCURVE",
"391 547 CURVE SMOOTH"
);
}
);
width = 414;
},
{
anchors = (
{
name = bottom;
position = "{173, 0}";
},
{
name = center;
position = "{178, 283}";
},
{
name = ogonek;
position = "{271, 0}";
},
{
name = top;
position = "{173, 565}";
},
{
name = topright;
position = "{327, 565}";
}
);
layerId = "685D33D6-AC85-457D-AB31-6AFB1340D947";
paths = (
{
closed = 1;
nodes = (
"327 0 LINE",
"327 516 LINE",
"313 516 LINE SMOOTH",
"253 516 OFFCURVE",
"202 531 OFFCURVE",
"174 571 CURVE",
"146 531 OFFCURVE",
"95 516 OFFCURVE",
"35 516 CURVE SMOOTH",
"21 516 LINE",
"21 0 LINE"
);
},
{
closed = 1;
nodes = (
"118 547 OFFCURVE",
"166 578 OFFCURVE",
"166 625 CURVE SMOOTH",
"166 675 OFFCURVE",
"113 703 OFFCURVE",
"35 703 CURVE SMOOTH",
"-50 703 OFFCURVE",
"-98 671 OFFCURVE",
"-98 625 CURVE SMOOTH",
"-98 575 OFFCURVE",
"-44 547 OFFCURVE",
"35 547 CURVE SMOOTH"
);
},
{
closed = 1;
nodes = (
"395 547 OFFCURVE",
"443 578 OFFCURVE",
"443 625 CURVE SMOOTH",
"443 675 OFFCURVE",
"390 703 OFFCURVE",
"311 703 CURVE SMOOTH",
"227 703 OFFCURVE",
"180 671 OFFCURVE",
"180 625 CURVE SMOOTH",
"180 575 OFFCURVE",
"233 547 OFFCURVE",
"311 547 CURVE SMOOTH"
);
}
);
width = 347;
}
);
leftKerningGroup = idotless;
rightKerningGroup = i;
unicode = 00EF;
},
{
glyphname = j;
lastChange = "2023-05-23 19:28:12 +0000";
layers = (
{
background = {
paths = (
{
closed = 1;
nodes = (
"314 -138 OFFCURVE",
"393 -63 OFFCURVE",
"393 70 CURVE SMOOTH",
"393 446 LINE",
"357 411 OFFCURVE",
"287 393 OFFCURVE",
"206 393 CURVE SMOOTH",
"120 393 OFFCURVE",
"50 415 OFFCURVE",
"19 446 CURVE",
"19 48 LINE SMOOTH",
"19 -6 OFFCURVE",
"-2 -21 OFFCURVE",
"-55 -23 CURVE",
"-55 -115 LINE",
"-25 -129 OFFCURVE",
"41 -138 OFFCURVE",
"111 -138 CURVE SMOOTH"
);
},
{
closed = 1;
nodes = (
"321 426 OFFCURVE",
"398 463 OFFCURVE",
"398 558 CURVE SMOOTH",
"398 638 OFFCURVE",
"344 690 OFFCURVE",
"206 690 CURVE SMOOTH",
"91 690 OFFCURVE",
"14 654 OFFCURVE",
"14 558 CURVE SMOOTH",
"14 479 OFFCURVE",
"68 426 OFFCURVE",
"206 426 CURVE SMOOTH"
);
}
);
};
layerId = "3B426CF6-0C00-48CC-B0F4-6E2C4CD07FAD";
paths = (
{
closed = 1;
nodes = (
"314 -138 OFFCURVE",
"393 -63 OFFCURVE",
"393 70 CURVE SMOOTH",
"393 560 LINE",
"360 527 OFFCURVE",
"289 510 OFFCURVE",
"206 510 CURVE SMOOTH",
"119 510 OFFCURVE",
"47 530 OFFCURVE",
"19 560 CURVE",
"19 48 LINE SMOOTH",
"19 -6 OFFCURVE",
"-2 -21 OFFCURVE",
"-55 -23 CURVE",
"-55 -115 LINE",
"-25 -129 OFFCURVE",
"41 -138 OFFCURVE",
"111 -138 CURVE SMOOTH"
);
},
{
closed = 1;
nodes = (
"324 546 OFFCURVE",
"392 577 OFFCURVE",
"392 624 CURVE SMOOTH",
"392 674 OFFCURVE",
"316 702 OFFCURVE",
"206 702 CURVE SMOOTH",
"89 702 OFFCURVE",
"21 670 OFFCURVE",
"21 624 CURVE SMOOTH",
"21 574 OFFCURVE",
"97 546 OFFCURVE",
"206 546 CURVE SMOOTH"
);
}
);
width = 412;
},
{
layerId = "685D33D6-AC85-457D-AB31-6AFB1340D947";
paths = (
{
closed = 1;
nodes = (
"248 -138 OFFCURVE",
"327 -84 OFFCURVE",
"327 49 CURVE SMOOTH",
"327 558 LINE",
"299 532 OFFCURVE",
"244 516 OFFCURVE",
"174 516 CURVE SMOOTH",
"104 516 OFFCURVE",
"50 531 OFFCURVE",
"20 558 CURVE",
"20 37 LINE SMOOTH",
"20 -11 OFFCURVE",
"-3 -21 OFFCURVE",
"-41 -17 CURVE",
"-41 -120 LINE",
"-15 -130 OFFCURVE",
"37 -138 OFFCURVE",
"102 -138 CURVE SMOOTH"
);
},
{
closed = 1;
nodes = (
"275 547 OFFCURVE",
"332 578 OFFCURVE",
"332 625 CURVE SMOOTH",
"332 675 OFFCURVE",
"269 703 OFFCURVE",
"174 703 CURVE SMOOTH",
"73 703 OFFCURVE",
"15 671 OFFCURVE",
"15 625 CURVE SMOOTH",
"15 575 OFFCURVE",
"80 547 OFFCURVE",
"174 547 CURVE SMOOTH"
);
}
);
width = 345;
}
);
leftKerningGroup = j;
unicode = 006A;
},
{
glyphname = jdotless;
lastChange = "2023-05-30 16:42:04 +0000";
layers = (
{
anchors = (
{
name = bottom;
position = "{173, -125}";
},
{
name = top;
position = "{173, 565}";
}
);
layerId = "685D33D6-AC85-457D-AB31-6AFB1340D947";
paths = (
{
closed = 1;
nodes = (
"248 -138 OFFCURVE",
"327 -84 OFFCURVE",
"327 49 CURVE SMOOTH",
"327 565 LINE",
"20 565 LINE",
"20 37 LINE SMOOTH",
"20 -11 OFFCURVE",
"-3 -21 OFFCURVE",
"-41 -17 CURVE",
"-41 -120 LINE",
"-15 -130 OFFCURVE",
"37 -138 OFFCURVE",
"102 -138 CURVE SMOOTH"
);
}
);
width = 340;
},
{
anchors = (
{
name = bottom;
position = "{206, -125}";
},
{
name = top;
position = "{206, 565}";
}
);
layerId = "3B426CF6-0C00-48CC-B0F4-6E2C4CD07FAD";
paths = (
{
closed = 1;
nodes = (
"314 -138 OFFCURVE",
"393 -63 OFFCURVE",
"393 70 CURVE SMOOTH",
"393 565 LINE",
"19 565 LINE",
"19 48 LINE SMOOTH",
"19 -6 OFFCURVE",
"-2 -21 OFFCURVE",
"-55 -23 CURVE",
"-55 -115 LINE",
"-25 -129 OFFCURVE",
"41 -138 OFFCURVE",
"111 -138 CURVE SMOOTH"
);
}
);
width = 412;
}
);
leftKerningGroup = j;
rightMetricsKey = j;
unicode = 0237;
},
{
glyphname = k;
lastChange = "2023-05-23 19:28:12 +0000";
layers = (
{
anchors = (
{
name = bottom;
position = "{428, 0}";
},
{
name = top;
position = "{428, 724}";
}
);
background = {
paths = (
{
closed = 1;
nodes = (
"394 0 LINE",
"394 191 LINE",
"414 191 LINE",
"472 0 LINE",
"855 0 LINE",
"855 21 LINE",
"710 326 LINE",
"797 402 OFFCURVE",
"834 477 OFFCURVE",
"855 565 CURVE",
"478 565 LINE",
"414 360 LINE",
"394 360 LINE",
"394 690 LINE",
"20 690 LINE",
"20 0 LINE"
);
}
);
};
layerId = "3B426CF6-0C00-48CC-B0F4-6E2C4CD07FAD";
paths = (
{
closed = 1;
nodes = (
"394 0 LINE",
"394 191 LINE",
"414 191 LINE",
"472 0 LINE",
"855 0 LINE",
"855 21 LINE",
"710 326 LINE",
"855 543 LINE",
"855 565 LINE",
"477 565 LINE",
"416 360 LINE",
"394 360 LINE",
"394 690 LINE",
"20 690 LINE",
"20 0 LINE"
);
}
);
width = 852;
},
{
anchors = (
{
name = bottom;
position = "{356, 0}";
},
{
name = top;
position = "{356, 724}";
}
);
layerId = "685D33D6-AC85-457D-AB31-6AFB1340D947";
paths = (
{
closed = 1;
nodes = (
"327 0 LINE",
"327 191 LINE",
"343 191 LINE",
"388 0 LINE",
"724 0 LINE",
"724 25 LINE",
"595 336 LINE",
"724 531 LINE",
"724 565 LINE",
"395 565 LINE",
"345 360 LINE",
"327 360 LINE",
"327 690 LINE",
"20 690 LINE",
"20 0 LINE"
);
}
);
width = 723;
}
);
leftKerningGroup = l;
rightKerningGroup = k;
unicode = 006B;
},
{
glyphname = l;
lastChange = "2023-05-30 20:55:00 +0000";
layers = (
{
anchors = (
{
name = bottom;
position = "{207, 0}";
},
{
name = center;
position = "{207, 362}";
},
{
name = top;
position = "{207, 690}";
},
{
name = topright;
position = "{285, 690}";
}
);
layerId = "3B426CF6-0C00-48CC-B0F4-6E2C4CD07FAD";
paths = (
{
closed = 1;
nodes = (
"394 0 LINE",
"394 690 LINE",
"20 690 LINE",
"20 0 LINE"
);
}
);
width = 414;
},
{
anchors = (
{
name = bottom;
position = "{173, 0}";
},
{
name = center;
position = "{173, 362}";
},
{
name = top;
position = "{173, 690}";
},
{
name = topright;
position = "{246, 690}";
}
);
layerId = "685D33D6-AC85-457D-AB31-6AFB1340D947";
paths = (
{
closed = 1;
nodes = (
"327 0 LINE",
"327 690 LINE",
"20 690 LINE",
"20 0 LINE"
);
}
);
width = 347;
}
);
leftKerningGroup = l;
rightKerningGroup = l;
unicode = 006C;
},
{
glyphname = lslash;
lastChange = "2023-05-23 19:28:12 +0000";
layers = (
{
components = (
{
name = l;
}
);
layerId = "3B426CF6-0C00-48CC-B0F4-6E2C4CD07FAD";
paths = (
{
closed = 1;
nodes = (
"-23 157 LINE",
"437 314 LINE",
"437 494 LINE",
"-23 337 LINE"
);
}
);
width = 414;
},
{
components = (
{
name = l;
}
);
layerId = "685D33D6-AC85-457D-AB31-6AFB1340D947";
paths = (
{
closed = 1;
nodes = (
"-26 183 LINE",
"372 319 LINE",
"372 512 LINE",
"-26 376 LINE"
);
}
);
width = 347;
}
);
leftKerningGroup = l;
rightKerningGroup = lslash;
unicode = 0142;
},
{
glyphname = m;
lastChange = "2023-05-23 19:28:12 +0000";
layers = (
{
anchors = (
{
name = bottom;
position = "{621, 0}";
},
{
name = top;
position = "{621, 565}";
}
);
layerId = "3B426CF6-0C00-48CC-B0F4-6E2C4CD07FAD";
paths = (
{
closed = 1;
nodes = (
"394 0 LINE",
"394 270 LINE SMOOTH",
"394 302 OFFCURVE",
"405 322 OFFCURVE",
"439 322 CURVE SMOOTH",
"466 322 OFFCURVE",
"484 310 OFFCURVE",
"484 270 CURVE SMOOTH",
"484 0 LINE",
"858 0 LINE",
"858 270 LINE SMOOTH",
"858 302 OFFCURVE",
"869 322 OFFCURVE",
"903 322 CURVE SMOOTH",
"930 322 OFFCURVE",
"948 310 OFFCURVE",
"948 270 CURVE SMOOTH",
"948 0 LINE",
"1322 0 LINE",
"1322 342 LINE SMOOTH",
"1322 501 OFFCURVE",
"1245 578 OFFCURVE",
"1102 578 CURVE SMOOTH",
"981 578 OFFCURVE",
"894 527 OFFCURVE",
"878 356 CURVE",
"858 356 LINE",
"858 501 OFFCURVE",
"781 578 OFFCURVE",
"638 578 CURVE SMOOTH",
"517 578 OFFCURVE",
"430 527 OFFCURVE",
"414 356 CURVE",
"392 356 LINE",
"372 565 LINE",
"20 565 LINE",
"20 0 LINE"
);
}
);
width = 1342;
},
{
anchors = (
{
name = bottom;
position = "{565, 0}";
},
{
name = top;
position = "{565, 565}";
}
);
layerId = "685D33D6-AC85-457D-AB31-6AFB1340D947";
paths = (
{
closed = 1;
nodes = (
"327 0 LINE",
"327 263 LINE SMOOTH",
"327 303 OFFCURVE",
"336 323 OFFCURVE",
"365 323 CURVE SMOOTH",
"389 323 OFFCURVE",
"404 311 OFFCURVE",
"404 263 CURVE SMOOTH",
"404 0 LINE",
"711 0 LINE",
"711 263 LINE SMOOTH",
"711 303 OFFCURVE",
"720 323 OFFCURVE",
"749 323 CURVE SMOOTH",
"773 323 OFFCURVE",
"788 311 OFFCURVE",
"788 263 CURVE SMOOTH",
"788 0 LINE",
"1095 0 LINE",
"1095 372 LINE SMOOTH",
"1095 511 OFFCURVE",
"1039 578 OFFCURVE",
"917 578 CURVE SMOOTH",
"802 578 OFFCURVE",
"730 530 OFFCURVE",
"728 356 CURVE",
"711 356 LINE",
"711 511 OFFCURVE",
"655 578 OFFCURVE",
"533 578 CURVE SMOOTH",
"418 578 OFFCURVE",
"346 530 OFFCURVE",
"344 356 CURVE",
"327 356 LINE",
"320 565 LINE",
"20 565 LINE",
"20 0 LINE"
);
}
);
width = 1115;
}
);
leftKerningGroup = n;
leftMetricsKey = n;
rightKerningGroup = n;
rightMetricsKey = n;
unicode = 006D;
},
{
glyphname = n;
lastChange = "2023-05-23 19:28:12 +0000";
layers = (
{
anchors = (
{
name = bottom;
position = "{425, 0}";
},
{
name = top;
position = "{425, 565}";
}
);
background = {
paths = (
{
closed = 1;
nodes = (
"394 0 LINE",
"394 270 LINE SMOOTH",
"394 302 OFFCURVE",
"405 322 OFFCURVE",
"439 322 CURVE SMOOTH",
"466 322 OFFCURVE",
"484 310 OFFCURVE",
"484 270 CURVE SMOOTH",
"484 0 LINE",
"858 0 LINE",
"858 362 LINE SMOOTH",
"858 503 OFFCURVE",
"793 578 OFFCURVE",
"640 578 CURVE SMOOTH",
"518 578 OFFCURVE",
"428 519 OFFCURVE",
"406 336 CURVE",
"394 336 LINE",
"372 565 LINE",
"20 565 LINE",
"20 0 LINE"
);
}
);
};
layerId = "3B426CF6-0C00-48CC-B0F4-6E2C4CD07FAD";
paths = (
{
closed = 1;
nodes = (
"394 0 LINE",
"394 270 LINE SMOOTH",
"394 302 OFFCURVE",
"405 322 OFFCURVE",
"439 322 CURVE SMOOTH",
"466 322 OFFCURVE",
"484 310 OFFCURVE",
"484 270 CURVE SMOOTH",
"484 0 LINE",
"858 0 LINE",
"858 342 LINE SMOOTH",
"858 501 OFFCURVE",
"781 578 OFFCURVE",
"638 578 CURVE SMOOTH",
"517 578 OFFCURVE",
"430 527 OFFCURVE",
"414 356 CURVE",
"394 356 LINE",
"382 565 LINE",
"20 565 LINE",
"20 0 LINE"
);
}
);
width = 878;
},
{
anchors = (
{
name = bottom;
position = "{369, 0}";
},
{
name = top;
position = "{369, 565}";
}
);
layerId = "685D33D6-AC85-457D-AB31-6AFB1340D947";
paths = (
{
closed = 1;
nodes = (
"327 0 LINE",
"327 263 LINE SMOOTH",
"327 303 OFFCURVE",
"336 323 OFFCURVE",
"365 323 CURVE SMOOTH",
"389 323 OFFCURVE",
"404 311 OFFCURVE",
"404 263 CURVE SMOOTH",
"404 0 LINE",
"711 0 LINE",
"711 372 LINE SMOOTH",
"711 511 OFFCURVE",
"655 578 OFFCURVE",
"533 578 CURVE SMOOTH",
"418 578 OFFCURVE",
"346 530 OFFCURVE",
"344 356 CURVE",
"327 356 LINE",
"317 565 LINE",
"20 565 LINE",
"20 0 LINE"
);
}
);
width = 731;
}
);
leftKerningGroup = n;
rightKerningGroup = n;
unicode = 006E;
},
{
glyphname = nhookleft;
lastChange = "2023-05-31 09:58:57 +0000";
layers = (
{
anchors = (
{
name = bottom;
position = "{369, 0}";
},
{
name = top;
position = "{369, 565}";
}
);
layerId = "685D33D6-AC85-457D-AB31-6AFB1340D947";
paths = (
{
closed = 1;
nodes = (
"238 -138 OFFCURVE",
"327 -67 OFFCURVE",
"327 70 CURVE SMOOTH",
"327 263 LINE SMOOTH",
"327 303 OFFCURVE",
"336 323 OFFCURVE",
"365 323 CURVE SMOOTH",
"389 323 OFFCURVE",
"404 311 OFFCURVE",
"404 263 CURVE SMOOTH",
"404 0 LINE",
"711 0 LINE",
"711 372 LINE SMOOTH",
"711 511 OFFCURVE",
"655 578 OFFCURVE",
"533 578 CURVE SMOOTH",
"418 578 OFFCURVE",
"346 530 OFFCURVE",
"344 356 CURVE",
"327 356 LINE",
"317 565 LINE",
"20 565 LINE",
"20 37 LINE SMOOTH",
"20 -13 OFFCURVE",
"-3 -22 OFFCURVE",
"-41 -19 CURVE",
"-41 -121 LINE",
"-23 -131 OFFCURVE",
"24 -138 OFFCURVE",
"72 -138 CURVE SMOOTH"
);
}
);
width = 731;
},
{
anchors = (
{
name = bottom;
position = "{424, 0}";
},
{
name = top;
position = "{424, 565}";
}
);
layerId = "3B426CF6-0C00-48CC-B0F4-6E2C4CD07FAD";
paths = (
{
closed = 1;
nodes = (
"268 -137 OFFCURVE",
"393 -76 OFFCURVE",
"393 95 CURVE SMOOTH",
"393 270 LINE SMOOTH",
"393 302 OFFCURVE",
"404 322 OFFCURVE",
"438 322 CURVE SMOOTH",
"465 322 OFFCURVE",
"483 310 OFFCURVE",
"483 270 CURVE SMOOTH",
"483 0 LINE",
"857 0 LINE",
"857 342 LINE SMOOTH",
"857 501 OFFCURVE",
"780 578 OFFCURVE",
"637 578 CURVE SMOOTH",
"516 578 OFFCURVE",
"429 527 OFFCURVE",
"413 356 CURVE",
"393 356 LINE",
"381 565 LINE",
"19 565 LINE",
"19 36 LINE SMOOTH",
"19 -13 OFFCURVE",
"-5 -34 OFFCURVE",
"-55 -31 CURVE",
"-55 -112 LINE",
"-25 -127 OFFCURVE",
"29 -137 OFFCURVE",
"81 -137 CURVE SMOOTH"
);
}
);
width = 877;
}
);
leftKerningGroup = j;
leftMetricsKey = j;
rightKerningGroup = n;
unicode = 0272;
},
{
glyphname = eng;
lastChange = "2023-05-23 19:28:12 +0000";
layers = (
{
anchors = (
{
name = bottom;
position = "{425, 0}";
},
{
name = top;
position = "{425, 565}";
}
);
background = {
paths = (
{
closed = 1;
nodes = (
"380 0 LINE",
"380 262 LINE SMOOTH",
"380 298 OFFCURVE",
"391 322 OFFCURVE",
"425 322 CURVE SMOOTH",
"452 322 OFFCURVE",
"470 308 OFFCURVE",
"470 262 CURVE SMOOTH",
"470 38 LINE SMOOTH",
"470 -18 OFFCURVE",
"449 -54 OFFCURVE",
"376 -54 CURVE SMOOTH",
"353 -54 OFFCURVE",
"332 -50 OFFCURVE",
"318 -45 CURVE",
"318 -275 LINE",
"351 -288 OFFCURVE",
"412 -297 OFFCURVE",
"470 -297 CURVE SMOOTH",
"680 -297 OFFCURVE",
"822 -213 OFFCURVE",
"830 0 CURVE",
"830 361 LINE SMOOTH",
"830 491 OFFCURVE",
"772 578 OFFCURVE",
"626 578 CURVE SMOOTH",
"504 578 OFFCURVE",
"414 509 OFFCURVE",
"392 332 CURVE",
"380 332 LINE",
"358 565 LINE",
"20 565 LINE",
"20 0 LINE"
);
}
);
};
layerId = "3B426CF6-0C00-48CC-B0F4-6E2C4CD07FAD";
paths = (
{
closed = 1;
nodes = (
"733 -137 OFFCURVE",
"858 -76 OFFCURVE",
"858 95 CURVE SMOOTH",
"858 342 LINE SMOOTH",
"858 501 OFFCURVE",
"781 578 OFFCURVE",
"638 578 CURVE SMOOTH",
"517 578 OFFCURVE",
"430 527 OFFCURVE",
"414 356 CURVE",
"394 356 LINE",
"382 565 LINE",
"20 565 LINE",
"20 0 LINE",
"394 0 LINE",
"394 270 LINE SMOOTH",
"394 302 OFFCURVE",
"405 322 OFFCURVE",
"439 322 CURVE SMOOTH",
"466 322 OFFCURVE",
"484 310 OFFCURVE",
"484 270 CURVE SMOOTH",
"484 36 LINE SMOOTH",
"484 -13 OFFCURVE",
"460 -34 OFFCURVE",
"410 -31 CURVE",
"410 -112 LINE",
"440 -127 OFFCURVE",
"494 -137 OFFCURVE",
"546 -137 CURVE SMOOTH"
);
}
);
width = 878;
},
{
anchors = (
{
name = bottom;
position = "{369, 0}";
},
{
name = top;
position = "{369, 565}";
}
);
layerId = "685D33D6-AC85-457D-AB31-6AFB1340D947";
paths = (
{
closed = 1;
nodes = (
"622 -138 OFFCURVE",
"711 -67 OFFCURVE",
"711 70 CURVE SMOOTH",
"711 372 LINE SMOOTH",
"711 511 OFFCURVE",
"655 578 OFFCURVE",
"533 578 CURVE SMOOTH",
"418 578 OFFCURVE",
"346 530 OFFCURVE",
"344 356 CURVE",
"327 356 LINE",
"317 565 LINE",
"20 565 LINE",
"20 0 LINE",
"327 0 LINE",
"327 263 LINE SMOOTH",
"327 303 OFFCURVE",
"336 323 OFFCURVE",
"365 323 CURVE SMOOTH",
"389 323 OFFCURVE",
"404 311 OFFCURVE",
"404 263 CURVE SMOOTH",
"404 37 LINE SMOOTH",
"404 -13 OFFCURVE",
"381 -22 OFFCURVE",
"343 -19 CURVE",
"343 -121 LINE",
"361 -131 OFFCURVE",
"408 -138 OFFCURVE",
"456 -138 CURVE SMOOTH"
);
}
);
width = 731;
}
);
leftKerningGroup = n;
leftMetricsKey = n;
rightKerningGroup = n;
rightMetricsKey = n;
unicode = 014B;
},
{
glyphname = o;
lastChange = "2023-05-31 19:16:48 +0000";
layers = (
{
anchors = (
{
name = "#exit";
position = "{463, 0}";
},
{
name = bottom;
position = "{409, 0}";
},
{
name = center;
position = "{409, 283}";
},
{
name = ogonek;
position = "{737, 10}";
},
{
name = top;
position = "{409, 565}";
},
{
name = topright;
position = "{520, 565}";
}
);
layerId = "3B426CF6-0C00-48CC-B0F4-6E2C4CD07FAD";
paths = (
{
closed = 1;
nodes = (
"648 -13 OFFCURVE",
"808 94 OFFCURVE",
"808 283 CURVE SMOOTH",
"808 460 OFFCURVE",
"664 578 OFFCURVE",
"409 578 CURVE SMOOTH",
"170 578 OFFCURVE",
"10 472 OFFCURVE",
"10 283 CURVE SMOOTH",
"10 105 OFFCURVE",
"154 -13 OFFCURVE",
"409 -13 CURVE SMOOTH"
);
},
{
closed = 1;
nodes = (
"373 225 OFFCURVE",
"348 246 OFFCURVE",
"348 283 CURVE SMOOTH",
"348 317 OFFCURVE",
"371 341 OFFCURVE",
"409 341 CURVE SMOOTH",
"445 341 OFFCURVE",
"470 319 OFFCURVE",
"470 283 CURVE SMOOTH",
"470 248 OFFCURVE",
"447 225 OFFCURVE",
"409 225 CURVE SMOOTH"
);
}
);
width = 818;
},
{
anchors = (
{
name = "#exit";
position = "{396, 0}";
},
{
name = bottom;
position = "{353, 0}";
},
{
name = center;
position = "{353, 283}";
},
{
name = ogonek;
position = "{635, 10}";
},
{
name = top;
position = "{353, 565}";
},
{
name = topright;
position = "{409, 565}";
}
);
layerId = "685D33D6-AC85-457D-AB31-6AFB1340D947";
paths = (
{
closed = 1;
nodes = (
"577 -13 OFFCURVE",
"696 108 OFFCURVE",
"696 283 CURVE SMOOTH",
"696 474 OFFCURVE",
"554 578 OFFCURVE",
"353 578 CURVE SMOOTH",
"129 578 OFFCURVE",
"10 457 OFFCURVE",
"10 283 CURVE SMOOTH",
"10 91 OFFCURVE",
"152 -13 OFFCURVE",
"353 -13 CURVE SMOOTH"
);
},
{
closed = 1;
nodes = (
"319 233 OFFCURVE",
"301 254 OFFCURVE",
"301 283 CURVE SMOOTH",
"301 313 OFFCURVE",
"320 334 OFFCURVE",
"353 334 CURVE SMOOTH",
"384 334 OFFCURVE",
"405 314 OFFCURVE",
"405 283 CURVE SMOOTH",
"405 252 OFFCURVE",
"383 233 OFFCURVE",
"353 233 CURVE SMOOTH"
);
}
);
width = 706;
}
);
leftKerningGroup = c;
rightKerningGroup = o;
unicode = 006F;
},
{
glyphname = odieresis;
lastChange = "2023-06-01 23:12:13 +0000";
layers = (
{
anchors = (
{
name = bottom;
position = "{409, 0}";
},
{
name = center;
position = "{409, 283}";
},
{
name = ogonek;
position = "{737, 10}";
},
{
name = top;
position = "{409, 565}";
},
{
name = topright;
position = "{797, 565}";
}
);
layerId = "3B426CF6-0C00-48CC-B0F4-6E2C4CD07FAD";
paths = (
{
closed = 1;
nodes = (
"648 -13 OFFCURVE",
"808 82 OFFCURVE",
"808 283 CURVE SMOOTH",
"808 385 OFFCURVE",
"766 467 OFFCURVE",
"678 519 CURVE",
"653 514 OFFCURVE",
"623 511 OFFCURVE",
"591 511 CURVE SMOOTH",
"501 511 OFFCURVE",
"435 532 OFFCURVE",
"410 570 CURVE",
"384 532 OFFCURVE",
"318 511 OFFCURVE",
"228 511 CURVE SMOOTH",
"195 511 OFFCURVE",
"166 514 OFFCURVE",
"140 519 CURVE",
"58 471 OFFCURVE",
"10 393 OFFCURVE",
"10 283 CURVE SMOOTH",
"10 105 OFFCURVE",
"138 -13 OFFCURVE",
"409 -13 CURVE SMOOTH"
);
},
{
closed = 1;
nodes = (
"373 225 OFFCURVE",
"348 246 OFFCURVE",
"348 283 CURVE SMOOTH",
"348 317 OFFCURVE",
"371 341 OFFCURVE",
"409 341 CURVE SMOOTH",
"445 341 OFFCURVE",
"470 319 OFFCURVE",
"470 283 CURVE SMOOTH",
"470 248 OFFCURVE",
"447 225 OFFCURVE",
"409 225 CURVE SMOOTH"
);
},
{
closed = 1;
nodes = (
"334 547 OFFCURVE",
"399 578 OFFCURVE",
"399 625 CURVE SMOOTH",
"399 675 OFFCURVE",
"327 703 OFFCURVE",
"224 703 CURVE SMOOTH",
"111 703 OFFCURVE",
"47 671 OFFCURVE",
"47 625 CURVE SMOOTH",
"47 575 OFFCURVE",
"118 547 OFFCURVE",
"224 547 CURVE SMOOTH"
);
},
{
closed = 1;
nodes = (
"706 547 OFFCURVE",
"770 578 OFFCURVE",
"770 625 CURVE SMOOTH",
"770 675 OFFCURVE",
"699 703 OFFCURVE",
"593 703 CURVE SMOOTH",
"483 703 OFFCURVE",
"418 671 OFFCURVE",
"418 625 CURVE SMOOTH",
"418 575 OFFCURVE",
"490 547 OFFCURVE",
"593 547 CURVE SMOOTH"
);
}
);
width = 818;
},
{
anchors = (
{
name = bottom;
position = "{353, 0}";
},
{
name = center;
position = "{353, 283}";
},
{
name = ogonek;
position = "{635, 10}";
},
{
name = top;
position = "{353, 565}";
},
{
name = topright;
position = "{686, 565}";
}
);
layerId = "685D33D6-AC85-457D-AB31-6AFB1340D947";
paths = (
{
closed = 1;
nodes = (
"577 -13 OFFCURVE",
"696 111 OFFCURVE",
"696 283 CURVE SMOOTH",
"696 395 OFFCURVE",
"645 478 OFFCURVE",
"563 527 CURVE",
"542 522 OFFCURVE",
"518 519 OFFCURVE",
"492 519 CURVE SMOOTH",
"431 519 OFFCURVE",
"381 536 OFFCURVE",
"354 565 CURVE",
"325 536 OFFCURVE",
"277 519 OFFCURVE",
"214 519 CURVE SMOOTH",
"188 519 OFFCURVE",
"164 522 OFFCURVE",
"143 528 CURVE",
"56 476 OFFCURVE",
"10 388 OFFCURVE",
"10 283 CURVE SMOOTH",
"10 91 OFFCURVE",
"156 -13 OFFCURVE",
"353 -13 CURVE SMOOTH"
);
},
{
closed = 1;
nodes = (
"319 233 OFFCURVE",
"301 254 OFFCURVE",
"301 283 CURVE SMOOTH",
"301 313 OFFCURVE",
"320 334 OFFCURVE",
"353 334 CURVE SMOOTH",
"384 334 OFFCURVE",
"405 314 OFFCURVE",
"405 283 CURVE SMOOTH",
"405 252 OFFCURVE",
"383 233 OFFCURVE",
"353 233 CURVE SMOOTH"
);
},
{
closed = 1;
nodes = (
"298 547 OFFCURVE",
"345 578 OFFCURVE",
"345 625 CURVE SMOOTH",
"345 675 OFFCURVE",
"292 703 OFFCURVE",
"214 703 CURVE SMOOTH",
"130 703 OFFCURVE",
"82 671 OFFCURVE",
"82 625 CURVE SMOOTH",
"82 575 OFFCURVE",
"136 547 OFFCURVE",
"214 547 CURVE SMOOTH"
);
},
{
closed = 1;
nodes = (
"575 547 OFFCURVE",
"623 578 OFFCURVE",
"623 625 CURVE SMOOTH",
"623 675 OFFCURVE",
"569 703 OFFCURVE",
"491 703 CURVE SMOOTH",
"407 703 OFFCURVE",
"359 671 OFFCURVE",
"359 625 CURVE SMOOTH",
"359 575 OFFCURVE",
"413 547 OFFCURVE",
"491 547 CURVE SMOOTH"
);
}
);
width = 706;
}
);
leftKerningGroup = c;
rightKerningGroup = o;
unicode = 00F6;
},
{
glyphname = p;
lastChange = "2023-05-23 19:28:12 +0000";
layers = (
{
anchors = (
{
name = bottom;
position = "{470, 0}";
},
{
name = bottomleft;
position = "{28, -125}";
},
{
name = center;
position = "{271, -58}";
},
{
name = top;
position = "{470, 565}";
}
);
background = {
paths = (
{
closed = 1;
nodes = (
"915 461 OFFCURVE",
"820 578 OFFCURVE",
"652 578 CURVE SMOOTH",
"515 578 OFFCURVE",
"419 496 OFFCURVE",
"406 341 CURVE",
"394 341 LINE",
"371 565 LINE",
"20 565 LINE",
"20 -125 LINE",
"394 -125 LINE",
"394 233 LINE",
"406 233 LINE",
"418 86 OFFCURVE",
"499 -13 OFFCURVE",
"651 -13 CURVE SMOOTH",
"809 -13 OFFCURVE",
"915 95 OFFCURVE",
"915 285 CURVE SMOOTH"
);
},
{
closed = 1;
nodes = (
"525 259 OFFCURVE",
"507 240 OFFCURVE",
"476 240 CURVE SMOOTH",
"447 240 OFFCURVE",
"427 257 OFFCURVE",
"427 287 CURVE SMOOTH",
"427 315 OFFCURVE",
"445 334 OFFCURVE",
"476 334 CURVE SMOOTH",
"505 334 OFFCURVE",
"525 317 OFFCURVE",
"525 287 CURVE SMOOTH"
);
}
);
};
components = (
{
name = d;
transform = "{-1, 0, 0, -1, 933, 565}";
}
);
layerId = "3B426CF6-0C00-48CC-B0F4-6E2C4CD07FAD";
width = 933;
},
{
anchors = (
{
name = bottom;
position = "{394, 0}";
},
{
name = bottomleft;
position = "{24, -125}";
},
{
name = center;
position = "{239, -58}";
},
{
name = top;
position = "{394, 565}";
}
);
components = (
{
name = d;
transform = "{-1, 0, 0, -1, 876, 565}";
}
);
layerId = "685D33D6-AC85-457D-AB31-6AFB1340D947";
width = 876;
}
);
leftKerningGroup = n;
rightKerningGroup = b;
unicode = 0070;
},
{
glyphname = thorn;
lastChange = "2023-05-23 19:28:12 +0000";
layers = (
{
background = {
paths = (
{
closed = 1;
nodes = (
"898 461 OFFCURVE",
"803 578 OFFCURVE",
"635 578 CURVE SMOOTH",
"498 578 OFFCURVE",
"402 496 OFFCURVE",
"389 341 CURVE",
"377 341 LINE",
"377 690 LINE",
"20 690 LINE",
"20 -125 LINE",
"377 -125 LINE",
"377 233 LINE",
"389 233 LINE",
"401 86 OFFCURVE",
"482 -13 OFFCURVE",
"634 -13 CURVE SMOOTH",
"792 -13 OFFCURVE",
"898 95 OFFCURVE",
"898 285 CURVE SMOOTH"
);
},
{
closed = 1;
nodes = (
"508 259 OFFCURVE",
"490 240 OFFCURVE",
"459 240 CURVE SMOOTH",
"430 240 OFFCURVE",
"410 257 OFFCURVE",
"410 287 CURVE SMOOTH",
"410 315 OFFCURVE",
"428 334 OFFCURVE",
"459 334 CURVE SMOOTH",
"488 334 OFFCURVE",
"508 317 OFFCURVE",
"508 287 CURVE SMOOTH"
);
}
);
};
layerId = "3B426CF6-0C00-48CC-B0F4-6E2C4CD07FAD";
paths = (
{
closed = 1;
nodes = (
"817 -13 OFFCURVE",
"923 93 OFFCURVE",
"923 283 CURVE SMOOTH",
"923 472 OFFCURVE",
"817 578 OFFCURVE",
"659 578 CURVE SMOOTH",
"507 578 OFFCURVE",
"426 481 OFFCURVE",
"414 336 CURVE",
"378 336 LINE",
"378 229 LINE",
"414 229 LINE",
"426 84 OFFCURVE",
"507 -13 OFFCURVE",
"659 -13 CURVE SMOOTH"
);
},
{
closed = 1;
nodes = (
"394 -125 LINE",
"394 690 LINE",
"20 690 LINE",
"20 -125 LINE"
);
},
{
closed = 1;
nodes = (
"463 229 OFFCURVE",
"441 249 OFFCURVE",
"441 282 CURVE SMOOTH",
"441 315 OFFCURVE",
"463 335 OFFCURVE",
"496 335 CURVE SMOOTH",
"531 335 OFFCURVE",
"551 313 OFFCURVE",
"551 282 CURVE SMOOTH",
"551 251 OFFCURVE",
"531 229 OFFCURVE",
"496 229 CURVE SMOOTH"
);
}
);
width = 933;
},
{
layerId = "685D33D6-AC85-457D-AB31-6AFB1340D947";
paths = (
{
closed = 1;
nodes = (
"757 -12 OFFCURVE",
"866 93 OFFCURVE",
"866 282 CURVE SMOOTH",
"866 471 OFFCURVE",
"757 576 OFFCURVE",
"604 576 CURVE SMOOTH",
"445 576 OFFCURVE",
"360 484 OFFCURVE",
"343 339 CURVE",
"303 339 LINE",
"303 225 LINE",
"343 225 LINE",
"360 80 OFFCURVE",
"445 -12 OFFCURVE",
"604 -12 CURVE SMOOTH"
);
},
{
closed = 1;
nodes = (
"327 -125 LINE",
"327 690 LINE",
"20 690 LINE",
"20 -125 LINE"
);
},
{
closed = 1;
nodes = (
"397 230 OFFCURVE",
"375 250 OFFCURVE",
"375 282 CURVE SMOOTH",
"375 314 OFFCURVE",
"397 334 OFFCURVE",
"429 334 CURVE SMOOTH",
"462 334 OFFCURVE",
"482 313 OFFCURVE",
"482 282 CURVE SMOOTH",
"482 251 OFFCURVE",
"462 230 OFFCURVE",
"429 230 CURVE SMOOTH"
);
}
);
width = 876;
}
);
leftMetricsKey = b;
rightKerningGroup = b;
rightMetricsKey = b;
unicode = 00FE;
},
{
glyphname = q;
lastChange = "2023-05-23 19:28:12 +0000";
layers = (
{
anchors = (
{
name = bottom;
position = "{455, 0}";
},
{
name = top;
position = "{455, 565}";
}
);
background = {
paths = (
{
closed = 1;
nodes = (
"10 95 OFFCURVE",
"116 -13 OFFCURVE",
"274 -13 CURVE SMOOTH",
"426 -13 OFFCURVE",
"507 86 OFFCURVE",
"519 233 CURVE",
"531 233 LINE",
"531 -125 LINE",
"905 -125 LINE",
"905 565 LINE",
"554 565 LINE",
"531 341 LINE",
"519 341 LINE",
"506 496 OFFCURVE",
"410 578 OFFCURVE",
"273 578 CURVE SMOOTH",
"105 578 OFFCURVE",
"10 461 OFFCURVE",
"10 285 CURVE SMOOTH"
);
},
{
closed = 1;
nodes = (
"400 317 OFFCURVE",
"420 334 OFFCURVE",
"449 334 CURVE SMOOTH",
"480 334 OFFCURVE",
"498 315 OFFCURVE",
"498 287 CURVE SMOOTH",
"498 257 OFFCURVE",
"478 240 OFFCURVE",
"449 240 CURVE SMOOTH",
"418 240 OFFCURVE",
"400 259 OFFCURVE",
"400 287 CURVE SMOOTH"
);
}
);
};
components = (
{
name = b;
transform = "{-1, 0, 0, -1, 933, 565}";
}
);
layerId = "3B426CF6-0C00-48CC-B0F4-6E2C4CD07FAD";
width = 933;
},
{
anchors = (
{
name = bottom;
position = "{398, 0}";
},
{
name = top;
position = "{398, 565}";
}
);
components = (
{
name = b;
transform = "{-1, 0, 0, -1, 876, 565}";
}
);
layerId = "685D33D6-AC85-457D-AB31-6AFB1340D947";
width = 876;
}
);
leftKerningGroup = d;
unicode = 0071;
},
{
glyphname = r;
lastChange = "2023-05-23 19:28:12 +0000";
layers = (
{
anchors = (
{
name = bottom;
position = "{207, 0}";
},
{
name = top;
position = "{325, 565}";
}
);
background = {
paths = (
{
closed = 1;
nodes = (
"394 0 LINE",
"394 151 LINE SMOOTH",
"394 235 OFFCURVE",
"424 283 OFFCURVE",
"521 283 CURVE SMOOTH",
"557 283 OFFCURVE",
"609 275 OFFCURVE",
"636 262 CURVE",
"636 574 LINE",
"494 585 OFFCURVE",
"427 517 OFFCURVE",
"413 351 CURVE",
"394 351 LINE",
"370 565 LINE",
"20 565 LINE",
"20 0 LINE"
);
}
);
};
layerId = "3B426CF6-0C00-48CC-B0F4-6E2C4CD07FAD";
paths = (
{
closed = 1;
nodes = (
"394 0 LINE",
"394 151 LINE SMOOTH",
"394 235 OFFCURVE",
"424 283 OFFCURVE",
"521 283 CURVE SMOOTH",
"551 283 OFFCURVE",
"591 278 OFFCURVE",
"620 268 CURVE",
"636 276 LINE",
"636 574 LINE",
"494 585 OFFCURVE",
"427 517 OFFCURVE",
"413 351 CURVE",
"394 351 LINE",
"370 565 LINE",
"20 565 LINE",
"20 0 LINE"
);
}
);
width = 651;
},
{
anchors = (
{
name = bottom;
position = "{173, 0}";
},
{
name = top;
position = "{270, 565}";
}
);
layerId = "685D33D6-AC85-457D-AB31-6AFB1340D947";
paths = (
{
closed = 1;
nodes = (
"327 0 LINE",
"327 161 LINE SMOOTH",
"327 246 OFFCURVE",
"377 283 OFFCURVE",
"446 283 CURVE SMOOTH",
"467 283 OFFCURVE",
"496 278 OFFCURVE",
"516 269 CURVE",
"531 277 LINE",
"531 574 LINE",
"409 585 OFFCURVE",
"353 543 OFFCURVE",
"348 351 CURVE",
"327 351 LINE",
"308 565 LINE",
"20 565 LINE",
"20 0 LINE"
);
}
);
width = 546;
}
);
leftKerningGroup = n;
rightKerningGroup = r;
unicode = 0072;
},
{
glyphname = s;
lastChange = "2023-05-31 10:00:02 +0000";
layers = (
{
anchors = (
{
name = bottom;
position = "{347, 0}";
},
{
name = top;
position = "{362, 565}";
}
);
background = {
paths = (
{
closed = 1;
nodes = (
"576 -13 OFFCURVE",
"701 41 OFFCURVE",
"701 161 CURVE SMOOTH",
"701 275 OFFCURVE",
"604 308 OFFCURVE",
"434 310 CURVE SMOOTH",
"401 310 OFFCURVE",
"383 309 OFFCURVE",
"371 308 CURVE",
"371 337 LINE",
"388 340 OFFCURVE",
"415 342 OFFCURVE",
"450 342 CURVE SMOOTH",
"537 342 OFFCURVE",
"634 326 OFFCURVE",
"688 297 CURVE",
"688 520 LINE",
"612 555 OFFCURVE",
"481 578 OFFCURVE",
"362 578 CURVE SMOOTH",
"152 578 OFFCURVE",
"5 519 OFFCURVE",
"5 392 CURVE SMOOTH",
"5 285 OFFCURVE",
"97 247 OFFCURVE",
"281 249 CURVE SMOOTH",
"304 249 OFFCURVE",
"325 250 OFFCURVE",
"335 251 CURVE",
"335 224 LINE",
"315 221 OFFCURVE",
"298 220 OFFCURVE",
"266 220 CURVE SMOOTH",
"202 220 OFFCURVE",
"87 227 OFFCURVE",
"17 267 CURVE",
"17 42 LINE",
"83 9 OFFCURVE",
"199 -13 OFFCURVE",
"327 -13 CURVE SMOOTH"
);
}
);
};
layerId = "3B426CF6-0C00-48CC-B0F4-6E2C4CD07FAD";
paths = (
{
closed = 1;
nodes = (
"572 -13 OFFCURVE",
"701 57 OFFCURVE",
"701 161 CURVE SMOOTH",
"701 278 OFFCURVE",
"593 308 OFFCURVE",
"434 310 CURVE SMOOTH",
"401 310 OFFCURVE",
"383 309 OFFCURVE",
"371 308 CURVE",
"371 339 LINE",
"388 342 OFFCURVE",
"415 344 OFFCURVE",
"450 344 CURVE SMOOTH",
"530 344 OFFCURVE",
"619 330 OFFCURVE",
"675 306 CURVE",
"688 313 LINE",
"688 520 LINE",
"616 559 OFFCURVE",
"481 578 OFFCURVE",
"362 578 CURVE SMOOTH",
"152 578 OFFCURVE",
"5 513 OFFCURVE",
"5 391 CURVE SMOOTH",
"5 285 OFFCURVE",
"97 247 OFFCURVE",
"281 249 CURVE SMOOTH",
"304 249 OFFCURVE",
"325 250 OFFCURVE",
"335 251 CURVE",
"335 219 LINE",
"315 216 OFFCURVE",
"298 215 OFFCURVE",
"266 215 CURVE SMOOTH",
"175 215 OFFCURVE",
"83 232 OFFCURVE",
"30 256 CURVE",
"17 247 LINE",
"17 42 LINE",
"82 7 OFFCURVE",
"199 -13 OFFCURVE",
"327 -13 CURVE SMOOTH"
);
}
);
width = 706;
},
{
anchors = (
{
name = bottom;
position = "{306, 0}";
},
{
name = top;
position = "{313, 565}";
}
);
layerId = "685D33D6-AC85-457D-AB31-6AFB1340D947";
paths = (
{
closed = 1;
nodes = (
"477 -13 OFFCURVE",
"600 38 OFFCURVE",
"600 160 CURVE SMOOTH",
"600 264 OFFCURVE",
"519 306 OFFCURVE",
"365 309 CURVE SMOOTH",
"350 309 OFFCURVE",
"341 309 OFFCURVE",
"319 307 CURVE",
"319 338 LINE",
"332 342 OFFCURVE",
"351 344 OFFCURVE",
"388 344 CURVE SMOOTH",
"435 344 OFFCURVE",
"528 331 OFFCURVE",
"575 304 CURVE",
"587 311 LINE",
"587 534 LINE",
"531 563 OFFCURVE",
"406 578 OFFCURVE",
"313 578 CURVE SMOOTH",
"137 578 OFFCURVE",
"5 522 OFFCURVE",
"5 394 CURVE SMOOTH",
"5 295 OFFCURVE",
"92 252 OFFCURVE",
"245 252 CURVE SMOOTH",
"264 252 OFFCURVE",
"279 253 OFFCURVE",
"286 254 CURVE",
"286 224 LINE",
"278 220 OFFCURVE",
"252 218 OFFCURVE",
"229 218 CURVE SMOOTH",
"164 218 OFFCURVE",
"92 225 OFFCURVE",
"31 254 CURVE",
"16 245 LINE",
"16 41 LINE",
"66 10 OFFCURVE",
"162 -13 OFFCURVE",
"276 -13 CURVE SMOOTH"
);
}
);
width = 605;
}
);
leftKerningGroup = s;
rightKerningGroup = s;
unicode = 0073;
},
{
glyphname = germandbls;
lastChange = "2023-05-23 19:28:12 +0000";
layers = (
{
background = {
paths = (
{
closed = 1;
nodes = (
"789 410 OFFCURVE",
"834 462 OFFCURVE",
"834 534 CURVE SMOOTH",
"834 655 OFFCURVE",
"685 735 OFFCURVE",
"462 735 CURVE SMOOTH",
"191 735 OFFCURVE",
"20 634 OFFCURVE",
"20 420 CURVE SMOOTH",
"20 0 LINE",
"377 0 LINE",
"377 446 LINE SMOOTH",
"377 487 OFFCURVE",
"400 514 OFFCURVE",
"442 514 CURVE SMOOTH",
"475 514 OFFCURVE",
"500 497 OFFCURVE",
"500 468 CURVE SMOOTH",
"500 440 OFFCURVE",
"475 423 OFFCURVE",
"440 423 CURVE SMOOTH",
"411 423 LINE",
"411 305 LINE",
"441 305 LINE SMOOTH",
"490 305 OFFCURVE",
"515 290 OFFCURVE",
"515 260 CURVE SMOOTH",
"515 232 OFFCURVE",
"490 216 OFFCURVE",
"449 216 CURVE SMOOTH",
"433 216 OFFCURVE",
"422 218 OFFCURVE",
"411 221 CURVE",
"411 1 LINE",
"434 -5 OFFCURVE",
"497 -13 OFFCURVE",
"557 -13 CURVE SMOOTH",
"752 -13 OFFCURVE",
"883 67 OFFCURVE",
"883 209 CURVE SMOOTH",
"883 298 OFFCURVE",
"826 369 OFFCURVE",
"697 386 CURVE"
);
}
);
};
layerId = "3B426CF6-0C00-48CC-B0F4-6E2C4CD07FAD";
paths = (
{
closed = 1;
nodes = (
"789 392 OFFCURVE",
"834 442 OFFCURVE",
"834 510 CURVE SMOOTH",
"834 626 OFFCURVE",
"685 703 OFFCURVE",
"462 703 CURVE SMOOTH",
"191 703 OFFCURVE",
"20 606 OFFCURVE",
"20 401 CURVE SMOOTH",
"20 -1 LINE",
"377 -1 LINE",
"377 426 LINE SMOOTH",
"377 464 OFFCURVE",
"400 489 OFFCURVE",
"442 489 CURVE SMOOTH",
"486 489 OFFCURVE",
"500 472 OFFCURVE",
"500 447 CURVE SMOOTH",
"500 420 OFFCURVE",
"475 404 OFFCURVE",
"440 404 CURVE SMOOTH",
"411 404 LINE",
"411 291 LINE",
"441 291 LINE SMOOTH",
"490 291 OFFCURVE",
"515 277 OFFCURVE",
"515 248 CURVE SMOOTH",
"515 221 OFFCURVE",
"490 206 OFFCURVE",
"449 206 CURVE SMOOTH",
"433 206 OFFCURVE",
"422 208 OFFCURVE",
"411 211 CURVE",
"411 0 LINE",
"434 -5 OFFCURVE",
"497 -13 OFFCURVE",
"557 -13 CURVE SMOOTH",
"752 -13 OFFCURVE",
"883 64 OFFCURVE",
"883 199 CURVE SMOOTH",
"883 285 OFFCURVE",
"826 353 OFFCURVE",
"697 369 CURVE"
);
}
);
width = 893;
},
{
layerId = "685D33D6-AC85-457D-AB31-6AFB1340D947";
paths = (
{
closed = 1;
nodes = (
"689 392 OFFCURVE",
"728 442 OFFCURVE",
"728 510 CURVE SMOOTH",
"728 626 OFFCURVE",
"599 703 OFFCURVE",
"405 703 CURVE SMOOTH",
"169 703 OFFCURVE",
"20 606 OFFCURVE",
"20 401 CURVE SMOOTH",
"20 -1 LINE",
"331 -1 LINE",
"331 426 LINE SMOOTH",
"331 465 OFFCURVE",
"350 492 OFFCURVE",
"387 492 CURVE SMOOTH",
"414 492 OFFCURVE",
"438 476 OFFCURVE",
"438 447 CURVE SMOOTH",
"438 420 OFFCURVE",
"416 404 OFFCURVE",
"385 404 CURVE SMOOTH",
"360 404 LINE",
"360 291 LINE",
"386 291 LINE SMOOTH",
"429 291 OFFCURVE",
"450 277 OFFCURVE",
"450 248 CURVE SMOOTH",
"450 221 OFFCURVE",
"429 206 OFFCURVE",
"393 206 CURVE SMOOTH",
"379 206 OFFCURVE",
"370 208 OFFCURVE",
"360 211 CURVE",
"360 0 LINE",
"380 -5 OFFCURVE",
"435 -13 OFFCURVE",
"487 -13 CURVE SMOOTH",
"657 -13 OFFCURVE",
"771 64 OFFCURVE",
"771 199 CURVE SMOOTH",
"771 285 OFFCURVE",
"721 353 OFFCURVE",
"608 369 CURVE"
);
}
);
width = 781;
}
);
rightKerningGroup = germandbls;
unicode = 00DF;
},
{
glyphname = t;
lastChange = "2023-06-01 19:18:33 +0000";
layers = (
{
anchors = (
{
name = bottom;
position = "{398, 0}";
},
{
name = center;
position = "{338, 283}";
},
{
name = top;
position = "{336, 690}";
},
{
name = topright;
position = "{336, 800}";
}
);
background = {
paths = (
{
closed = 1;
nodes = (
"465 -13 OFFCURVE",
"569 4 OFFCURVE",
"619 28 CURVE",
"619 258 LINE",
"595 250 OFFCURVE",
"565 244 OFFCURVE",
"529 244 CURVE SMOOTH",
"475 244 OFFCURVE",
"454 258 OFFCURVE",
"454 294 CURVE SMOOTH",
"454 330 LINE",
"619 330 LINE",
"619 565 LINE",
"454 565 LINE",
"454 690 LINE",
"358 690 LINE",
"276 586 OFFCURVE",
"127 517 OFFCURVE",
"10 507 CURVE",
"10 330 LINE",
"80 330 LINE",
"80 181 LINE SMOOTH",
"80 39 OFFCURVE",
"194 -13 OFFCURVE",
"363 -13 CURVE SMOOTH"
);
}
);
};
layerId = "3B426CF6-0C00-48CC-B0F4-6E2C4CD07FAD";
paths = (
{
closed = 1;
nodes = (
"465 -13 OFFCURVE",
"569 4 OFFCURVE",
"619 28 CURVE",
"619 248 LINE",
"608 254 LINE",
"586 249 OFFCURVE",
"560 244 OFFCURVE",
"529 244 CURVE SMOOTH",
"475 244 OFFCURVE",
"454 258 OFFCURVE",
"454 294 CURVE SMOOTH",
"454 330 LINE",
"619 330 LINE",
"619 565 LINE",
"454 565 LINE",
"454 690 LINE",
"358 690 LINE",
"276 586 OFFCURVE",
"127 517 OFFCURVE",
"10 507 CURVE",
"10 330 LINE",
"80 330 LINE",
"80 181 LINE SMOOTH",
"80 39 OFFCURVE",
"194 -13 OFFCURVE",
"363 -13 CURVE SMOOTH"
);
}
);
width = 629;
},
{
anchors = (
{
name = bottom;
position = "{329, 0}";
},
{
name = center;
position = "{282, 283}";
},
{
name = top;
position = "{280, 690}";
},
{
name = topright;
position = "{288, 800}";
}
);
layerId = "685D33D6-AC85-457D-AB31-6AFB1340D947";
paths = (
{
closed = 1;
nodes = (
"396 -13 OFFCURVE",
"467 -1 OFFCURVE",
"522 27 CURVE",
"522 246 LINE",
"511 252 LINE",
"492 245 OFFCURVE",
"471 242 OFFCURVE",
"444 242 CURVE SMOOTH",
"399 242 OFFCURVE",
"382 259 OFFCURVE",
"382 292 CURVE SMOOTH",
"382 330 LINE",
"522 330 LINE",
"522 565 LINE",
"382 565 LINE",
"382 690 LINE",
"306 690 LINE",
"245 621 OFFCURVE",
"130 518 OFFCURVE",
"10 482 CURVE",
"10 330 LINE",
"75 330 LINE",
"75 172 LINE SMOOTH",
"75 49 OFFCURVE",
"175 -13 OFFCURVE",
"326 -13 CURVE SMOOTH"
);
}
);
width = 532;
}
);
leftKerningGroup = t;
rightKerningGroup = t;
unicode = 0074;
},
{
glyphname = tbar;
lastChange = "2023-05-23 19:28:12 +0000";
layers = (
{
layerId = "3B426CF6-0C00-48CC-B0F4-6E2C4CD07FAD";
paths = (
{
closed = 1;
nodes = (
"464 -13 OFFCURVE",
"572 2 OFFCURVE",
"619 22 CURVE",
"619 242 LINE",
"595 234 OFFCURVE",
"566 228 OFFCURVE",
"526 228 CURVE SMOOTH",
"475 228 OFFCURVE",
"454 242 OFFCURVE",
"454 289 CURVE SMOOTH",
"454 340 LINE",
"619 340 LINE",
"619 565 LINE",
"454 565 LINE",
"454 690 LINE",
"358 690 LINE",
"276 586 OFFCURVE",
"127 517 OFFCURVE",
"10 507 CURVE",
"10 340 LINE",
"80 340 LINE",
"80 198 LINE SMOOTH",
"80 52 OFFCURVE",
"175 -13 OFFCURVE",
"367 -13 CURVE SMOOTH"
);
},
{
closed = 1;
nodes = (
"619 265 LINE",
"619 312 LINE",
"10 312 LINE",
"10 265 LINE"
);
}
);
width = 629;
},
{
layerId = "685D33D6-AC85-457D-AB31-6AFB1340D947";
paths = (
{
closed = 1;
nodes = (
"388 -13 OFFCURVE",
"476 6 OFFCURVE",
"522 28 CURVE",
"522 236 LINE",
"503 228 OFFCURVE",
"477 221 OFFCURVE",
"445 221 CURVE SMOOTH",
"399 221 OFFCURVE",
"382 238 OFFCURVE",
"382 280 CURVE SMOOTH",
"382 353 LINE",
"522 353 LINE",
"522 565 LINE",
"382 565 LINE",
"382 690 LINE",
"306 690 LINE",
"245 621 OFFCURVE",
"130 518 OFFCURVE",
"10 482 CURVE",
"10 353 LINE",
"75 353 LINE",
"75 184 LINE SMOOTH",
"75 53 OFFCURVE",
"154 -13 OFFCURVE",
"312 -13 CURVE SMOOTH"
);
},
{
closed = 1;
nodes = (
"522 268 LINE",
"522 315 LINE",
"10 315 LINE",
"10 268 LINE"
);
}
);
width = 532;
}
);
leftKerningGroup = t;
leftMetricsKey = t;
rightKerningGroup = t;
rightMetricsKey = t;
unicode = 0167;
},
{
glyphname = tcaron;
lastChange = "2023-05-31 06:25:01 +0000";
layers = (
{
background = {
components = (
{
alignment = -1;
name = t;
}
);
paths = (
{
closed = 1;
nodes = (
"751 588 OFFCURVE",
"841 618 OFFCURVE",
"841 671 CURVE SMOOTH",
"841 711 OFFCURVE",
"781 737 OFFCURVE",
"655 737 CURVE SMOOTH",
"550 737 OFFCURVE",
"491 722 OFFCURVE",
"491 690 CURVE SMOOTH",
"491 659 OFFCURVE",
"534 649 OFFCURVE",
"611 649 CURVE SMOOTH",
"637 649 OFFCURVE",
"662 652 OFFCURVE",
"680 657 CURVE",
"667 640 OFFCURVE",
"607 631 OFFCURVE",
"554 631 CURVE SMOOTH",
"527 631 OFFCURVE",
"502 633 OFFCURVE",
"483 636 CURVE",
"483 597 LINE",
"507 592 OFFCURVE",
"542 588 OFFCURVE",
"615 588 CURVE SMOOTH"
);
}
);
};
components = (
{
name = t;
},
{
name = _caroncomb.alt.t;
transform = "{1, 0, 0, 1, 439, 110}";
}
);
layerId = "3B426CF6-0C00-48CC-B0F4-6E2C4CD07FAD";
width = 629;
},
{
background = {
components = (
{
name = t;
}
);
paths = (
{
closed = 1;
nodes = (
"586 603 OFFCURVE",
"655 630 OFFCURVE",
"655 676 CURVE SMOOTH",
"655 714 OFFCURVE",
"614 737 OFFCURVE",
"528 737 CURVE SMOOTH",
"460 737 OFFCURVE",
"415 722 OFFCURVE",
"415 695 CURVE SMOOTH",
"415 673 OFFCURVE",
"441 659 OFFCURVE",
"497 659 CURVE SMOOTH",
"516 659 OFFCURVE",
"532 661 OFFCURVE",
"544 665 CURVE",
"535 649 OFFCURVE",
"496 641 OFFCURVE",
"458 641 CURVE SMOOTH",
"440 641 OFFCURVE",
"422 643 OFFCURVE",
"409 646 CURVE",
"409 609 LINE",
"424 605 OFFCURVE",
"454 603 OFFCURVE",
"483 603 CURVE SMOOTH"
);
}
);
};
components = (
{
name = t;
},
{
name = _caroncomb.alt.t;
transform = "{1, 0, 0, 1, 367, 110}";
}
);
layerId = "685D33D6-AC85-457D-AB31-6AFB1340D947";
width = 532;
}
);
leftKerningGroup = t;
rightKerningGroup = tcaron;
unicode = 0165;
},
{
glyphname = udieresis;
lastChange = "2023-06-01 23:13:00 +0000";
layers = (
{
anchors = (
{
name = bottom;
position = "{425, 0}";
},
{
name = ogonek;
position = "{767, 10}";
},
{
name = top;
position = "{439, 565}";
},
{
name = topright;
position = "{830, 565}";
}
);
layerId = "3B426CF6-0C00-48CC-B0F4-6E2C4CD07FAD";
paths = (
{
closed = 1;
nodes = (
"361 -13 OFFCURVE",
"448 38 OFFCURVE",
"464 209 CURVE",
"484 209 LINE",
"496 0 LINE",
"858 0 LINE",
"858 565 LINE",
"802 565 LINE",
"773 530 OFFCURVE",
"709 511 OFFCURVE",
"621 511 CURVE SMOOTH",
"564 511 OFFCURVE",
"517 519 OFFCURVE",
"484 535 CURVE",
"484 295 LINE SMOOTH",
"484 263 OFFCURVE",
"473 243 OFFCURVE",
"439 243 CURVE SMOOTH",
"412 243 OFFCURVE",
"394 255 OFFCURVE",
"394 295 CURVE SMOOTH",
"394 534 LINE",
"360 519 OFFCURVE",
"314 511 OFFCURVE",
"258 511 CURVE SMOOTH",
"170 511 OFFCURVE",
"106 530 OFFCURVE",
"78 565 CURVE",
"20 565 LINE",
"20 223 LINE SMOOTH",
"20 64 OFFCURVE",
"97 -13 OFFCURVE",
"240 -13 CURVE SMOOTH"
);
},
{
closed = 1;
nodes = (
"364 547 OFFCURVE",
"429 578 OFFCURVE",
"429 625 CURVE SMOOTH",
"429 675 OFFCURVE",
"357 703 OFFCURVE",
"254 703 CURVE SMOOTH",
"141 703 OFFCURVE",
"77 671 OFFCURVE",
"77 625 CURVE SMOOTH",
"77 575 OFFCURVE",
"148 547 OFFCURVE",
"254 547 CURVE SMOOTH"
);
},
{
closed = 1;
nodes = (
"736 547 OFFCURVE",
"800 578 OFFCURVE",
"800 625 CURVE SMOOTH",
"800 675 OFFCURVE",
"729 703 OFFCURVE",
"623 703 CURVE SMOOTH",
"513 703 OFFCURVE",
"448 671 OFFCURVE",
"448 625 CURVE SMOOTH",
"448 575 OFFCURVE",
"520 547 OFFCURVE",
"623 547 CURVE SMOOTH"
);
}
);
width = 878;
},
{
anchors = (
{
name = bottom;
position = "{369, 0}";
},
{
name = ogonek;
position = "{663, 10}";
},
{
name = top;
position = "{365, 565}";
},
{
name = topright;
position = "{718, 565}";
}
);
layerId = "685D33D6-AC85-457D-AB31-6AFB1340D947";
paths = (
{
closed = 1;
nodes = (
"312 -13 OFFCURVE",
"384 36 OFFCURVE",
"387 209 CURVE",
"404 209 LINE",
"414 0 LINE",
"711 0 LINE",
"711 565 LINE",
"645 565 LINE",
"617 535 OFFCURVE",
"568 519 OFFCURVE",
"505 519 CURVE SMOOTH",
"465 519 OFFCURVE",
"431 525 OFFCURVE",
"404 539 CURVE",
"404 303 LINE SMOOTH",
"404 262 OFFCURVE",
"394 242 OFFCURVE",
"365 242 CURVE SMOOTH",
"342 242 OFFCURVE",
"327 254 OFFCURVE",
"327 303 CURVE SMOOTH",
"327 538 LINE",
"300 525 OFFCURVE",
"267 519 OFFCURVE",
"227 519 CURVE SMOOTH",
"164 519 OFFCURVE",
"115 535 OFFCURVE",
"87 565 CURVE",
"20 565 LINE",
"20 193 LINE SMOOTH",
"20 54 OFFCURVE",
"76 -13 OFFCURVE",
"198 -13 CURVE SMOOTH"
);
},
{
closed = 1;
nodes = (
"310 547 OFFCURVE",
"358 578 OFFCURVE",
"358 625 CURVE SMOOTH",
"358 675 OFFCURVE",
"305 703 OFFCURVE",
"227 703 CURVE SMOOTH",
"142 703 OFFCURVE",
"95 671 OFFCURVE",
"95 625 CURVE SMOOTH",
"95 575 OFFCURVE",
"148 547 OFFCURVE",
"227 547 CURVE SMOOTH"
);
},
{
closed = 1;
nodes = (
"587 547 OFFCURVE",
"635 578 OFFCURVE",
"635 625 CURVE SMOOTH",
"635 675 OFFCURVE",
"582 703 OFFCURVE",
"503 703 CURVE SMOOTH",
"419 703 OFFCURVE",
"372 671 OFFCURVE",
"372 625 CURVE SMOOTH",
"372 575 OFFCURVE",
"425 547 OFFCURVE",
"503 547 CURVE SMOOTH"
);
}
);
width = 731;
}
);
leftKerningGroup = u;
unicode = 00FC;
},
{
glyphname = udieresisacute;
lastChange = "2023-06-01 23:13:00 +0000";
layers = (
{
components = (
{
name = udieresis;
}
);
layerId = "685D33D6-AC85-457D-AB31-6AFB1340D947";
paths = (
{
closed = 1;
nodes = (
"609 723 LINE",
"609 815 LINE",
"153 815 LINE",
"153 723 LINE"
);
}
);
width = 731;
},
{
components = (
{
name = udieresis;
}
);
layerId = "3B426CF6-0C00-48CC-B0F4-6E2C4CD07FAD";
paths = (
{
closed = 1;
nodes = (
"739 723 LINE",
"739 815 LINE",
"157 815 LINE",
"157 723 LINE"
);
}
);
width = 878;
}
);
leftKerningGroup = u;
unicode = 01D8;
},
{
glyphname = udieresiscaron;
lastChange = "2023-06-01 23:13:00 +0000";
layers = (
{
components = (
{
name = udieresis;
}
);
layerId = "685D33D6-AC85-457D-AB31-6AFB1340D947";
paths = (
{
closed = 1;
nodes = (
"313 723 LINE",
"366 757 LINE",
"419 723 LINE",
"669 723 LINE",
"669 737 LINE",
"545 815 LINE",
"187 815 LINE",
"63 737 LINE",
"63 723 LINE"
);
}
);
width = 731;
},
{
components = (
{
name = udieresis;
}
);
layerId = "3B426CF6-0C00-48CC-B0F4-6E2C4CD07FAD";
paths = (
{
closed = 1;
nodes = (
"383 723 LINE",
"436 757 LINE",
"489 723 LINE",
"739 723 LINE",
"739 737 LINE",
"615 815 LINE",
"257 815 LINE",
"133 737 LINE",
"133 723 LINE"
);
}
);
width = 878;
}
);
leftKerningGroup = u;
unicode = 01DA;
},
{
glyphname = udieresisgrave;
lastChange = "2023-06-01 23:13:00 +0000";
layers = (
{
components = (
{
name = udieresis;
}
);
layerId = "685D33D6-AC85-457D-AB31-6AFB1340D947";
paths = (
{
closed = 1;
nodes = (
"505 723 LINE",
"505 815 LINE",
"85 815 LINE",
"85 797 LINE",
"249 723 LINE"
);
}
);
width = 731;
},
{
components = (
{
name = udieresis;
}
);
layerId = "3B426CF6-0C00-48CC-B0F4-6E2C4CD07FAD";
paths = (
{
closed = 1;
nodes = (
"567 723 LINE",
"567 815 LINE",
"147 815 LINE",
"147 797 LINE",
"311 723 LINE"
);
}
);
width = 878;
}
);
leftKerningGroup = u;
unicode = 01DC;
},
{
glyphname = udieresismacron;
lastChange = "2023-06-01 23:13:00 +0000";
layers = (
{
components = (
{
name = udieresis;
}
);
layerId = "685D33D6-AC85-457D-AB31-6AFB1340D947";
paths = (
{
closed = 1;
nodes = (
"609 723 LINE",
"609 815 LINE",
"153 815 LINE",
"153 723 LINE"
);
}
);
width = 731;
},
{
components = (
{
name = udieresis;
}
);
layerId = "3B426CF6-0C00-48CC-B0F4-6E2C4CD07FAD";
paths = (
{
closed = 1;
nodes = (
"739 723 LINE",
"739 815 LINE",
"157 815 LINE",
"157 723 LINE"
);
}
);
width = 878;
}
);
leftKerningGroup = u;
unicode = 01D6;
},
